<svg xmlns="http://www.w3.org/2000/svg" xmlns:xlink="http://www.w3.org/1999/xlink" width="1920" zoomAndPan="magnify" viewBox="0 0 1440 809.999993" height="1080" preserveAspectRatio="xMidYMid meet" version="1.0"><defs><clipPath id="563cebb1fd"><path d="M 470.398438 243 L 967.195312 243 L 967.195312 563.503906 L 470.398438 563.503906 Z M 470.398438 243 " clip-rule="nonzero"/></clipPath></defs><g clip-path="url(#563cebb1fd)"><path fill="#231f20" d="M 564.847656 561.851562 C 681.398438 537.304688 748.011719 489.234375 816.050781 465.136719 C 849.796875 453.1875 879.335938 451.78125 902.167969 452.164062 C 931.523438 452.65625 952.0625 453.226562 964.292969 434.152344 C 974.71875 409.28125 957.175781 387.070312 910.011719 374.042969 C 880.03125 357.515625 866.203125 351.476562 838.246094 343.4375 C 837.90625 336.894531 837.777344 311.660156 833.066406 287.136719 C 828.394531 262.796875 817.808594 259.480469 794.820312 252.511719 C 778.695312 247.621094 761.511719 244.625 742.753906 243.425781 C 718.5625 241.878906 694.492188 244.699219 672.15625 249.929688 C 649.820312 255.15625 629.21875 262.796875 614.730469 277.085938 C 601.789062 289.84375 597.808594 300.199219 593.507812 324.871094 C 588.351562 325.734375 570.519531 328.847656 544.9375 340.871094 C 518.175781 353.449219 500.839844 371.070312 487.097656 396.824219 C 478.578125 412.78125 473.234375 427.976562 470.960938 451.355469 C 465.203125 510.644531 504.027344 574.660156 564.847656 561.851562 " fill-opacity="1" fill-rule="evenodd"/></g><path fill="#734e34" d="M 953.429688 411.617188 C 941.066406 403.890625 934.742188 398.242188 921.242188 393.210938 C 906.429688 387.691406 887.859375 382.589844 869.074219 383.957031 C 854.453125 385.019531 837.90625 391.113281 821.316406 395.980469 C 803.625 401.160156 796.320312 403.714844 777.140625 412.5625 C 746.382812 426.75 713.664062 459.144531 688.285156 483.542969 C 679.8125 491.683594 668.054688 497.855469 659.125 506.1875 C 647.6875 516.859375 627.925781 533.710938 612.460938 537.203125 C 626.375 527.003906 644.210938 515.097656 658.441406 501.816406 C 668.351562 492.574219 679.675781 487.675781 689.039062 478.714844 C 713.453125 455.34375 735.71875 428.933594 765.375 415.261719 C 784.546875 406.421875 804.128906 395.269531 821.820312 390.082031 C 859.753906 378.949219 893.003906 379.367188 919.351562 389.199219 C 933.15625 394.347656 943.738281 401.03125 953.429688 411.617188 Z M 567.550781 554.71875 C 679.351562 531.175781 750.449219 480.917969 815.726562 457.804688 C 848.089844 446.34375 877.183594 445.539062 899.851562 445.574219 C 928.996094 445.621094 948.199219 447.296875 957.207031 431.910156 C 969.316406 411.21875 951.066406 391.871094 906.023438 379.375 C 881.0625 374.53125 851.097656 378.941406 818.339844 388.386719 C 809.695312 390.878906 800.179688 393.433594 790.824219 397.636719 C 780.703125 402.191406 770.703125 408.480469 760.570312 413.074219 C 742.964844 421.054688 727.570312 431.046875 713.175781 444.113281 C 701.980469 454.277344 691.523438 466.980469 680.226562 477.65625 C 671.621094 485.785156 661.214844 491.789062 652.128906 500.121094 C 640.996094 510.328125 625.644531 521.730469 613.871094 531.128906 C 607.464844 536.242188 593.925781 544.296875 578.960938 548.789062 C 567.515625 552.234375 553.9375 553.253906 541.828125 550.492188 C 534.5625 548.832031 527.9375 545.585938 522.300781 541.292969 C 528.339844 543.621094 535.425781 546.429688 542.648438 547.617188 C 551.363281 549.046875 560.292969 548.5 567.847656 547.011719 C 569.265625 546.730469 575.621094 547.0625 578.621094 545.957031 C 593.289062 540.542969 606.972656 529.519531 613.367188 524.40625 C 625.140625 515.015625 641.34375 503.828125 652.472656 493.621094 C 663.253906 483.734375 674.449219 474.304688 684.992188 464.148438 C 653.117188 465.902344 613.117188 462.0625 590.359375 449.679688 C 581.960938 449.015625 567.964844 452.667969 560.292969 455.898438 C 564.527344 450.664062 580.859375 445.339844 587.847656 442.683594 C 588.378906 425.433594 588.867188 375.210938 592.542969 343.324219 C 585.046875 343.40625 578.960938 343.921875 573.03125 345.3125 C 527.398438 353.972656 499.882812 394.921875 490.574219 435.789062 C 487.925781 447.421875 486.011719 460.46875 485.820312 472.113281 C 485.511719 489.890625 487.796875 501.570312 498.976562 516.160156 C 487.574219 507.628906 482.910156 491.679688 483.039062 472.894531 C 483.125 460.210938 484.957031 446.152344 487.796875 433.421875 C 488.921875 428.390625 490.328125 423.355469 492.003906 418.363281 C 495.679688 407.453125 501.917969 398.898438 508.238281 389.175781 C 514.1875 380.03125 520.058594 369.582031 528.339844 362.574219 C 540.035156 352.675781 551.304688 346.113281 567.648438 343.011719 C 578.605469 340.933594 581.636719 338.5 592.699219 338.230469 C 592.917969 336.535156 593.492188 333.804688 593.730469 331.175781 C 582.84375 332.847656 549.40625 339.367188 521.28125 362.382812 C 499.40625 380.289062 481.074219 408.179688 476.863281 451.53125 C 471.339844 508.402344 509.203125 567.003906 567.550781 554.71875 " fill-opacity="1" fill-rule="evenodd"/><path fill="#734e34" d="M 827.585938 291.84375 C 823.105469 268.492188 815.425781 265.316406 793.371094 258.636719 C 777.898438 253.941406 760.421875 251.070312 742.4375 249.917969 C 719.332031 248.433594 694.671875 252.398438 673 257.367188 C 651.144531 262.371094 632.308594 268.460938 618.347656 282.21875 C 607.390625 293.015625 603.117188 303.527344 599.433594 322.113281 C 595.335938 363.386719 594.054688 411.21875 593.992188 429.808594 C 611.191406 437.976562 659.339844 448.347656 707.695312 441 C 719.1875 431.578125 734.839844 416.40625 760.394531 404.820312 C 784.339844 393.964844 808.882812 383.144531 834.640625 377.25 C 832.898438 349.039062 832.941406 319.75 827.585938 291.84375 Z M 616.359375 295.78125 C 613.785156 297.84375 603.417969 314.675781 623.265625 315.511719 C 631.007812 315.828125 640.195312 314.953125 649.621094 312.503906 C 657.945312 310.335938 666.644531 306.261719 674.539062 303.386719 C 680.636719 301.167969 686.199219 299.449219 691.179688 297.53125 C 705.699219 291.925781 720.75 286.511719 735.390625 283.574219 C 758.234375 278.980469 780.839844 278.417969 804.648438 277.308594 C 792.824219 274.863281 778.800781 276.363281 764.785156 277.589844 C 753.804688 278.550781 745.167969 277.238281 734.226562 279.3125 C 716.597656 282.664062 697.109375 290.171875 683.085938 295.25 C 672.289062 299.15625 661.800781 303.429688 650.652344 306.308594 C 642.3125 308.464844 633.621094 310.042969 627.414062 309.691406 C 620.164062 309.277344 616.886719 303.128906 616.359375 295.78125 Z M 765.253906 365.609375 C 759.242188 366.640625 733.074219 367.457031 714.441406 358.320312 C 712.957031 357.707031 711.226562 356.46875 709.457031 354.769531 C 707.769531 353.160156 705.609375 349.59375 704.050781 347.351562 C 702.484375 345.09375 701.519531 344.164062 700.453125 341.628906 C 695.652344 330.246094 705.652344 315.398438 716.15625 305.203125 C 719.367188 302.082031 722.328125 297.679688 725.304688 296.128906 C 716.703125 312.523438 693.28125 326.121094 708.164062 347.507812 C 714.242188 358.101562 734.53125 359.519531 765.253906 365.609375 " fill-opacity="1" fill-rule="evenodd"/><path fill="#6a432c" d="M 892.347656 371.5 C 873.027344 361.527344 858.199219 355.609375 838.621094 349.753906 L 840.214844 376.09375 C 859.019531 372.050781 876.324219 370.398438 892.347656 371.5 " fill-opacity="1" fill-rule="evenodd"/><path fill="#81593b" d="M 513.847656 505.933594 C 526.773438 478.035156 551.179688 464.3125 580.890625 458.539062 C 587.96875 457.164062 594.308594 459.839844 602.386719 462.378906 C 609.078125 464.484375 620.109375 465.667969 626.058594 468.257812 C 633.558594 471.515625 596.40625 470.796875 554.914062 483.808594 C 538.710938 488.886719 535.257812 496.335938 520.378906 505.996094 C 515.628906 509.078125 509.792969 514.671875 513.847656 505.933594 " fill-opacity="1" fill-rule="evenodd"/><path fill="#8f6340" d="M 522.265625 495.066406 C 526.777344 487.726562 535.011719 482.359375 539.378906 478.863281 C 543.230469 475.78125 548.285156 472.550781 553.773438 470.121094 C 570.476562 462.726562 589.089844 460.457031 593.878906 460.902344 C 587.402344 461.957031 557.214844 473.308594 542.183594 481.074219 C 536.808594 483.847656 526.449219 490.738281 522.265625 495.066406 " fill-opacity="1" fill-rule="evenodd"/><path fill="#6a432c" d="M 535.824219 459.371094 C 540.644531 458.410156 545.5 460.09375 551.917969 457.945312 C 554.382812 457.113281 557.910156 456.191406 561.105469 455.027344 C 566.304688 450.085938 581.246094 445.191406 587.847656 442.683594 C 588.378906 425.433594 588.867188 375.210938 592.542969 343.324219 C 585.046875 343.40625 578.960938 343.921875 573.03125 345.3125 C 527.398438 353.972656 499.882812 394.921875 490.574219 435.789062 C 487.925781 447.421875 486.011719 460.46875 485.820312 472.113281 C 485.539062 488.597656 487.484375 499.839844 496.683594 513.015625 C 505.773438 517.902344 503.46875 514.460938 501.675781 509.085938 C 498.222656 498.746094 498.503906 490.679688 505.347656 480.574219 C 512.96875 469.320312 527.371094 461.050781 535.824219 459.371094 " fill-opacity="1" fill-rule="evenodd"/><path fill="#653b23" d="M 514.417969 383.210938 C 521.699219 380.894531 531.113281 380.480469 538.847656 383.550781 C 542.921875 385.164062 552.726562 402.722656 556.296875 405.367188 C 562.09375 409.671875 559.191406 427.722656 557.558594 431.355469 C 556.460938 433.800781 553.34375 451.433594 548.972656 458.699219 C 549.917969 458.527344 550.898438 458.285156 551.917969 457.945312 C 554.382812 457.113281 557.910156 456.191406 561.105469 455.027344 C 566.304688 450.085938 581.246094 445.191406 587.847656 442.683594 C 588.378906 425.433594 588.867188 375.210938 592.542969 343.324219 C 585.046875 343.40625 578.960938 343.921875 573.03125 345.3125 C 548.074219 350.046875 528.523438 364.449219 514.417969 383.210938 " fill-opacity="1" fill-rule="evenodd"/><path fill="#59341f" d="M 547.71875 354.179688 C 580.445312 347.992188 579.800781 358.621094 581.839844 360.648438 C 584.761719 363.5625 586.722656 419.285156 581.246094 430.375 C 576.222656 440.558594 572.445312 444.375 568.949219 450.148438 C 575.394531 447.0625 583.460938 444.347656 587.847656 442.683594 C 588.378906 425.433594 588.867188 375.210938 592.542969 343.324219 C 585.046875 343.40625 578.960938 343.921875 573.03125 345.3125 C 563.863281 347.050781 555.425781 350.09375 547.71875 354.179688 " fill-opacity="1" fill-rule="evenodd"/><path fill="#ad7d5b" d="M 493.671875 519.445312 C 489.351562 506.550781 480.835938 494.035156 480.976562 472.1875 C 481.0625 459.878906 483.183594 445.695312 485.925781 433.332031 C 487.011719 428.445312 488.023438 423.539062 489.644531 418.707031 C 493.191406 408.105469 499.242188 399.628906 505.355469 390.183594 C 511.101562 381.304688 516.441406 371.5 524.445312 364.695312 C 535.757812 355.078125 551.128906 345.195312 566.9375 342.183594 C 577.335938 340.203125 581.371094 337.71875 591.714844 337.609375 C 591.984375 336.390625 592.542969 334.488281 592.113281 332.09375 C 569.476562 334.835938 539.695312 347.246094 522.089844 363.023438 C 514.679688 370.53125 506.914062 377.632812 500.257812 387.042969 C 494.375 395.34375 490.25 405.511719 486.585938 414.976562 C 478.265625 436.46875 477.019531 459.296875 477.769531 475.417969 C 478.191406 484.527344 488.003906 515.609375 493.671875 519.445312 " fill-opacity="1" fill-rule="evenodd"/><path fill="#6a432c" d="M 806.390625 452.859375 C 815.011719 449.050781 842.355469 438.035156 861.449219 435.613281 C 881.773438 433.039062 891.597656 431.21875 900.234375 434.183594 C 915.199219 439.332031 928.65625 437.386719 931.082031 429.316406 C 933.511719 421.246094 927.25 416.839844 918.078125 407.902344 C 909.214844 399.269531 895.265625 393.675781 892.925781 391 C 901.964844 395.152344 915.550781 400.011719 922.449219 406.296875 C 924.183594 407.882812 930.757812 413.832031 932.035156 415.699219 C 930.78125 410.308594 925.566406 406.347656 923.855469 404.0625 C 921.125 400.410156 916.558594 394.226562 912.390625 390.144531 C 899.347656 385.984375 884.28125 382.851562 869.074219 383.957031 C 854.453125 385.019531 837.90625 391.113281 821.316406 395.980469 C 803.625 401.160156 796.320312 403.714844 777.140625 412.5625 C 746.382812 426.75 713.664062 459.144531 688.285156 483.542969 C 679.8125 491.683594 668.054688 497.855469 659.125 506.1875 C 649.542969 515.128906 634.109375 528.414062 620.257812 534.535156 C 641.210938 531.113281 657.507812 521.824219 677.609375 514.816406 C 696.273438 508.308594 712.484375 500.722656 729.875 492.707031 C 747.957031 482.660156 765.976562 473.421875 784.894531 465.132812 C 791.734375 462.140625 799.355469 455.761719 806.390625 452.859375 " fill-opacity="1" fill-rule="evenodd"/><path fill="#5f3721" d="M 628.410156 530.269531 C 670.503906 514.433594 698.113281 489.136719 726.910156 465.011719 C 733.050781 459.867188 741.011719 456.019531 748.417969 450.28125 C 755.414062 444.867188 775.957031 433.304688 775.957031 433.304688 C 770.996094 433.933594 757.144531 439.011719 753.796875 439.898438 C 760.996094 430.113281 777.777344 416.867188 789.894531 406.863281 C 786.171875 408.449219 782.046875 410.300781 777.140625 412.5625 C 746.382812 426.75 713.664062 459.144531 688.285156 483.542969 C 679.8125 491.683594 668.054688 497.855469 659.125 506.1875 C 651.390625 513.402344 639.855469 523.441406 628.410156 530.269531 " fill-opacity="1" fill-rule="evenodd"/><path fill="#ad7d5b" d="M 953.601562 408.523438 C 943.386719 399.769531 933.710938 393.605469 920.210938 388.566406 C 905.394531 383.046875 887.859375 378.988281 869.074219 380.347656 C 854.453125 381.410156 838.335938 384.753906 821.746094 389.613281 C 804.054688 394.800781 795.972656 399.769531 776.800781 408.613281 C 761.425781 415.703125 743.746094 425.117188 728.289062 437.691406 C 712.832031 450.265625 699.597656 466.019531 686.902344 478.21875 C 678.445312 486.355469 667.878906 491.667969 658.953125 500 C 647.519531 510.667969 624.316406 529.242188 610.742188 534.453125 C 625.347656 522.539062 643.523438 510.628906 657.757812 497.351562 C 667.664062 488.105469 677.269531 482.863281 686.632812 473.898438 C 699.601562 461.488281 710.171875 448.433594 723.765625 437.03125 C 735.761719 426.972656 750.617188 418.238281 764.515625 411.828125 C 783.691406 402.992188 804.132812 393.042969 821.820312 387.855469 C 859.753906 376.730469 893.78125 374.726562 920.128906 384.554688 C 933.929688 389.710938 943.910156 397.945312 953.601562 408.523438 " fill-opacity="1" fill-rule="evenodd"/><path fill="#6a422b" d="M 810.246094 328.542969 C 810.992188 325.394531 816.230469 322.582031 815.191406 319.921875 C 804.824219 293.496094 804.308594 282.601562 772.582031 288.503906 C 761.382812 290.585938 750.230469 294.535156 744.617188 295.640625 C 738.09375 298.347656 723.242188 300.089844 718.769531 305.75 C 710.839844 315.777344 701.214844 325.53125 703.746094 337.773438 C 710.03125 341.457031 722.054688 344.898438 731.367188 346.132812 C 750.246094 348.621094 762.167969 336.875 774.5 333.230469 C 784.140625 330.382812 795.59375 334.542969 803.535156 334.054688 C 806.816406 333.851562 809.101562 333.421875 810.246094 328.542969 " fill-opacity="1" fill-rule="evenodd"/><path fill="#81593b" d="M 763.789062 365.210938 C 771.128906 363.628906 794.296875 356.984375 798.105469 352.390625 C 800.214844 349.851562 802.976562 347.292969 804.097656 344.5625 C 805.089844 342.136719 806.644531 338.949219 807.957031 337.023438 C 804.925781 337.527344 803.023438 336.820312 793.277344 341.171875 C 788.574219 343.273438 781.742188 346.359375 773.957031 348.898438 C 766.179688 351.4375 756.585938 353.324219 744.679688 352.863281 C 737.277344 352.570312 726.921875 351.179688 717.179688 347.660156 C 712.535156 345.988281 708.695312 342.789062 704.621094 340.84375 C 705.402344 342.984375 706.554688 345.199219 708.164062 347.507812 C 712.730469 355.472656 725.34375 358.253906 744.371094 361.730469 C 750.128906 362.675781 756.574219 363.765625 763.789062 365.210938 " fill-opacity="1" fill-rule="evenodd"/><path fill="#81593b" d="M 603.457031 433.480469 C 603.457031 431.785156 603.445312 429.550781 603.371094 428.433594 C 602.328125 412.492188 611.644531 400.792969 613.460938 392.84375 C 614.71875 373.097656 607.527344 364.742188 608.65625 354.429688 C 611.632812 327.015625 606.671875 330.742188 607.363281 325.355469 C 608.234375 318.628906 612.105469 321.875 618.9375 322.671875 C 623.605469 323.21875 630.199219 320.496094 636.355469 318.035156 C 632.332031 318.761719 622.578125 318.121094 619.484375 317.621094 C 615.234375 317.609375 611.40625 316.191406 610.3125 312.667969 C 608.910156 308.136719 610.359375 302.269531 610.359375 302.269531 C 610.226562 301.535156 610.636719 295.480469 612.105469 292.957031 C 613.640625 290.335938 619.550781 286.855469 622.070312 284.316406 C 630.242188 276.074219 652.9375 269.566406 660.566406 263.667969 C 654.695312 264.554688 647.800781 265.511719 641.519531 267.019531 C 632.8125 270.816406 625.023438 275.632812 618.347656 282.21875 C 607.390625 293.015625 603.117188 303.527344 599.433594 322.113281 C 595.335938 363.386719 594.054688 411.21875 593.992188 429.808594 C 596.515625 431.003906 599.699219 432.25 603.457031 433.480469 " fill-opacity="1" fill-rule="evenodd"/><path fill="#81593b" d="M 668.023438 307.65625 C 680.660156 302.003906 696.382812 295.90625 710.023438 291.800781 C 711.257812 291.429688 714.679688 290.355469 718.417969 289.242188 C 721.550781 288.929688 741.265625 281.910156 747.132812 285.765625 C 742.851562 286.707031 735.210938 288.007812 729.742188 289.9375 C 721.746094 292.753906 714.53125 297.003906 713.261719 297.871094 C 705.445312 303.964844 708.585938 311.855469 698.210938 318.320312 C 691.347656 322.597656 683.5 323.523438 675.730469 325.058594 C 661.878906 327.792969 648.261719 328.707031 640.871094 327.300781 C 637.683594 326.691406 629.945312 325.992188 630.597656 322.753906 C 638.003906 323.042969 645.230469 321.152344 653.367188 316.53125 C 658.671875 313.519531 662.8125 310.765625 668.023438 307.65625 " fill-opacity="1" fill-rule="evenodd"/><path fill="#6a422b" d="M 616.464844 296.875 C 617.226562 303.730469 620.53125 309.300781 627.414062 309.691406 C 633.621094 310.042969 642.3125 308.464844 650.652344 306.308594 C 661.800781 303.429688 672.289062 299.15625 683.085938 295.25 C 697.109375 290.171875 716.597656 282.664062 734.226562 279.3125 C 745.167969 277.238281 753.804688 278.550781 764.785156 277.589844 C 768.136719 277.296875 771.488281 276.988281 774.808594 276.722656 C 761.84375 273.195312 720.355469 266.117188 694.710938 269.640625 C 679.472656 271.730469 623.066406 281.945312 616.464844 296.875 " fill-opacity="1" fill-rule="evenodd"/><path fill="#81593b" d="M 753.648438 252.679688 C 760.925781 254.25 788.398438 253.722656 811.222656 272.859375 C 799.082031 270.800781 802.167969 267.121094 793.453125 265.007812 C 788.75 262.910156 774.351562 265.152344 766.570312 262.617188 C 763.765625 261.707031 762.449219 257.121094 756.554688 256.453125 C 746.730469 255.34375 738.050781 257.519531 733.117188 257.15625 C 724.636719 256.527344 701.679688 255.851562 696 255.6875 C 711.007812 251.234375 731.933594 254.058594 753.648438 252.679688 " fill-opacity="1" fill-rule="evenodd"/><path fill="#6a432c" d="M 691.695312 442.816406 C 694.09375 415.648438 689.160156 387.945312 692.382812 360.78125 C 693.644531 350.140625 694.117188 340.277344 696.429688 329.464844 C 697.191406 337.449219 698.496094 343.507812 702.082031 348.539062 C 705.675781 353.582031 712.773438 359.648438 718.53125 361.925781 C 734.453125 369.542969 753.957031 367.234375 768.929688 366.699219 C 777.496094 366.394531 794.546875 374.515625 799.753906 373.636719 C 802.117188 373.238281 804.601562 372.804688 806.582031 372.496094 C 808.296875 372.230469 822.792969 371.925781 834.359375 372.5 C 834.449219 374.085938 834.539062 375.667969 834.640625 377.25 C 808.882812 383.144531 784.339844 393.964844 760.394531 404.820312 C 734.839844 416.40625 719.1875 431.578125 707.695312 441 C 702.347656 441.8125 697 442.414062 691.695312 442.816406 " fill-opacity="1" fill-rule="evenodd"/><path fill="#ba8256" d="M 695.246094 455.121094 C 671.890625 457.242188 647.105469 456.457031 623.988281 452.082031 C 612.453125 449.90625 601.558594 446.5625 592.78125 441.917969 C 592.796875 441.074219 592.832031 439.855469 592.882812 439.007812 C 609.765625 448.054688 652.984375 456.292969 699.363281 450.703125 C 697.832031 452.285156 696.769531 453.523438 695.246094 455.121094 " fill-opacity="1" fill-rule="evenodd"/><path fill="#9a6b4b" d="M 695.242188 455.121094 C 688.882812 455.703125 682.421875 456.058594 675.910156 456.191406 L 676.027344 452.421875 C 683.644531 452.210938 691.457031 451.65625 699.363281 450.703125 C 697.832031 452.285156 696.769531 453.527344 695.242188 455.121094 " fill-opacity="1" fill-rule="evenodd"/><path fill="#ba8256" d="M 693.679688 456.765625 C 647.40625 461.007812 605.984375 452.164062 592.769531 443.195312 C 592.800781 444.140625 592.832031 444.832031 592.949219 445.46875 C 604.535156 452.433594 619.425781 456.0625 634.863281 457.996094 C 653.402344 460.320312 672.78125 460.976562 691.355469 459.292969 L 693.679688 456.765625 " fill-opacity="1" fill-rule="evenodd"/><path fill="#9a6b4b" d="M 693.679688 456.765625 C 687.003906 457.375 680.433594 457.710938 674.035156 457.816406 L 673.960938 460.203125 C 679.804688 460.105469 685.617188 459.8125 691.355469 459.292969 L 693.679688 456.765625 " fill-opacity="1" fill-rule="evenodd"/><path fill="#e2b78f" d="M 638.964844 456.0625 C 622.664062 454.101562 609.105469 450.746094 600.140625 447.015625 L 600.125 449.191406 C 610.398438 453.792969 622.453125 456.441406 634.863281 457.996094 C 636.191406 458.160156 637.53125 458.320312 638.867188 458.46875 L 638.964844 456.0625 " fill-opacity="1" fill-rule="evenodd"/><path fill="#ba8256" d="M 593.003906 437.152344 C 609.710938 446.414062 654.628906 454.703125 701.566406 448.554688 L 701.570312 448.550781 C 702.511719 447.589844 703.441406 446.636719 704.382812 445.691406 L 704.386719 445.6875 C 691.078125 447.84375 677.175781 448.777344 663.984375 448.503906 C 632.070312 447.832031 605.171875 441.695312 593.296875 434.703125 C 593.183594 435.355469 593.082031 436.203125 593.003906 437.152344 " fill-opacity="1" fill-rule="evenodd"/><path fill="#9a6b4b" d="M 674.265625 450.605469 C 683.15625 450.410156 692.324219 449.765625 701.570312 448.554688 L 701.578125 448.542969 C 702.511719 447.589844 703.441406 446.636719 704.382812 445.691406 L 704.386719 445.6875 C 694.519531 447.285156 684.316406 448.210938 674.328125 448.46875 L 674.265625 450.605469 " fill-opacity="1" fill-rule="evenodd"/><path fill="#e2b78f" d="M 600.199219 440.421875 C 609.636719 444.027344 623.25 447.199219 639.25 449.027344 L 639.339844 446.839844 C 623.210938 444.972656 609.566406 441.753906 600.222656 438.019531 L 600.199219 440.421875 " fill-opacity="1" fill-rule="evenodd"/><path fill="#e2b78f" d="M 598.527344 441.609375 L 598.5 444.640625 C 606.105469 447.894531 614.839844 450.355469 623.988281 452.082031 C 628.394531 452.917969 632.855469 453.617188 637.363281 454.191406 L 637.507812 450.652344 C 621.351562 448.675781 607.773438 445.328125 598.527344 441.609375 " fill-opacity="1" fill-rule="evenodd"/><path fill="#5f3721" d="M 700.046875 442.023438 C 705.378906 436.519531 711.800781 430.824219 717.8125 425.78125 C 729.804688 415.722656 744.664062 406.988281 758.558594 400.582031 C 771.105469 394.800781 805.246094 378.796875 834.617188 376.921875 L 834.640625 377.25 C 808.882812 383.144531 784.339844 393.964844 760.394531 404.820312 C 734.839844 416.40625 719.1875 431.578125 707.695312 441 C 705.144531 441.386719 702.59375 441.734375 700.046875 442.023438 " fill-opacity="1" fill-rule="evenodd"/><path fill="#81593b" d="M 878.367188 368.171875 C 870.671875 364.195312 865.996094 361.96875 862.046875 360.082031 C 856.089844 357.234375 851.660156 355.457031 839.882812 351.9375 C 841.300781 353.792969 842.484375 357.230469 844.292969 358.707031 C 847.320312 361.164062 854.730469 360.828125 858.5 362.351562 C 865.265625 365.09375 871.261719 367.679688 878.367188 368.171875 " fill-opacity="1" fill-rule="evenodd"/></svg>