<svg xmlns="http://www.w3.org/2000/svg" xmlns:xlink="http://www.w3.org/1999/xlink" width="1920" zoomAndPan="magnify" viewBox="0 0 1440 809.999993" height="1080" preserveAspectRatio="xMidYMid meet" version="1.0"><defs><clipPath id="89d986094b"><path d="M 680 222.5625 L 725 222.5625 L 725 281 L 680 281 Z M 680 222.5625 " clip-rule="nonzero"/></clipPath><clipPath id="05818b5891"><path d="M 684 222.5625 L 725 222.5625 L 725 273 L 684 273 Z M 684 222.5625 " clip-rule="nonzero"/></clipPath><clipPath id="ccfa9a1a8e"><path d="M 520.261719 380.371094 L 834.257812 380.371094 L 834.257812 546.5625 L 520.261719 546.5625 Z M 520.261719 380.371094 " clip-rule="nonzero"/></clipPath><clipPath id="543cddd23d"><path d="M 662 442 L 693 442 L 693 546.5625 L 662 546.5625 Z M 662 442 " clip-rule="nonzero"/></clipPath></defs><path fill="#236830" d="M 641.972656 274.660156 C 641.320312 277.183594 640.550781 279.636719 639.660156 281.988281 C 636.636719 281.796875 633.964844 281.921875 631.546875 281.777344 C 629.082031 281.628906 626.890625 281.207031 624.875 279.890625 C 623.503906 279 622.214844 277.6875 620.976562 275.773438 C 614.871094 266.3125 610.1875 255.519531 605.039062 245.503906 C 604.730469 244.90625 604.417969 244.285156 604.140625 243.664062 C 603.414062 242.058594 602.878906 240.382812 603.070312 238.660156 C 603.511719 234.636719 607.554688 232.113281 611.257812 230.480469 C 620.605469 226.359375 630.6875 223.933594 640.882812 223.339844 C 641.835938 223.289062 642.84375 223.261719 643.660156 223.753906 C 645.003906 224.578125 645.226562 226.410156 645.285156 227.984375 C 645.820312 242.535156 645.800781 259.875 641.972656 274.660156 " fill-opacity="1" fill-rule="nonzero"/><g clip-path="url(#89d986094b)"><path fill="#236830" d="M 723.53125 235.128906 C 718.917969 245.695312 714.011719 256.15625 708.042969 266.019531 C 705.570312 270.101562 702.679688 274.253906 698.890625 276.996094 C 697.441406 278.050781 695.863281 278.890625 694.128906 279.4375 C 689.765625 280.824219 684.316406 280.453125 680.050781 279.027344 C 681.550781 277.136719 682.382812 274.90625 682.828125 272.507812 C 683 271.605469 683.121094 270.671875 683.195312 269.730469 C 683.527344 265.65625 683.136719 261.308594 683.28125 257.429688 C 683.648438 247.449219 684.011719 237.472656 684.378906 227.496094 C 684.425781 226.179688 684.476562 224.863281 684.523438 223.550781 C 684.535156 223.277344 684.554688 222.988281 684.734375 222.789062 C 684.96875 222.539062 685.371094 222.550781 685.71875 222.582031 C 695.734375 223.527344 705.757812 224.480469 715.773438 225.429688 C 719.410156 225.769531 723.949219 226.902344 724.558594 230.507812 C 724.824219 232.085938 724.171875 233.660156 723.53125 235.128906 " fill-opacity="1" fill-rule="nonzero"/></g><g clip-path="url(#05818b5891)"><path fill="#245c2b" d="M 703.808594 272.199219 C 698.765625 271.167969 693.671875 270.398438 688.550781 269.886719 C 694.550781 269.449219 700.410156 266.996094 704.8125 262.890625 C 711.03125 257.097656 714.164062 248.164062 712.9375 239.753906 C 709.445312 242.214844 706.289062 245.144531 703.570312 248.433594 C 705.761719 245.390625 708.03125 242.132812 708.332031 238.394531 C 708.636719 234.652344 706.085938 230.414062 702.335938 230.332031 C 702.300781 230.332031 702.265625 230.332031 702.230469 230.332031 C 699.601562 230.332031 697.355469 232.289062 695.800781 234.417969 C 694.222656 236.578125 693.027344 239.0625 691.03125 240.839844 C 692.125 237.679688 692.433594 234.25 691.914062 230.945312 C 691.730469 229.769531 691.414062 228.550781 690.605469 227.683594 C 689.828125 226.847656 688.710938 226.472656 687.558594 226.472656 C 686.660156 226.472656 685.742188 226.699219 684.945312 227.109375 C 684.765625 227.203125 684.574219 227.335938 684.378906 227.496094 C 684.425781 226.179688 684.476562 224.863281 684.523438 223.550781 C 684.535156 223.277344 684.554688 222.988281 684.734375 222.789062 C 684.902344 222.613281 685.148438 222.5625 685.402344 222.5625 C 685.507812 222.5625 685.617188 222.574219 685.71875 222.582031 C 695.734375 223.527344 705.757812 224.480469 715.773438 225.429688 C 719.410156 225.769531 723.949219 226.902344 724.558594 230.507812 C 724.601562 230.757812 724.617188 231.003906 724.617188 231.253906 C 724.617188 232.582031 724.070312 233.890625 723.53125 235.128906 C 718.917969 245.695312 714.011719 256.15625 708.042969 266.019531 C 706.761719 268.128906 705.371094 270.257812 703.808594 272.199219 " fill-opacity="1" fill-rule="nonzero"/></g><path fill="#245c2b" d="M 628.945312 275.617188 C 630.726562 273.398438 632.242188 270.964844 633.421875 268.375 C 636.695312 261.183594 637.402344 253.128906 638.058594 245.257812 C 638.371094 241.523438 638.523438 237.296875 635.960938 234.566406 C 635.671875 234.253906 635.296875 233.953125 634.875 233.953125 C 634.851562 233.953125 634.832031 233.953125 634.808594 233.953125 C 634.207031 234.003906 633.847656 234.628906 633.601562 235.183594 C 632.664062 237.265625 631.722656 239.34375 630.777344 241.425781 C 630.160156 239.316406 629.496094 237.113281 627.953125 235.542969 C 627 234.574219 625.59375 233.953125 624.261719 233.953125 C 623.445312 233.953125 622.652344 234.183594 622.007812 234.71875 C 621.253906 235.328125 620.8125 236.234375 620.441406 237.136719 C 619.226562 240.074219 618.550781 243.234375 618.460938 246.414062 C 617.578125 243.394531 616.207031 240.519531 614.414062 237.933594 C 613.4375 236.515625 612.09375 235.0625 610.363281 235.050781 C 610.355469 235.050781 610.34375 235.050781 610.332031 235.050781 C 606.597656 235.050781 604.8125 239.917969 604.140625 243.664062 C 603.515625 242.277344 603.027344 240.84375 603.03125 239.367188 C 603.03125 239.128906 603.042969 238.898438 603.070312 238.660156 C 603.511719 234.636719 607.554688 232.113281 611.257812 230.480469 C 620.605469 226.359375 630.6875 223.933594 640.882812 223.339844 C 641.152344 223.328125 641.421875 223.3125 641.691406 223.3125 C 642.386719 223.3125 643.074219 223.402344 643.660156 223.753906 C 645.003906 224.578125 645.226562 226.410156 645.285156 227.984375 C 645.429688 231.90625 645.53125 236.03125 645.53125 240.253906 C 645.53125 250.839844 644.878906 262.042969 642.570312 272.210938 C 638.988281 272.9375 635.433594 273.789062 631.914062 274.761719 C 630.921875 275.039062 629.933594 275.324219 628.945312 275.617188 " fill-opacity="1" fill-rule="nonzero"/><path fill="#48b145" d="M 725.929688 287.082031 C 725.472656 290.59375 724.996094 294.097656 724.488281 297.601562 C 720.976562 322.207031 716.339844 346.65625 710.597656 370.839844 C 710.082031 373.054688 709.542969 375.265625 709.003906 377.46875 C 708.699219 378.710938 708.363281 380.003906 707.5 380.953125 C 706.347656 382.214844 704.53125 382.578125 702.84375 382.839844 C 695.035156 384.058594 687.089844 384.675781 679.121094 385.152344 C 670.886719 385.640625 662.621094 385.972656 654.457031 386.648438 C 640.46875 387.800781 626.765625 389.964844 613.964844 395.628906 C 614.550781 395.367188 613.390625 388.878906 611.582031 380.3125 C 610.691406 376.089844 609.640625 371.359375 608.5625 366.625 C 605.5625 353.398438 602.363281 340.121094 601.851562 337.667969 C 600.019531 328.902344 598.183594 320.140625 596.351562 311.382812 C 596.164062 310.464844 595.808594 309.308594 595.375 308.003906 L 595.375 308 C 593.777344 303.136719 591.175781 296.277344 592.554688 292.992188 C 594.609375 288.097656 606.328125 284.335938 610.84375 282.324219 C 617.671875 279.28125 624.71875 276.757812 631.914062 274.761719 C 637.519531 273.210938 643.214844 271.972656 648.964844 271.058594 C 657.019531 269.777344 665.179688 269.132812 673.339844 269.132812 C 689.25 269.132812 705.152344 271.589844 720.269531 276.585938 C 721.753906 277.078125 723.296875 277.628906 724.402344 278.707031 C 724.488281 278.796875 724.574219 278.878906 724.652344 278.972656 C 726.53125 281.085938 726.292969 284.277344 725.929688 287.082031 " fill-opacity="1" fill-rule="nonzero"/><path fill="#308037" d="M 653.976562 361.757812 C 653.894531 357.945312 653.832031 355.078125 653.808594 354.234375 C 653.257812 333.699219 652.445312 313.171875 651.367188 292.652344 C 651.414062 292.59375 651.464844 292.535156 651.515625 292.472656 C 652.867188 290.84375 654.289062 289.152344 656.226562 288.285156 C 656.285156 288.261719 656.34375 288.234375 656.40625 288.207031 C 660.890625 293.699219 665.378906 299.195312 669.863281 304.691406 C 670.035156 304.46875 670.207031 304.25 670.378906 304.035156 C 670.421875 304.691406 670.460938 305.339844 670.496094 305.992188 C 672.042969 304.882812 673.542969 303.714844 675.003906 302.496094 C 675.945312 321.480469 676.890625 340.460938 677.839844 359.4375 C 673.699219 360.339844 669.480469 360.914062 665.316406 361.246094 C 661.542969 361.542969 657.761719 361.683594 653.976562 361.757812 " fill-opacity="1" fill-rule="nonzero"/><g clip-path="url(#ccfa9a1a8e)"><path fill="#48b145" d="M 830.746094 473.097656 C 827.546875 477.59375 824.003906 481.808594 820.167969 485.667969 C 815.828125 490.046875 811.113281 493.980469 806.109375 497.402344 C 804.835938 498.269531 803.550781 499.109375 802.242188 499.910156 C 803.667969 498.210938 804.566406 495.984375 804.75 493.683594 C 799.546875 494.332031 794.378906 495.335938 789.285156 496.683594 C 788.0625 497.007812 786.789062 497.386719 785.882812 498.351562 C 784.445312 499.886719 784.40625 502.351562 783.964844 504.503906 L 783.925781 504.683594 C 782.652344 510.46875 778.03125 514.609375 773.425781 517.769531 C 769.976562 520.144531 766.371094 522.234375 762.648438 524.03125 C 753.457031 528.46875 743.546875 531.109375 733.53125 531.746094 C 734.023438 529.136719 734.523438 526.523438 735.019531 523.917969 C 734.660156 523.8125 734.296875 523.71875 733.929688 523.640625 C 729.082031 522.550781 723.855469 523.578125 719.667969 526.476562 C 720.332031 528.28125 719.765625 530.050781 718.652344 531.601562 C 717.648438 533.007812 716.191406 534.230469 714.804688 535.113281 C 707.867188 539.550781 700.289062 542.734375 692.453125 544.601562 C 682.605469 546.949219 672.347656 547.214844 662.425781 545.261719 C 661.863281 545.15625 661.289062 545.035156 660.726562 544.910156 C 661.535156 544.851562 662.179688 544.449219 662.644531 543.84375 L 662.648438 543.835938 C 663.65625 542.550781 663.871094 540.34375 663.238281 538.554688 L 663.238281 538.542969 C 662.976562 537.804688 662.574219 537.152344 662.027344 536.648438 C 659.839844 534.648438 656.785156 534.613281 653.902344 535.007812 C 653.476562 535.070312 653.050781 535.136719 652.636719 535.210938 C 648.699219 535.898438 644.710938 536.84375 641.273438 539.070312 C 638.929688 540.589844 636.863281 542.691406 634.417969 543.949219 C 634.070312 544.132812 633.714844 544.292969 633.351562 544.433594 C 629.757812 545.832031 625.800781 544.992188 622.066406 544.132812 C 617.808594 543.160156 613.558594 542.1875 609.300781 541.210938 C 608.613281 541.058594 607.90625 540.875 607.207031 540.652344 C 604.855469 539.910156 602.613281 538.691406 601.808594 536.261719 C 601.199219 534.433594 601.585938 532.285156 600.734375 530.578125 C 599.992188 529.089844 598.472656 528.296875 597.027344 527.695312 C 595.386719 527.011719 593.71875 526.445312 592.027344 525.96875 C 579.179688 522.316406 565.019531 523.691406 553.042969 517.328125 C 552.671875 517.128906 552.300781 516.921875 551.9375 516.699219 C 550.683594 515.921875 549.523438 514.953125 548.835938 513.589844 C 548.109375 512.160156 547.976562 510.460938 547.445312 508.933594 C 545.996094 504.757812 542.460938 503.085938 538.398438 501.925781 C 533.152344 500.425781 527.023438 499.777344 523.332031 495.675781 C 519.226562 491.109375 519.550781 483.34375 522.453125 477.765625 C 525.347656 472.1875 530.234375 468.261719 534.921875 464.429688 C 546.105469 455.285156 556.984375 445.6875 567.527344 435.664062 C 577.109375 426.546875 606.320312 409.644531 615.328125 399.847656 C 621.902344 392.695312 609.746094 386.511719 618.894531 383.9375 C 629.976562 380.816406 643.964844 381.921875 655.40625 381.324219 C 669.042969 380.613281 682.695312 380.328125 696.339844 380.472656 C 701.53125 380.527344 706.78125 380.652344 711.804688 382.113281 C 719.027344 384.210938 725.351562 388.949219 731.5625 393.523438 C 762.121094 416.019531 793.851562 436.589844 826.542969 455.113281 C 829.777344 456.949219 833.386719 459.253906 834.125 463.179688 C 834.800781 466.753906 832.792969 470.222656 830.746094 473.097656 " fill-opacity="1" fill-rule="nonzero"/></g><path fill="#fbe4a1" d="M 566.269531 436.855469 C 565.359375 436.378906 564.46875 435.863281 563.597656 435.3125 C 564.691406 434.957031 565.78125 434.589844 566.863281 434.210938 C 567.433594 434.386719 568.003906 434.546875 568.582031 434.699219 C 568.210938 435.027344 567.859375 435.351562 567.527344 435.664062 C 567.113281 436.0625 566.6875 436.460938 566.269531 436.855469 M 755.980469 410.0625 C 753.0625 407.75 750.265625 405.292969 747.675781 402.613281 C 743.984375 398.792969 740.707031 394.511719 737.015625 390.714844 C 743.679688 395.339844 748.367188 402.257812 754.011719 408.101562 C 754.65625 408.773438 755.3125 409.421875 755.980469 410.0625 " fill-opacity="1" fill-rule="nonzero"/><path fill="#449e39" d="M 633.65625 457.628906 C 635.082031 452.203125 636.570312 446.792969 638.179688 441.425781 C 643.21875 435.707031 647.449219 429.429688 650.144531 422.273438 C 652.910156 414.941406 653.929688 406.980469 656.179688 399.507812 C 656.59375 399.449219 657.007812 399.386719 657.421875 399.328125 C 657.46875 401.105469 657.46875 402.882812 657.4375 404.652344 C 656.347656 410.011719 655.460938 415.351562 656.253906 420.675781 C 655.785156 424.539062 655.199219 428.394531 654.539062 432.25 C 649.734375 442.078125 642.046875 450.21875 633.65625 457.628906 M 687.589844 455.734375 C 687.300781 455.539062 687.011719 455.34375 686.71875 455.148438 C 688.351562 451.707031 687.476562 447.296875 681.960938 445.800781 C 683.28125 438.464844 685.28125 431.238281 686.683594 423.921875 C 688.503906 427.453125 690.269531 431.007812 691.933594 434.609375 C 690.378906 441.628906 688.550781 448.609375 687.589844 455.734375 M 726.613281 446.445312 C 718.824219 444.46875 711.578125 440.195312 706.050781 434.351562 C 711.394531 438.140625 717.605469 440.726562 724.050781 441.722656 C 724.910156 443.292969 725.765625 444.867188 726.613281 446.445312 M 586.792969 441.667969 C 579.625 441.667969 572.558594 440.167969 566.269531 436.855469 C 566.6875 436.460938 567.113281 436.0625 567.527344 435.664062 C 567.859375 435.351562 568.210938 435.027344 568.582031 434.699219 C 572.429688 435.703125 576.429688 436.175781 580.457031 436.175781 C 588.46875 436.175781 596.597656 434.304688 603.886719 430.988281 C 613.5625 426.589844 621.96875 419.976562 629.46875 412.375 C 627.78125 415.367188 626.390625 418.570312 625.246094 421.847656 C 620.472656 426.628906 615.691406 431.414062 610.890625 436.171875 C 610.667969 436.277344 610.445312 436.378906 610.222656 436.476562 C 602.929688 439.792969 594.804688 441.667969 586.792969 441.667969 M 728.449219 430.820312 C 726.105469 428.222656 723.742188 425.644531 721.367188 423.078125 C 719.589844 417.445312 718.34375 411.617188 716.144531 406.164062 C 718.113281 408.460938 720.335938 410.542969 722.753906 412.359375 C 724.921875 417.957031 726.160156 423.917969 728.046875 429.636719 C 728.175781 430.03125 728.308594 430.425781 728.449219 430.820312 M 621.355469 430.140625 C 622.132812 429.023438 622.917969 427.914062 623.710938 426.804688 C 623.585938 427.253906 623.46875 427.699219 623.351562 428.144531 C 623.292969 428.382812 623.234375 428.617188 623.171875 428.855469 C 622.570312 429.292969 621.96875 429.722656 621.355469 430.140625 M 761.914062 426.855469 C 760.683594 426.855469 759.457031 426.835938 758.234375 426.792969 C 755.394531 424.84375 752.488281 422.992188 749.554688 421.1875 C 751.550781 421.3125 753.5625 421.367188 755.582031 421.367188 C 758.222656 421.367188 760.871094 421.273438 763.511719 421.140625 L 763.511719 421.238281 C 763.511719 421.242188 763.511719 421.25 763.511719 421.253906 C 763.511719 421.941406 763.667969 422.625 763.902344 423.269531 C 764.417969 424.675781 765.390625 425.882812 766.59375 426.769531 C 765.035156 426.824219 763.472656 426.855469 761.914062 426.855469 M 693.511719 426.648438 C 691.59375 424.195312 689.578125 421.828125 687.433594 419.574219 C 687.625 418.277344 687.796875 416.980469 687.933594 415.671875 C 688.652344 408.742188 688.257812 401.390625 686.074219 394.835938 C 686.402344 394.777344 686.734375 394.722656 687.0625 394.667969 C 688.296875 401.679688 688.933594 408.847656 691.371094 415.527344 C 692.140625 417.632812 693.097656 419.648438 694.222656 421.566406 C 694.035156 423.269531 693.796875 424.960938 693.511719 426.648438 M 776.496094 426.214844 C 776.617188 426.089844 776.738281 425.964844 776.851562 425.832031 C 777.011719 425.9375 777.175781 426.046875 777.335938 426.15625 C 777.054688 426.175781 776.777344 426.195312 776.496094 426.214844 M 742.816406 424.5625 C 740.417969 423.878906 738.066406 423.007812 735.785156 421.917969 C 731.277344 419.757812 727.207031 416.734375 723.777344 413.101562 C 725.574219 414.359375 727.46875 415.476562 729.449219 416.425781 C 731.613281 417.460938 733.835938 418.296875 736.109375 418.960938 C 738.332031 420.839844 740.574219 422.703125 742.816406 424.5625 M 709.144531 394.710938 C 708.835938 394.359375 708.523438 394.015625 708.203125 393.675781 C 708.453125 393.847656 708.695312 394.023438 708.941406 394.203125 C 709.003906 394.375 709.074219 394.539062 709.144531 394.710938 " fill-opacity="1" fill-rule="nonzero"/><path fill="#449e39" d="M 607.996094 316.671875 C 607.488281 316.042969 606.945312 315.425781 606.375 314.8125 C 608.691406 307.4375 611.007812 300.0625 613.324219 292.683594 C 614.230469 293.148438 615.136719 293.617188 616.042969 294.085938 C 616.042969 297.71875 609.148438 315.117188 607.996094 316.671875 M 703.933594 307.308594 C 703.722656 307.308594 703.515625 307.273438 703.308594 307.191406 C 702.644531 306.925781 702.257812 306.25 701.929688 305.617188 C 701.898438 305.554688 701.867188 305.5 701.839844 305.441406 C 701.882812 305.453125 701.929688 305.46875 701.980469 305.480469 C 702.089844 305.503906 702.203125 305.515625 702.3125 305.515625 C 703.066406 305.515625 703.773438 304.976562 704.371094 304.46875 C 710.332031 299.402344 716.292969 294.335938 722.257812 289.265625 C 722.410156 290.449219 722.625 291.625 722.910156 292.785156 C 718 298.25 712.226562 302.941406 705.867188 306.625 C 705.273438 306.96875 704.597656 307.308594 703.933594 307.308594 M 675.003906 302.496094 C 674.9375 301.207031 674.871094 299.910156 674.808594 298.617188 C 679.429688 293.15625 684.363281 287.949219 689.5625 283.03125 C 689.859375 284.300781 690.207031 285.566406 690.605469 286.808594 C 685.691406 292.335938 680.65625 297.785156 675.003906 302.496094 " fill-opacity="1" fill-rule="nonzero"/><path fill="#2f7232" d="M 670.496094 305.992188 C 670.460938 305.339844 670.421875 304.691406 670.378906 304.035156 C 671.820312 302.203125 673.296875 300.394531 674.808594 298.617188 C 674.871094 299.910156 674.9375 301.207031 675.003906 302.496094 C 673.542969 303.714844 672.042969 304.882812 670.496094 305.992188 " fill-opacity="1" fill-rule="nonzero"/><path fill="#449e39" d="M 640.195312 305.339844 C 640.191406 305.339844 640.191406 305.339844 640.1875 305.339844 C 639.695312 305.339844 639.269531 304.988281 638.933594 304.625 C 638.890625 304.578125 638.851562 304.527344 638.808594 304.484375 C 639.125 304.175781 639.359375 303.753906 639.570312 303.359375 C 642.820312 297.308594 646.660156 291.574219 651.019531 286.273438 C 651.136719 288.402344 651.253906 290.527344 651.367188 292.652344 C 648.128906 296.558594 644.894531 300.460938 641.660156 304.363281 C 641.273438 304.832031 640.800781 305.339844 640.195312 305.339844 " fill-opacity="1" fill-rule="nonzero"/><path fill="#2f7232" d="M 651.367188 292.652344 C 651.253906 290.527344 651.136719 288.402344 651.019531 286.273438 L 651.074219 286.207031 C 651.519531 285.675781 652.03125 285.105469 652.71875 285.027344 C 652.773438 285.023438 652.824219 285.019531 652.878906 285.019531 C 653.710938 285.019531 654.394531 285.742188 654.9375 286.40625 C 655.425781 287.007812 655.917969 287.609375 656.40625 288.207031 C 656.34375 288.234375 656.285156 288.261719 656.226562 288.285156 C 654.289062 289.152344 652.867188 290.84375 651.515625 292.472656 C 651.464844 292.535156 651.414062 292.59375 651.367188 292.652344 " fill-opacity="1" fill-rule="nonzero"/><path fill="#512a15" d="M 713.089844 365.847656 C 710.355469 373.734375 711.253906 382.019531 710.867188 390.359375 C 677.238281 396.804688 643.328125 401.777344 609.269531 405.261719 C 616.804688 400.902344 607.867188 378.160156 610.46875 374.71875 C 613.875 370.210938 622.683594 370.820312 630.234375 371.429688 C 633.59375 371.703125 636.707031 371.972656 638.980469 371.792969 C 664.511719 369.773438 687.554688 367.789062 713.089844 365.847656 " fill-opacity="1" fill-rule="nonzero"/><path fill="#dd2528" d="M 557.265625 429.820312 C 570.945312 438.507812 589.136719 437.695312 603.886719 430.988281 C 618.636719 424.28125 630.441406 412.425781 640.570312 399.773438 C 631.269531 406.203125 626.164062 417.195312 623.351562 428.144531 C 620.539062 439.097656 619.589844 450.484375 616.359375 461.320312 C 629.890625 450.335938 643.992188 438.578125 650.144531 422.273438 C 654.042969 411.941406 654.472656 400.359375 659.753906 390.664062 C 659.125 401.105469 654.46875 411.421875 656.429688 421.703125 C 658.859375 434.433594 670.507812 442.992188 681.253906 450.242188 C 682.824219 438.605469 686.71875 427.351562 687.933594 415.671875 C 689.148438 403.992188 687.1875 391.125 678.851562 382.851562 C 683.246094 382.59375 685.707031 387.796875 686.582031 392.109375 C 688.167969 399.929688 688.636719 408.03125 691.371094 415.527344 C 697.535156 432.40625 715.976562 443.882812 733.839844 441.964844 C 727.597656 438.105469 724.011719 431.113281 721.710938 424.148438 C 719.414062 417.179688 718.078125 409.851562 714.851562 403.261719 C 710.261719 393.894531 701.828125 386.484375 691.945312 383.144531 C 698.359375 383.128906 698.15625 384.175781 704.433594 385.488281 C 703.285156 384.648438 707.359375 389.253906 707.742188 390.625 C 710.886719 401.777344 719.003906 411.421875 729.449219 416.425781 C 742.15625 422.507812 756.945312 421.652344 771.003906 420.664062 C 762.796875 415.210938 754.519531 409.699219 747.675781 402.613281 C 741.929688 396.664062 737.179688 389.601562 730.328125 384.980469 C 726.144531 382.164062 721.320312 380.371094 716.363281 379.449219 C 708.933594 378.070312 701.300781 378.621094 693.769531 379.175781 C 674.523438 380.585938 655.277344 381.996094 636.035156 383.410156 C 619.617188 384.613281 613.539062 397.320312 601.25 406.71875 C 588.03125 416.832031 573.101562 424.703125 557.265625 429.820312 " fill-opacity="1" fill-rule="nonzero"/><path fill="#dd2528" d="M 725.929688 287.082031 C 725.472656 290.59375 724.996094 294.097656 724.488281 297.601562 C 723.382812 294.9375 722.621094 292.128906 722.257812 289.265625 C 716.292969 294.335938 710.332031 299.402344 704.371094 304.46875 C 703.6875 305.054688 702.855469 305.675781 701.980469 305.480469 C 701.394531 305.347656 700.953125 304.882812 700.558594 304.433594 C 695.210938 298.347656 691.398438 290.917969 689.5625 283.03125 C 684.363281 287.949219 679.429688 293.15625 674.808594 298.617188 C 673.117188 300.605469 671.46875 302.632812 669.863281 304.691406 C 664.886719 298.59375 659.910156 292.5 654.9375 286.40625 C 654.359375 285.703125 653.621094 284.929688 652.71875 285.027344 C 652.03125 285.105469 651.519531 285.675781 651.074219 286.207031 L 651.019531 286.273438 C 646.660156 291.574219 642.820312 297.308594 639.570312 303.359375 C 639.230469 303.988281 638.835938 304.679688 638.152344 304.890625 C 637.476562 305.105469 636.761719 304.769531 636.136719 304.445312 C 628.53125 300.527344 620.929688 296.605469 613.324219 292.683594 C 610.875 300.488281 608.425781 308.285156 605.976562 316.089844 C 602.632812 313.535156 598.960938 310.851562 595.375 308.003906 L 595.375 308 C 593.777344 303.136719 591.175781 296.277344 592.554688 292.992188 C 594.609375 288.097656 606.328125 284.335938 610.84375 282.324219 C 617.671875 279.28125 624.71875 276.757812 631.914062 274.761719 C 637.519531 273.210938 643.214844 271.972656 648.964844 271.058594 C 657.019531 269.777344 665.179688 269.132812 673.339844 269.132812 C 689.25 269.132812 705.152344 271.589844 720.269531 276.585938 C 721.871094 277.113281 723.535156 277.71875 724.652344 278.972656 C 726.53125 281.085938 726.292969 284.277344 725.929688 287.082031 " fill-opacity="1" fill-rule="nonzero"/><path fill="#449e39" d="M 610.398438 374.824219 C 609.816406 372.15625 609.195312 369.394531 608.5625 366.625 C 611.816406 364.976562 615.5 364.109375 619.125 363.503906 C 630.613281 361.605469 642.3125 361.984375 653.976562 361.757812 C 654.027344 364.367188 654.089844 367.425781 654.15625 370.578125 C 649.171875 370.980469 644.128906 371.386719 638.980469 371.792969 C 638.46875 371.832031 637.917969 371.851562 637.328125 371.851562 C 635.296875 371.851562 632.839844 371.640625 630.234375 371.429688 C 627.628906 371.21875 624.875 371.007812 622.242188 371.007812 C 617.25 371.007812 612.699219 371.769531 610.46875 374.71875 C 610.445312 374.75 610.421875 374.785156 610.398438 374.824219 M 678.296875 368.605469 C 678.140625 365.550781 677.988281 362.496094 677.839844 359.4375 C 688.988281 357.019531 699.550781 352.269531 706.824219 343.6875 C 714.617188 334.488281 717.542969 322.238281 720.1875 310.476562 C 721.367188 305.234375 722.542969 299.980469 723.4375 294.683594 C 723.738281 295.671875 724.09375 296.644531 724.488281 297.601562 C 721.210938 320.554688 716.960938 343.359375 711.746094 365.953125 C 700.257812 366.828125 689.261719 367.710938 678.296875 368.605469 " fill-opacity="1" fill-rule="nonzero"/><path fill="#2f7232" d="M 654.15625 370.578125 C 654.089844 367.425781 654.027344 364.367188 653.976562 361.757812 C 657.761719 361.683594 661.542969 361.542969 665.316406 361.246094 C 669.480469 360.914062 673.699219 360.339844 677.839844 359.4375 C 677.988281 362.496094 678.140625 365.550781 678.296875 368.605469 C 670.292969 369.257812 662.304688 369.914062 654.15625 370.578125 " fill-opacity="1" fill-rule="nonzero"/><path fill="#4f2614" d="M 611.582031 380.3125 C 611.210938 378.558594 610.8125 376.71875 610.398438 374.824219 C 610.421875 374.785156 610.445312 374.75 610.46875 374.71875 C 612.699219 371.769531 617.25 371.007812 622.242188 371.007812 C 624.875 371.007812 627.628906 371.21875 630.234375 371.429688 C 632.839844 371.640625 635.296875 371.851562 637.328125 371.851562 C 637.917969 371.851562 638.46875 371.832031 638.980469 371.792969 C 644.128906 371.386719 649.171875 370.980469 654.15625 370.578125 C 662.304688 369.914062 670.292969 369.257812 678.296875 368.605469 C 689.261719 367.710938 700.257812 366.828125 711.746094 365.953125 C 711.367188 367.582031 710.984375 369.210938 710.597656 370.839844 C 708.898438 371.214844 707.15625 371.488281 705.457031 371.738281 C 674.347656 376.273438 643 379.140625 611.582031 380.3125 " fill-opacity="1" fill-rule="nonzero"/><path fill="#449e39" d="M 724.652344 278.972656 C 724.574219 278.882812 724.488281 278.792969 724.402344 278.710938 C 724.402344 278.707031 724.402344 278.707031 724.402344 278.707031 C 724.488281 278.796875 724.574219 278.878906 724.652344 278.972656 " fill-opacity="1" fill-rule="nonzero"/><path fill="#da2425" d="M 724.488281 297.601562 C 724.09375 296.644531 723.738281 295.671875 723.4375 294.683594 C 723.835938 292.296875 724.183594 289.898438 724.441406 287.484375 C 724.59375 286.078125 724.257812 282.277344 724.402344 278.710938 C 724.488281 278.792969 724.574219 278.882812 724.652344 278.972656 C 725.839844 280.304688 726.179688 282.070312 726.179688 283.890625 C 726.179688 284.957031 726.066406 286.046875 725.929688 287.082031 C 725.472656 290.59375 724.996094 294.097656 724.488281 297.601562 " fill-opacity="1" fill-rule="nonzero"/><path fill="#449e39" d="M 551.9375 516.699219 C 550.683594 515.921875 549.523438 514.953125 548.835938 513.589844 C 548.109375 512.160156 547.976562 510.460938 547.445312 508.933594 C 545.996094 504.757812 542.460938 503.085938 538.398438 501.925781 C 538.777344 501.640625 539.160156 501.34375 539.539062 501.039062 C 564.714844 481.023438 588.03125 458.828125 610.890625 436.171875 C 614.550781 434.457031 618.035156 432.421875 621.355469 430.140625 C 612.042969 443.476562 603.476562 457.390625 594.183594 470.753906 C 582.257812 487.890625 568.695312 504.492188 551.9375 516.699219 " fill-opacity="1" fill-rule="nonzero"/><path fill="#438c35" d="M 610.890625 436.171875 C 615.691406 431.414062 620.472656 426.628906 625.246094 421.847656 C 624.675781 423.484375 624.164062 425.144531 623.710938 426.804688 C 622.917969 427.914062 622.132812 429.023438 621.355469 430.140625 C 618.035156 432.421875 614.550781 434.457031 610.890625 436.171875 " fill-opacity="1" fill-rule="nonzero"/><path fill="#da2425" d="M 623.710938 426.804688 C 624.164062 425.144531 624.675781 423.484375 625.246094 421.847656 C 627.203125 419.886719 629.160156 417.921875 631.117188 415.960938 C 632.453125 414.621094 633.792969 413.277344 635.085938 411.894531 C 631.109375 416.722656 627.34375 421.714844 623.710938 426.804688 " fill-opacity="1" fill-rule="nonzero"/><path fill="#da2425" d="M 635.085938 411.894531 C 636.582031 410.085938 638.101562 408.296875 639.660156 406.539062 C 638.253906 408.421875 636.703125 410.1875 635.085938 411.894531 " fill-opacity="1" fill-rule="nonzero"/><path fill="#449e39" d="M 607.207031 540.652344 C 604.855469 539.910156 602.613281 538.691406 601.808594 536.261719 C 601.199219 534.433594 601.585938 532.285156 600.734375 530.578125 C 599.992188 529.089844 598.472656 528.296875 597.027344 527.695312 C 595.386719 527.011719 593.71875 526.445312 592.027344 525.96875 C 597.039062 516.820312 601.335938 507.300781 605.589844 497.785156 C 609.652344 488.695312 613.683594 479.59375 617.699219 470.484375 C 618.035156 470.417969 618.363281 470.324219 618.6875 470.207031 C 620.464844 469.558594 621.703125 468.480469 622.480469 467.214844 C 622.566406 467.078125 622.644531 466.933594 622.71875 466.789062 C 626.382812 463.820312 630.082031 460.789062 633.65625 457.628906 C 626.226562 485.902344 620.375 514.730469 607.207031 540.652344 M 623.507812 463.886719 C 623.523438 463.722656 623.527344 463.558594 623.527344 463.394531 C 623.523438 463.207031 623.519531 463.019531 623.507812 462.832031 C 623.425781 461.65625 623.089844 460.5 622.542969 459.488281 C 623.296875 457.769531 624.050781 456.050781 624.808594 454.328125 C 625.125 454.054688 625.441406 453.78125 625.757812 453.507812 C 625.113281 456.992188 624.402344 460.464844 623.507812 463.886719 " fill-opacity="1" fill-rule="nonzero"/><path fill="#438c35" d="M 622.71875 466.789062 C 623.082031 466.09375 623.320312 465.347656 623.433594 464.589844 C 623.472656 464.359375 623.496094 464.121094 623.507812 463.886719 C 624.402344 460.464844 625.113281 456.992188 625.757812 453.507812 C 630.148438 449.707031 634.394531 445.726562 638.179688 441.425781 C 636.570312 446.792969 635.082031 452.203125 633.65625 457.628906 C 630.082031 460.789062 626.382812 463.820312 622.71875 466.789062 " fill-opacity="1" fill-rule="nonzero"/><path fill="#da2425" d="M 624.808594 454.328125 C 626.832031 449.714844 628.859375 445.101562 630.878906 440.488281 C 635.710938 429.472656 640.5625 418.402344 643.539062 406.75 C 643.175781 408.730469 644.40625 410.875 646.296875 411.566406 C 646.894531 411.789062 647.605469 411.917969 647.945312 412.457031 C 648.324219 413.058594 648.050781 413.84375 647.769531 414.5 C 644.011719 423.261719 640.917969 432.28125 638.179688 441.425781 C 634.394531 445.726562 630.148438 449.707031 625.757812 453.507812 C 625.441406 453.78125 625.125 454.054688 624.808594 454.328125 " fill-opacity="1" fill-rule="nonzero"/><path fill="#449e39" d="M 634.417969 543.949219 C 634.847656 542.703125 635.234375 541.53125 635.585938 540.511719 C 637.992188 533.667969 639.613281 526.566406 640.8125 519.414062 C 643.078125 505.910156 643.859375 492.203125 645.824219 478.65625 C 648.078125 463.136719 651.894531 447.71875 654.539062 432.25 C 655.253906 430.792969 655.902344 429.296875 656.480469 427.765625 C 656.796875 426.925781 657.089844 426.078125 657.363281 425.226562 C 658.851562 429.574219 661.429688 433.40625 664.609375 436.863281 C 663.707031 449.691406 662.632812 462.511719 661.5625 475.328125 C 660.289062 490.554688 659.011719 505.796875 656.683594 520.898438 C 655.953125 525.636719 655.113281 530.382812 653.902344 535.007812 C 653.476562 535.070312 653.050781 535.136719 652.636719 535.210938 C 648.699219 535.898438 644.710938 536.84375 641.273438 539.070312 C 638.929688 540.589844 636.863281 542.691406 634.417969 543.949219 " fill-opacity="1" fill-rule="nonzero"/><path fill="#438c35" d="M 654.539062 432.25 C 655.199219 428.394531 655.785156 424.539062 656.253906 420.675781 C 656.304688 421.019531 656.363281 421.359375 656.429688 421.703125 C 656.660156 422.914062 656.976562 424.085938 657.363281 425.226562 C 657.089844 426.078125 656.796875 426.925781 656.480469 427.765625 C 655.902344 429.296875 655.253906 430.792969 654.539062 432.25 M 657.4375 404.652344 C 657.46875 402.882812 657.46875 401.105469 657.421875 399.328125 C 657.804688 399.273438 658.183594 399.21875 658.558594 399.164062 C 658.203125 400.996094 657.808594 402.828125 657.4375 404.652344 " fill-opacity="1" fill-rule="nonzero"/><path fill="#4f2614" d="M 657.421875 399.328125 C 657.398438 398.261719 657.355469 397.195312 657.300781 396.128906 C 657.53125 395.5 657.78125 394.875 658.039062 394.253906 C 658.464844 394.351562 658.914062 394.410156 659.371094 394.441406 C 659.148438 396.015625 658.871094 397.59375 658.558594 399.164062 C 658.183594 399.21875 657.804688 399.273438 657.421875 399.328125 " fill-opacity="1" fill-rule="nonzero"/><path fill="#da2425" d="M 664.609375 436.863281 C 661.429688 433.40625 658.851562 429.574219 657.363281 425.226562 C 656.976562 424.085938 656.660156 422.914062 656.429688 421.703125 C 656.363281 421.359375 656.304688 421.019531 656.253906 420.675781 C 656.90625 415.347656 657.335938 410.011719 657.4375 404.652344 C 657.808594 402.828125 658.203125 400.996094 658.558594 399.164062 C 658.871094 397.59375 659.148438 396.015625 659.371094 394.441406 C 662.09375 394.636719 665.148438 393.992188 666.277344 396.28125 C 666.664062 397.054688 666.644531 397.957031 666.613281 398.816406 C 666.226562 411.511719 665.5 424.191406 664.609375 436.863281 M 657.300781 396.128906 C 657.265625 395.414062 657.21875 394.699219 657.167969 393.980469 C 657.445312 394.097656 657.738281 394.1875 658.039062 394.253906 C 657.78125 394.875 657.53125 395.5 657.300781 396.128906 " fill-opacity="1" fill-rule="nonzero"/><path fill="#fbe4a1" d="M 662.648438 543.835938 C 662.914062 542.003906 663.082031 540.179688 663.238281 538.554688 C 663.871094 540.34375 663.65625 542.550781 662.648438 543.835938 " fill-opacity="1" fill-rule="nonzero"/><g clip-path="url(#543cddd23d)"><path fill="#449e39" d="M 675.839844 546.5625 C 671.34375 546.5625 666.851562 546.136719 662.425781 545.261719 C 662.507812 544.792969 662.582031 544.320312 662.644531 543.84375 L 662.648438 543.835938 C 663.65625 542.550781 663.871094 540.34375 663.238281 538.554688 L 663.238281 538.542969 C 663.378906 537.0625 663.503906 535.746094 663.671875 534.746094 C 665.417969 524.203125 666.742188 513.59375 667.746094 502.957031 C 669.652344 482.878906 670.410156 462.722656 670.722656 442.566406 C 671.34375 443.078125 671.976562 443.582031 672.613281 444.078125 C 673.402344 444.855469 674.21875 445.613281 675.058594 446.355469 C 674.960938 446.425781 674.867188 446.5 674.777344 446.578125 L 674.644531 446.691406 C 674.132812 447.15625 673.734375 447.734375 673.417969 448.351562 C 672.867188 449.414062 672.601562 450.609375 672.605469 451.804688 C 672.609375 454.609375 674.050781 457.441406 676.554688 458.734375 C 677.375 459.160156 678.1875 459.421875 678.96875 459.542969 C 682.191406 479.667969 685.742188 499.738281 689.625 519.746094 C 691.089844 527.292969 692.609375 534.890625 692.53125 542.578125 C 692.53125 543.246094 692.503906 543.917969 692.453125 544.601562 C 686.996094 545.902344 681.417969 546.5625 675.839844 546.5625 " fill-opacity="1" fill-rule="nonzero"/></g><path fill="#438c35" d="M 675.058594 446.355469 C 674.21875 445.613281 673.402344 444.855469 672.613281 444.078125 C 673.523438 444.785156 674.445312 445.472656 675.371094 446.148438 C 675.265625 446.214844 675.160156 446.28125 675.058594 446.355469 " fill-opacity="1" fill-rule="nonzero"/><path fill="#da2425" d="M 675.371094 446.148438 C 674.445312 445.472656 673.523438 444.785156 672.613281 444.078125 C 671.976562 443.582031 671.34375 443.078125 670.722656 442.566406 C 670.734375 441.449219 670.753906 440.332031 670.765625 439.214844 C 670.914062 427.804688 672.390625 415.234375 670.925781 403.921875 C 672.722656 417.828125 674.675781 431.710938 676.785156 445.570312 C 676.285156 445.699219 675.808594 445.886719 675.371094 446.148438 " fill-opacity="1" fill-rule="nonzero"/><path fill="#449e39" d="M 718.652344 531.601562 C 717.84375 528.046875 717.546875 524.195312 716.847656 521.039062 C 715.410156 514.546875 713.753906 508.105469 712.101562 501.664062 C 709.628906 492.066406 707.15625 482.460938 704.6875 472.863281 C 702.476562 464.257812 700.257812 455.640625 697.21875 447.304688 C 695.644531 442.992188 693.859375 438.769531 691.933594 434.609375 C 692.519531 431.964844 693.066406 429.316406 693.511719 426.648438 C 704.144531 440.25 711.75 456.503906 721.300781 471.078125 C 724.976562 476.691406 729.03125 482.207031 731.023438 488.609375 C 732.539062 493.46875 732.792969 498.613281 733.035156 503.695312 C 733.285156 508.832031 733.527344 513.964844 733.773438 519.09375 C 733.84375 520.582031 733.914062 522.105469 733.929688 523.640625 C 732.660156 523.355469 731.367188 523.214844 730.074219 523.214844 C 726.417969 523.214844 722.761719 524.332031 719.667969 526.476562 C 719.863281 527 719.949219 527.527344 719.953125 528.046875 C 719.953125 529.296875 719.4375 530.507812 718.652344 531.601562 " fill-opacity="1" fill-rule="nonzero"/><path fill="#438c35" d="M 691.933594 434.609375 C 690.269531 431.007812 688.503906 427.453125 686.683594 423.921875 C 686.957031 422.476562 687.210938 421.027344 687.433594 419.574219 C 689.578125 421.828125 691.59375 424.195312 693.511719 426.648438 C 693.066406 429.316406 692.519531 431.964844 691.933594 434.609375 " fill-opacity="1" fill-rule="nonzero"/><path fill="#da2425" d="M 686.683594 423.921875 C 684.929688 420.523438 683.121094 417.144531 681.3125 413.777344 C 683.46875 415.605469 685.503906 417.542969 687.433594 419.574219 C 687.210938 421.027344 686.957031 422.476562 686.683594 423.921875 " fill-opacity="1" fill-rule="nonzero"/><path fill="#449e39" d="M 762.648438 524.03125 C 759.910156 514.621094 755.917969 505.617188 751.804688 496.738281 C 743.917969 479.726562 735.515625 462.949219 726.613281 446.445312 C 729.761719 447.242188 733 447.667969 736.25 447.667969 C 737.558594 447.667969 738.867188 447.597656 740.171875 447.453125 C 739.355469 446.953125 738.582031 446.390625 737.851562 445.78125 C 738.65625 445.25 739.359375 444.582031 739.902344 443.820312 C 756.265625 462.886719 771.417969 482.945312 783.925781 504.683594 C 782.652344 510.46875 778.03125 514.609375 773.425781 517.769531 C 769.976562 520.144531 766.371094 522.234375 762.648438 524.03125 M 729.4375 433.421875 C 729.085938 432.5625 728.757812 431.691406 728.449219 430.820312 C 729.0625 431.503906 729.679688 432.1875 730.292969 432.867188 C 729.992188 433.03125 729.707031 433.21875 729.4375 433.421875 " fill-opacity="1" fill-rule="nonzero"/><path fill="#438c35" d="M 736.25 447.667969 C 733 447.667969 729.761719 447.242188 726.613281 446.445312 C 725.765625 444.867188 724.910156 443.292969 724.050781 441.722656 C 724.929688 441.855469 725.820312 441.964844 726.710938 442.039062 C 726.945312 442.820312 727.3125 443.558594 727.820312 444.214844 C 728.972656 445.710938 730.371094 446.566406 731.8125 446.929688 C 732.367188 447.066406 732.929688 447.136719 733.484375 447.136719 C 733.863281 447.136719 734.234375 447.105469 734.605469 447.046875 C 735.1875 446.960938 735.757812 446.804688 736.300781 446.589844 C 736.847656 446.375 737.367188 446.101562 737.851562 445.78125 C 738.582031 446.390625 739.355469 446.953125 740.171875 447.453125 C 738.867188 447.597656 737.558594 447.667969 736.25 447.667969 M 727.386719 435.832031 C 724.863281 432.355469 723.0625 428.246094 721.710938 424.148438 C 721.59375 423.792969 721.480469 423.433594 721.367188 423.078125 C 723.742188 425.644531 726.105469 428.222656 728.449219 430.820312 C 728.757812 431.691406 729.085938 432.5625 729.4375 433.421875 C 729.414062 433.441406 729.386719 433.457031 729.367188 433.476562 C 728.542969 434.109375 727.878906 434.921875 727.386719 435.832031 " fill-opacity="1" fill-rule="nonzero"/><path fill="#da2425" d="M 726.710938 442.039062 C 725.820312 441.964844 724.929688 441.855469 724.050781 441.722656 C 714.761719 424.738281 704.941406 408.042969 694.605469 391.667969 C 698.53125 394.585938 700.886719 399.070312 703.679688 403.082031 C 706.9375 407.769531 710.898438 411.914062 714.820312 416.070312 C 717.011719 418.394531 719.195312 420.730469 721.367188 423.078125 C 721.480469 423.433594 721.59375 423.792969 721.710938 424.148438 C 723.0625 428.246094 724.863281 432.355469 727.386719 435.832031 C 726.730469 437.046875 726.386719 438.433594 726.386719 439.808594 C 726.386719 440.566406 726.492188 441.320312 726.710938 442.039062 " fill-opacity="1" fill-rule="nonzero"/><path fill="#449e39" d="M 806.109375 497.402344 C 806.027344 495.28125 805.746094 493.171875 805.207031 491.167969 C 803.742188 485.722656 800.109375 481.152344 796.472656 476.839844 C 783.511719 461.464844 769.324219 447.128906 754.085938 434.015625 C 750.371094 430.820312 746.59375 427.695312 742.816406 424.5625 C 747.789062 425.976562 752.976562 426.605469 758.234375 426.792969 C 758.445312 426.9375 758.65625 427.082031 758.863281 427.230469 C 773.007812 437.035156 785.316406 449.222656 797.542969 461.332031 C 805.414062 469.132812 813.316406 476.964844 820.167969 485.667969 C 815.828125 490.046875 811.113281 493.980469 806.109375 497.402344 " fill-opacity="1" fill-rule="nonzero"/><path fill="#438c35" d="M 758.234375 426.792969 C 752.976562 426.605469 747.789062 425.976562 742.816406 424.5625 C 740.574219 422.703125 738.332031 420.839844 736.109375 418.960938 C 740.453125 420.238281 744.96875 420.902344 749.554688 421.1875 C 752.488281 422.992188 755.394531 424.84375 758.234375 426.792969 " fill-opacity="1" fill-rule="nonzero"/><path fill="#da2425" d="M 749.554688 421.1875 C 744.96875 420.902344 740.453125 420.238281 736.109375 418.960938 C 728.671875 412.6875 721.40625 406.230469 714.875 399.027344 C 725.605469 407.59375 737.84375 413.996094 749.554688 421.1875 " fill-opacity="1" fill-rule="nonzero"/><path fill="#f6be34" d="M 676.554688 458.734375 C 672.984375 456.890625 671.570312 451.914062 673.417969 448.351562 C 673.734375 447.734375 674.132812 447.15625 674.644531 446.691406 L 674.777344 446.578125 C 676.214844 445.363281 678.277344 445.1875 680.144531 445.441406 C 688.75 446.59375 688.777344 453.582031 685.242188 457.300781 C 684.839844 457.726562 684.390625 458.109375 683.902344 458.433594 C 683.132812 458.949219 682.261719 459.328125 681.320312 459.507812 C 679.863281 459.789062 678.234375 459.601562 676.554688 458.734375 " fill-opacity="1" fill-rule="nonzero"/><path fill="#93411d" d="M 683.902344 458.433594 C 683.132812 458.949219 682.261719 459.328125 681.320312 459.507812 L 681.320312 459.460938 C 681.355469 458.195312 681.886719 456.914062 681.542969 455.699219 C 681.246094 454.648438 680.359375 453.890625 679.730469 452.996094 C 679.105469 452.105469 678.777344 450.757812 679.566406 450 C 680.242188 449.339844 681.410156 449.523438 682.160156 450.089844 C 683.957031 451.453125 683.898438 454.105469 683.816406 456.359375 C 683.792969 457.027344 683.8125 457.738281 683.902344 458.433594 " fill-opacity="1" fill-rule="nonzero"/><path fill="#f49e19" d="M 680.042969 459.628906 C 679.691406 459.628906 679.332031 459.601562 678.96875 459.542969 C 678.1875 459.421875 677.375 459.160156 676.554688 458.734375 C 674.050781 457.441406 672.609375 454.609375 672.605469 451.804688 C 672.601562 450.609375 672.867188 449.414062 673.417969 448.351562 C 673.734375 447.734375 674.132812 447.15625 674.644531 446.691406 C 674.699219 446.953125 674.761719 447.21875 674.820312 447.480469 C 675.296875 449.527344 675.847656 451.609375 677.035156 453.34375 C 678.136719 454.949219 679.800781 456.144531 681.652344 456.785156 C 681.617188 457.664062 681.347656 458.566406 681.320312 459.460938 L 681.320312 459.507812 C 680.90625 459.585938 680.480469 459.628906 680.042969 459.628906 M 683.902344 458.433594 C 683.851562 458.042969 683.824219 457.652344 683.8125 457.261719 C 684.128906 457.292969 684.449219 457.3125 684.765625 457.3125 C 684.925781 457.3125 685.085938 457.308594 685.242188 457.300781 C 684.839844 457.726562 684.390625 458.109375 683.902344 458.433594 " fill-opacity="1" fill-rule="nonzero"/><path fill="#92371d" d="M 681.320312 459.507812 L 681.320312 459.460938 C 681.347656 458.566406 681.617188 457.664062 681.652344 456.785156 C 682.351562 457.027344 683.078125 457.1875 683.8125 457.261719 C 683.824219 457.652344 683.851562 458.042969 683.902344 458.433594 C 683.132812 458.949219 682.261719 459.328125 681.320312 459.507812 " fill-opacity="1" fill-rule="nonzero"/><path fill="#f7cd4b" d="M 685.230469 453.042969 C 684 450.460938 682.171875 448.167969 679.921875 446.402344 C 680.246094 446.339844 680.574219 446.3125 680.90625 446.3125 C 682.273438 446.3125 683.644531 446.832031 684.652344 447.761719 C 685.898438 448.917969 686.558594 450.683594 686.371094 452.371094 L 686.128906 451.546875 C 686.195312 452.167969 685.808594 452.808594 685.230469 453.042969 " fill-opacity="1" fill-rule="nonzero"/><path fill="#ffffff" d="M 685.46875 451.742188 C 685.847656 450.652344 685.644531 449.792969 685.015625 448.835938 C 684.726562 448.394531 684.339844 447.914062 683.890625 447.644531 C 683.367188 447.335938 682.882812 447.371094 682.316406 447.332031 C 682.085938 447.316406 681.949219 447.597656 682.136719 447.753906 C 682.398438 447.972656 682.613281 448.34375 682.835938 448.601562 C 683.113281 448.921875 683.449219 449.183594 683.714844 449.511719 C 684.226562 450.140625 684.660156 451.015625 685.03125 451.742188 C 685.117188 451.910156 685.394531 451.953125 685.46875 451.742188 " fill-opacity="1" fill-rule="nonzero"/><path fill="#ffffff" d="M 677.226562 448.1875 C 677.601562 447.957031 678.238281 447.777344 678.671875 447.703125 C 679.117188 447.625 679.78125 447.65625 680.207031 447.792969 C 680.390625 447.855469 680.667969 447.675781 680.542969 447.460938 C 680.082031 446.65625 679.441406 446.339844 678.515625 446.421875 C 677.5625 446.503906 677.007812 447.003906 676.753906 447.910156 C 676.671875 448.191406 677.035156 448.308594 677.226562 448.1875 " fill-opacity="1" fill-rule="nonzero"/><path fill="#f6be34" d="M 550.871094 436.613281 C 548.414062 433.433594 549.238281 428.324219 552.417969 425.875 C 552.96875 425.449219 553.574219 425.097656 554.234375 424.886719 L 554.402344 424.839844 C 556.21875 424.347656 558.160156 425.0625 559.746094 426.082031 C 567.058594 430.769531 564.125 437.117188 559.355469 438.984375 C 558.808594 439.203125 558.242188 439.359375 557.65625 439.445312 C 556.738281 439.589844 555.789062 439.5625 554.863281 439.324219 C 553.421875 438.964844 552.027344 438.105469 550.871094 436.613281 " fill-opacity="1" fill-rule="nonzero"/><path fill="#93411d" d="M 557.65625 439.445312 C 556.738281 439.589844 555.789062 439.5625 554.863281 439.324219 L 554.882812 439.285156 C 555.449219 438.152344 556.472656 437.21875 556.675781 435.96875 C 556.851562 434.894531 556.367188 433.832031 556.175781 432.757812 C 555.988281 431.679688 556.261719 430.324219 557.292969 429.96875 C 558.183594 429.65625 559.167969 430.316406 559.609375 431.152344 C 560.660156 433.144531 559.484375 435.523438 558.457031 437.53125 C 558.15625 438.125 557.867188 438.777344 557.65625 439.445312 " fill-opacity="1" fill-rule="nonzero"/><path fill="#f49e19" d="M 557.65625 439.445312 C 557.777344 439.070312 557.917969 438.703125 558.070312 438.347656 C 558.480469 438.59375 558.910156 438.808594 559.355469 438.984375 C 558.808594 439.203125 558.242188 439.359375 557.65625 439.445312 M 554.863281 439.324219 C 553.421875 438.964844 552.027344 438.105469 550.871094 436.613281 C 549.898438 435.351562 549.4375 433.785156 549.4375 432.203125 C 549.4375 429.800781 550.5 427.355469 552.417969 425.875 C 552.96875 425.449219 553.574219 425.097656 554.234375 424.886719 C 554.171875 425.152344 554.121094 425.414062 554.058594 425.679688 C 553.621094 427.734375 553.246094 429.855469 553.585938 431.929688 C 553.90625 433.851562 554.910156 435.636719 556.316406 437 C 555.914062 437.78125 555.285156 438.484375 554.882812 439.285156 L 554.863281 439.324219 " fill-opacity="1" fill-rule="nonzero"/><path fill="#92371d" d="M 556.539062 439.535156 C 555.980469 439.535156 555.417969 439.46875 554.863281 439.324219 L 554.882812 439.285156 C 555.285156 438.484375 555.914062 437.78125 556.316406 437 C 556.851562 437.515625 557.441406 437.96875 558.070312 438.347656 C 557.917969 438.703125 557.777344 439.070312 557.65625 439.445312 C 557.289062 439.503906 556.914062 439.535156 556.539062 439.535156 " fill-opacity="1" fill-rule="nonzero"/><path fill="#f7cd4b" d="M 561.210938 435.125 C 561.1875 435.125 561.164062 435.125 561.140625 435.121094 C 561.121094 432.265625 560.429688 429.410156 559.136719 426.863281 C 560.785156 427.28125 562.203125 428.519531 562.847656 430.09375 C 563.492188 431.667969 563.339844 433.546875 562.457031 435 L 562.589844 434.148438 C 562.390625 434.714844 561.8125 435.125 561.210938 435.125 " fill-opacity="1" fill-rule="nonzero"/><path fill="#ffffff" d="M 561.90625 434.046875 C 562.714844 433.21875 562.890625 432.351562 562.726562 431.21875 C 562.648438 430.699219 562.503906 430.101562 562.207031 429.660156 C 561.863281 429.160156 561.410156 428.988281 560.914062 428.714844 C 560.710938 428.601562 560.46875 428.796875 560.574219 429.023438 C 560.71875 429.332031 560.753906 429.757812 560.847656 430.085938 C 560.964844 430.492188 561.160156 430.867188 561.261719 431.28125 C 561.460938 432.066406 561.480469 433.046875 561.511719 433.859375 C 561.515625 434.046875 561.75 434.207031 561.90625 434.046875 " fill-opacity="1" fill-rule="nonzero"/><path fill="#ffffff" d="M 555.941406 427.339844 C 556.375 427.289062 557.027344 427.394531 557.453125 427.507812 C 557.890625 427.628906 558.480469 427.9375 558.808594 428.242188 C 558.945312 428.375 559.273438 428.328125 559.253906 428.082031 C 559.175781 427.15625 558.730469 426.601562 557.855469 426.28125 C 556.953125 425.957031 556.238281 426.175781 555.628906 426.886719 C 555.441406 427.105469 555.71875 427.367188 555.941406 427.339844 " fill-opacity="1" fill-rule="nonzero"/><path fill="#f6be34" d="M 727.820312 444.214844 C 725.367188 441.03125 726.1875 435.929688 729.367188 433.476562 C 729.914062 433.054688 730.523438 432.699219 731.183594 432.492188 L 731.351562 432.441406 C 733.167969 431.953125 735.109375 432.667969 736.695312 433.683594 C 744.007812 438.371094 741.074219 444.714844 736.300781 446.589844 C 735.757812 446.804688 735.1875 446.960938 734.605469 447.046875 C 733.6875 447.191406 732.738281 447.164062 731.8125 446.929688 C 730.371094 446.566406 728.972656 445.710938 727.820312 444.214844 " fill-opacity="1" fill-rule="nonzero"/><path fill="#93411d" d="M 734.605469 447.046875 C 733.6875 447.191406 732.738281 447.164062 731.8125 446.929688 L 731.828125 446.882812 C 732.402344 445.753906 733.421875 444.820312 733.625 443.570312 C 733.796875 442.496094 733.316406 441.433594 733.125 440.359375 C 732.933594 439.285156 733.210938 437.925781 734.246094 437.570312 C 735.136719 437.257812 736.113281 437.917969 736.554688 438.753906 C 737.605469 440.75 736.429688 443.125 735.40625 445.132812 C 735.101562 445.726562 734.816406 446.378906 734.605469 447.046875 " fill-opacity="1" fill-rule="nonzero"/><path fill="#f49e19" d="M 734.605469 447.046875 C 734.722656 446.675781 734.863281 446.304688 735.019531 445.949219 C 735.429688 446.195312 735.859375 446.410156 736.300781 446.589844 C 735.757812 446.804688 735.1875 446.960938 734.605469 447.046875 M 731.8125 446.929688 C 730.371094 446.566406 728.972656 445.710938 727.820312 444.214844 C 726.847656 442.953125 726.386719 441.390625 726.386719 439.808594 C 726.386719 437.402344 727.445312 434.957031 729.367188 433.476562 C 729.914062 433.054688 730.523438 432.699219 731.183594 432.492188 C 731.121094 432.757812 731.066406 433.019531 731.007812 433.28125 C 730.570312 435.335938 730.191406 437.457031 730.535156 439.53125 C 730.851562 441.453125 731.855469 443.242188 733.265625 444.601562 C 732.859375 445.386719 732.230469 446.085938 731.828125 446.882812 L 731.8125 446.929688 " fill-opacity="1" fill-rule="nonzero"/><path fill="#92371d" d="M 733.484375 447.136719 C 732.929688 447.136719 732.367188 447.066406 731.8125 446.929688 L 731.828125 446.882812 C 732.230469 446.085938 732.859375 445.386719 733.265625 444.601562 C 733.796875 445.117188 734.386719 445.570312 735.019531 445.949219 C 734.863281 446.304688 734.722656 446.675781 734.605469 447.046875 C 734.234375 447.105469 733.863281 447.136719 733.484375 447.136719 " fill-opacity="1" fill-rule="nonzero"/><path fill="#f7cd4b" d="M 738.160156 442.726562 C 738.136719 442.726562 738.113281 442.726562 738.089844 442.722656 C 738.070312 439.863281 737.378906 437.015625 736.085938 434.460938 C 737.734375 434.886719 739.15625 436.121094 739.796875 437.695312 C 740.4375 439.273438 740.289062 441.148438 739.410156 442.601562 L 739.535156 441.75 C 739.339844 442.316406 738.757812 442.726562 738.160156 442.726562 " fill-opacity="1" fill-rule="nonzero"/><path fill="#ffffff" d="M 738.855469 441.652344 C 739.660156 440.824219 739.839844 439.953125 739.671875 438.820312 C 739.597656 438.300781 739.453125 437.703125 739.15625 437.265625 C 738.8125 436.765625 738.359375 436.589844 737.863281 436.316406 C 737.65625 436.203125 737.417969 436.402344 737.519531 436.625 C 737.667969 436.933594 737.703125 437.359375 737.796875 437.6875 C 737.914062 438.09375 738.105469 438.46875 738.210938 438.882812 C 738.40625 439.671875 738.433594 440.648438 738.457031 441.464844 C 738.464844 441.648438 738.699219 441.808594 738.855469 441.652344 " fill-opacity="1" fill-rule="nonzero"/><path fill="#ffffff" d="M 732.890625 434.941406 C 733.324219 434.890625 733.976562 434.996094 734.40625 435.113281 C 734.835938 435.230469 735.429688 435.539062 735.753906 435.84375 C 735.894531 435.976562 736.222656 435.929688 736.203125 435.683594 C 736.125 434.761719 735.675781 434.203125 734.800781 433.882812 C 733.902344 433.558594 733.1875 433.777344 732.578125 434.488281 C 732.390625 434.710938 732.667969 434.96875 732.890625 434.941406 " fill-opacity="1" fill-rule="nonzero"/><path fill="#f6be34" d="M 618.6875 470.207031 C 614.914062 471.59375 610.296875 469.269531 608.914062 465.503906 C 608.675781 464.851562 608.523438 464.167969 608.523438 463.472656 L 608.527344 463.300781 C 608.605469 461.417969 609.871094 459.785156 611.320312 458.574219 C 617.984375 453.011719 623.15625 457.71875 623.507812 462.832031 C 623.546875 463.417969 623.523438 464.007812 623.433594 464.589844 C 623.296875 465.507812 622.984375 466.402344 622.480469 467.214844 C 621.703125 468.480469 620.464844 469.558594 618.6875 470.207031 " fill-opacity="1" fill-rule="nonzero"/><path fill="#93411d" d="M 623.433594 464.589844 C 623.296875 465.507812 622.984375 466.402344 622.480469 467.214844 L 622.445312 467.1875 C 621.535156 466.304688 620.953125 465.046875 619.824219 464.480469 C 618.847656 463.988281 617.691406 464.132812 616.605469 463.988281 C 615.527344 463.84375 614.3125 463.175781 614.289062 462.082031 C 614.257812 461.140625 615.179688 460.402344 616.109375 460.234375 C 618.328125 459.832031 620.238281 461.667969 621.847656 463.25 C 622.320312 463.71875 622.859375 464.183594 623.433594 464.589844 " fill-opacity="1" fill-rule="nonzero"/><path fill="#f49e19" d="M 616.367188 470.613281 C 613.207031 470.613281 610.019531 468.523438 608.914062 465.503906 C 608.675781 464.851562 608.523438 464.167969 608.523438 463.472656 C 608.753906 463.613281 608.988281 463.742188 609.226562 463.878906 C 611.054688 464.914062 612.960938 465.914062 615.039062 466.210938 C 615.433594 466.265625 615.828125 466.292969 616.230469 466.292969 C 617.777344 466.292969 619.324219 465.875 620.699219 465.132812 C 621.324219 465.753906 621.804688 466.5625 622.445312 467.1875 L 622.480469 467.214844 C 621.703125 468.480469 620.464844 469.558594 618.6875 470.207031 C 618.363281 470.324219 618.035156 470.417969 617.699219 470.484375 C 617.257812 470.570312 616.8125 470.613281 616.367188 470.613281 M 623.433594 464.589844 C 623.113281 464.363281 622.804688 464.121094 622.507812 463.863281 C 622.871094 463.542969 623.203125 463.203125 623.507812 462.832031 C 623.519531 463.019531 623.523438 463.207031 623.527344 463.394531 C 623.527344 463.796875 623.496094 464.195312 623.433594 464.589844 " fill-opacity="1" fill-rule="nonzero"/><path fill="#92371d" d="M 622.480469 467.214844 L 622.445312 467.1875 C 621.804688 466.5625 621.324219 465.753906 620.699219 465.132812 C 621.347656 464.777344 621.957031 464.351562 622.507812 463.863281 C 622.804688 464.121094 623.113281 464.363281 623.433594 464.589844 C 623.320312 465.347656 623.082031 466.09375 622.71875 466.789062 C 622.644531 466.933594 622.566406 467.078125 622.480469 467.214844 " fill-opacity="1" fill-rule="nonzero"/><path fill="#f7cd4b" d="M 620.359375 459.964844 C 618.585938 459.421875 616.734375 459.144531 614.882812 459.144531 C 613.875 459.144531 612.871094 459.226562 611.878906 459.390625 C 612.773438 457.945312 614.382812 456.964844 616.078125 456.824219 C 616.21875 456.8125 616.359375 456.804688 616.503906 456.804688 C 618.058594 456.804688 619.609375 457.5 620.636719 458.671875 L 619.863281 458.292969 C 620.363281 458.664062 620.578125 459.382812 620.359375 459.964844 " fill-opacity="1" fill-rule="nonzero"/><path fill="#ffffff" d="M 619.5625 458.910156 C 619.015625 457.894531 618.242188 457.460938 617.113281 457.28125 C 616.59375 457.195312 615.980469 457.152344 615.472656 457.304688 C 614.890625 457.480469 614.589844 457.863281 614.183594 458.253906 C 614.011719 458.414062 614.125 458.707031 614.371094 458.671875 C 614.710938 458.628906 615.128906 458.71875 615.464844 458.730469 C 615.894531 458.742188 616.308594 458.671875 616.730469 458.695312 C 617.542969 458.742188 618.484375 459.015625 619.265625 459.234375 C 619.445312 459.285156 619.667969 459.109375 619.5625 458.910156 " fill-opacity="1" fill-rule="nonzero"/><path fill="#ffffff" d="M 611.371094 462.582031 C 611.457031 462.152344 611.75 461.5625 611.992188 461.1875 C 612.234375 460.8125 612.707031 460.339844 613.09375 460.125 C 613.261719 460.027344 613.320312 459.703125 613.078125 459.648438 C 612.171875 459.445312 611.507812 459.703125 610.941406 460.441406 C 610.359375 461.199219 610.351562 461.949219 610.847656 462.742188 C 611 462.992188 611.332031 462.804688 611.371094 462.582031 " fill-opacity="1" fill-rule="nonzero"/><path fill="#f6be34" d="M 773.675781 427.972656 C 769.90625 429.359375 765.285156 427.039062 763.902344 423.269531 C 763.664062 422.617188 763.511719 421.933594 763.511719 421.238281 L 763.515625 421.066406 C 763.59375 419.183594 764.859375 417.550781 766.308594 416.339844 C 772.976562 410.777344 778.144531 415.484375 778.492188 420.601562 C 778.535156 421.179688 778.515625 421.773438 778.421875 422.355469 C 778.28125 423.269531 777.96875 424.171875 777.464844 424.984375 C 776.6875 426.25 775.449219 427.320312 773.675781 427.972656 " fill-opacity="1" fill-rule="nonzero"/><path fill="#93411d" d="M 778.421875 422.355469 C 778.28125 423.269531 777.96875 424.171875 777.464844 424.984375 L 777.429688 424.949219 C 776.527344 424.070312 775.9375 422.816406 774.808594 422.246094 C 773.835938 421.753906 772.679688 421.894531 771.597656 421.753906 C 770.515625 421.613281 769.300781 420.941406 769.273438 419.847656 C 769.246094 418.90625 770.167969 418.167969 771.097656 418 C 773.316406 417.59375 775.230469 419.433594 776.835938 421.015625 C 777.3125 421.484375 777.847656 421.953125 778.421875 422.355469 " fill-opacity="1" fill-rule="nonzero"/><path fill="#f49e19" d="M 771.355469 428.378906 C 769.671875 428.378906 767.976562 427.78125 766.59375 426.769531 C 765.390625 425.882812 764.417969 424.675781 763.902344 423.269531 C 763.667969 422.625 763.511719 421.941406 763.511719 421.253906 C 763.511719 421.25 763.511719 421.242188 763.511719 421.238281 C 763.742188 421.378906 763.976562 421.507812 764.210938 421.644531 C 766.042969 422.679688 767.945312 423.679688 770.027344 423.972656 C 770.421875 424.03125 770.816406 424.058594 771.214844 424.058594 C 772.765625 424.058594 774.3125 423.640625 775.6875 422.894531 C 776.3125 423.519531 776.789062 424.328125 777.429688 424.949219 L 777.464844 424.984375 C 776.6875 426.25 775.449219 427.320312 773.675781 427.972656 C 772.925781 428.25 772.140625 428.378906 771.355469 428.378906 M 778.421875 422.355469 C 778.101562 422.128906 777.792969 421.882812 777.5 421.628906 C 777.855469 421.3125 778.191406 420.964844 778.492188 420.601562 C 778.507812 420.785156 778.515625 420.972656 778.515625 421.164062 C 778.515625 421.558594 778.484375 421.960938 778.421875 422.355469 " fill-opacity="1" fill-rule="nonzero"/><path fill="#92371d" d="M 777.464844 424.984375 L 777.429688 424.949219 C 776.789062 424.328125 776.3125 423.519531 775.6875 422.894531 C 776.339844 422.542969 776.945312 422.117188 777.5 421.628906 C 777.792969 421.882812 778.101562 422.128906 778.421875 422.355469 C 778.28125 423.269531 777.96875 424.171875 777.464844 424.984375 " fill-opacity="1" fill-rule="nonzero"/><path fill="#f7cd4b" d="M 775.347656 417.730469 C 773.578125 417.1875 771.726562 416.910156 769.871094 416.910156 C 768.867188 416.910156 767.859375 416.992188 766.867188 417.15625 C 767.765625 415.710938 769.371094 414.730469 771.066406 414.589844 C 771.207031 414.578125 771.347656 414.574219 771.492188 414.574219 C 773.046875 414.574219 774.597656 415.261719 775.625 416.4375 L 774.851562 416.058594 C 775.355469 416.429688 775.566406 417.148438 775.347656 417.730469 " fill-opacity="1" fill-rule="nonzero"/><path fill="#ffffff" d="M 774.550781 416.679688 C 774.007812 415.660156 773.230469 415.226562 772.105469 415.046875 C 771.582031 414.960938 770.96875 414.917969 770.460938 415.074219 C 769.878906 415.246094 769.582031 415.628906 769.171875 416.019531 C 769 416.179688 769.113281 416.472656 769.359375 416.441406 C 769.699219 416.390625 770.113281 416.484375 770.457031 416.496094 C 770.878906 416.507812 771.296875 416.4375 771.71875 416.460938 C 772.53125 416.507812 773.46875 416.78125 774.253906 417 C 774.433594 417.050781 774.65625 416.871094 774.550781 416.679688 " fill-opacity="1" fill-rule="nonzero"/><path fill="#ffffff" d="M 766.359375 420.351562 C 766.441406 419.917969 766.742188 419.328125 766.980469 418.957031 C 767.21875 418.578125 767.695312 418.109375 768.082031 417.890625 C 768.253906 417.792969 768.308594 417.46875 768.066406 417.414062 C 767.160156 417.207031 766.492188 417.46875 765.929688 418.207031 C 765.347656 418.964844 765.339844 419.710938 765.835938 420.511719 C 765.988281 420.757812 766.316406 420.570312 766.359375 420.351562 " fill-opacity="1" fill-rule="nonzero"/></svg>