<svg width="286" height="253" viewBox="0 0 286 253" fill="none" xmlns="http://www.w3.org/2000/svg">
<path class="shirt-body" d="M61.0568 0H104.369C106.282 0 108.155 0.548904 109.766 1.58158L115.307 5.13418C132.98 16.4643 155.848 15.5489 172.558 2.84251L173.613 2.03991C175.354 0.716536 177.48 0 179.666 0H225.475L221.07 126L225.116 242.653C225.312 248.309 220.78 253 215.122 253H71.4695C65.7881 253 61.2481 248.273 61.4777 242.596L66.1948 126L61.0568 0Z" fill="#D9D9D9"/>
<path class="shirt-sleeve" d="M20.6864 33.5L23.8035 27.0566C28.617 17.1069 37.0627 9.29122 47.2368 5.37159L61.1796 -3.11668e-06L63.9928 71L56.3651 79.6065L48.2808 91.0615C44.8585 95.9107 38.2905 97.0905 33.9241 93.6402L10.8841 75.4344C7.54927 72.7993 6.4428 68.1521 8.15719 63.9813L20.6864 33.5Z" fill="#D9D9D9"/>
<path class="shirt-sleeve" d="M265.864 33.3592L262.736 26.9281C257.903 16.9945 249.441 9.20705 239.257 5.32153L225.309 6.95458e-07L222.628 71.0074L230.272 79.5873L238.375 91.0109C241.807 95.8494 248.381 97.0069 252.742 93.5407L275.746 75.2574C279.075 72.6113 280.173 67.9622 278.451 63.7985L265.864 33.3592Z" fill="#D9D9D9"/>
</svg>
