<svg xmlns="http://www.w3.org/2000/svg" xmlns:xlink="http://www.w3.org/1999/xlink" width="1080" zoomAndPan="magnify" viewBox="0 0 810 809.999993" height="1080" preserveAspectRatio="xMidYMid meet" version="1.0"><path fill="#ffe801" class="detalhe" d="M 258.894531 435.449219 C 252.679688 433.15625 245.175781 428.839844 246.238281 422.304688 C 246.539062 420.464844 247.574219 418.816406 248.542969 417.242188 C 252.945312 410.367188 257.886719 403.902344 263.371094 397.847656 C 269.554688 391.019531 276.449219 384.703125 281.230469 376.832031 C 287.75 366.113281 289.867188 353.375 291.855469 340.992188 L 297.695312 304.628906 C 300.179688 289.15625 303.257812 272.507812 314.640625 261.710938 C 321.773438 254.949219 331.210938 252.226562 340.894531 250.488281 C 369.707031 245.316406 393.746094 246.558594 427.429688 245.316406 C 436.265625 244.992188 459.265625 247.984375 467.976562 249.507812 C 490.390625 253.429688 498.246094 263.679688 504.710938 280.21875 C 511.175781 296.757812 512.191406 315.074219 514.253906 332.707031 C 516.320312 350.339844 519.40625 368.421875 528.800781 383.496094 C 537.304688 397.132812 550.316406 407.25 561.023438 419.242188 C 562.265625 420.636719 563.554688 422.265625 563.433594 424.132812 C 563.339844 425.578125 562.398438 426.800781 561.429688 427.894531 C 554.082031 435.835938 542.875 438.703125 532.28125 440.953125 C 465.945312 455.019531 401.027344 452.675781 329.960938 449.015625 C 305.082031 447.734375 281.246094 446.96875 258.976562 435.550781 " fill-opacity="1" fill-rule="nonzero"/><path fill="#000000" class="sombra" d="M 259.191406 434.324219 C 253.253906 432.070312 244.4375 427.398438 248.375 419.765625 C 251.957031 412.8125 257.433594 406.34375 262.554688 400.496094 C 271.941406 389.777344 282.191406 380.652344 287.175781 366.910156 C 292.21875 352.984375 293.546875 337.65625 295.859375 323.117188 C 298.117188 309.039062 299.476562 294.285156 304.246094 280.757812 C 306.519531 274.308594 309.816406 268.128906 314.6875 263.253906 C 319.894531 258.035156 326.660156 255.0625 333.707031 253.25 C 347.011719 249.773438 361.09375 248.660156 374.796875 247.953125 C 388.9375 247.1875 403.078125 247.1875 417.1875 246.804688 C 428.445312 246.453125 439.667969 246.9375 450.851562 248.253906 C 461.3125 249.511719 472.53125 250.445312 482.203125 254.921875 C 491.347656 259.128906 497.316406 266.558594 501.4375 275.550781 C 514.007812 302.957031 510.296875 334.1875 518.53125 362.746094 C 520.429688 369.324219 523.074219 375.589844 526.460938 381.542969 C 529.847656 387.496094 533.882812 392.96875 538.566406 397.96875 C 543.242188 403.070312 548.304688 407.839844 553.195312 412.753906 C 555.558594 415.136719 558.003906 417.507812 560.152344 420.089844 C 562.40625 422.757812 562.292969 425.324219 559.820312 427.839844 C 558.429688 429.238281 556.910156 430.476562 555.265625 431.5625 C 549.5 435.402344 542.714844 437.382812 536.027344 438.9375 C 528.621094 440.664062 521.128906 442.058594 513.628906 443.328125 C 498.21875 445.929688 482.675781 447.730469 467.09375 448.882812 C 435.996094 451.195312 404.78125 450.957031 373.640625 449.847656 C 357.453125 449.277344 341.273438 448.449219 325.097656 447.621094 C 310.210938 446.863281 295.203125 446.046875 280.683594 442.398438 C 273.332031 440.574219 266.269531 437.960938 259.503906 434.554688 C 258.167969 433.890625 256.980469 435.890625 258.320312 436.558594 C 272.039062 443.46875 286.949219 446.761719 302.109375 448.335938 C 318.433594 450.035156 334.929688 450.476562 351.320312 451.238281 C 384.800781 452.789062 418.363281 453.777344 451.859375 452.136719 C 467.851562 451.351562 483.804688 449.957031 499.667969 447.78125 C 507.816406 446.671875 515.933594 445.335938 524.015625 443.78125 C 531.359375 442.378906 538.792969 441.011719 545.875 438.578125 C 551.886719 436.503906 557.894531 433.484375 562.21875 428.699219 C 567.011719 423.367188 562.753906 419.285156 558.785156 415.09375 C 548.207031 403.929688 536.003906 393.953125 528.316406 380.414062 C 512.089844 351.808594 517.382812 317.386719 508.171875 286.761719 C 505.179688 276.796875 500.769531 266.167969 492.863281 259.058594 C 484.953125 251.949219 474.457031 249.28125 464.144531 247.71875 C 453.382812 246.078125 442.46875 244.605469 431.589844 244.191406 C 424.785156 243.9375 417.917969 244.472656 411.109375 244.617188 C 403.503906 244.777344 395.894531 244.882812 388.289062 245.085938 C 373.996094 245.464844 359.710938 246.296875 345.578125 248.527344 C 331.910156 250.671875 318.347656 254.121094 309.570312 265.640625 C 301.363281 276.410156 298.835938 290.277344 296.71875 303.316406 C 294.046875 319.882812 291.929688 336.664062 288.523438 353.101562 C 286.933594 360.785156 284.730469 368.441406 280.789062 375.273438 C 276.847656 382.101562 271.113281 387.878906 265.667969 393.644531 C 260.320312 399.269531 255.40625 405.25 250.921875 411.582031 C 247.714844 416.15625 242.980469 421.746094 245.957031 427.585938 C 248.371094 432.289062 253.878906 434.816406 258.574219 436.605469 C 259.976562 437.136719 260.578125 434.875 259.195312 434.351562 Z M 259.191406 434.324219 " fill-opacity="1" fill-rule="nonzero"/><path fill="#000000" class="sombra" d="M 285.019531 370.761719 C 298.714844 376.8125 313.027344 380.402344 327.957031 381.542969 C 343.933594 382.78125 360.015625 382.875 376.046875 383.410156 C 408.867188 384.535156 441.5 384.890625 474.226562 381.59375 C 483.039062 380.707031 491.824219 379.613281 500.578125 378.3125 C 508.332031 377.167969 516.359375 376.3125 523.40625 372.609375 C 524.742188 371.945312 523.558594 369.902344 522.222656 370.609375 C 515.757812 373.945312 508.363281 374.8125 501.25 375.886719 C 493.140625 377.105469 485 378.144531 476.839844 379.007812 C 461.398438 380.632812 445.90625 381.621094 430.367188 381.96875 C 399.28125 382.636719 368.042969 381.007812 336.980469 379.734375 C 319.355469 379.007812 302.390625 375.914062 286.21875 368.761719 C 284.882812 368.164062 283.667969 370.167969 285.042969 370.761719 Z M 285.019531 370.761719 " fill-opacity="1" fill-rule="nonzero"/><path fill="#000000" class="sombra" d="M 314.753906 263.273438 C 325.546875 265.832031 337.320312 265.273438 348.347656 265.8125 L 384.367188 267.566406 C 396.15625 268.140625 407.839844 267.261719 419.613281 267.433594 C 431.542969 267.609375 443.472656 267.582031 455.386719 267.046875 C 468.488281 266.5 481.507812 265.167969 494.445312 263.046875 C 495.921875 262.796875 495.292969 260.550781 493.824219 260.796875 C 470.59375 264.671875 447.023438 265.378906 423.519531 265.125 C 412.21875 265.007812 400.890625 266.007812 389.605469 265.464844 C 378.027344 264.917969 366.449219 264.355469 354.875 263.777344 L 335.230469 262.824219 C 328.605469 262.5 321.824219 262.539062 315.347656 261.003906 C 313.882812 260.65625 313.261719 262.90625 314.726562 263.253906 Z M 314.753906 263.273438 " fill-opacity="1" fill-rule="nonzero"/><path fill="#000000" d="M 249.964844 415.75 C 250.535156 416.089844 251.105469 416.425781 251.683594 416.757812 L 251.347656 417.335938 C 250.769531 417.003906 250.195312 416.664062 249.621094 416.320312 Z M 253.417969 417.746094 C 254 418.070312 254.582031 418.390625 255.167969 418.707031 L 254.851562 419.292969 C 254.261719 418.976562 253.675781 418.652344 253.089844 418.328125 Z M 256.9375 419.640625 C 257.53125 419.949219 258.125 420.253906 258.71875 420.550781 L 258.417969 421.148438 C 257.820312 420.847656 257.222656 420.542969 256.628906 420.230469 Z M 260.515625 421.433594 C 261.117188 421.722656 261.71875 422.007812 262.324219 422.289062 L 262.042969 422.894531 C 261.433594 422.613281 260.828125 422.324219 260.226562 422.035156 Z M 264.144531 423.117188 C 264.75 423.386719 265.363281 423.65625 265.972656 423.917969 L 265.710938 424.53125 C 265.09375 424.265625 264.480469 423.996094 263.871094 423.726562 Z M 267.816406 424.691406 C 268.433594 424.941406 269.054688 425.191406 269.671875 425.4375 L 269.429688 426.054688 C 268.804688 425.8125 268.183594 425.5625 267.5625 425.304688 Z M 271.539062 426.152344 C 272.164062 426.386719 272.789062 426.617188 273.417969 426.84375 L 273.191406 427.472656 C 272.558594 427.246094 271.929688 427.011719 271.304688 426.777344 Z M 275.304688 427.507812 C 275.9375 427.722656 276.570312 427.933594 277.203125 428.140625 L 276.996094 428.773438 C 276.359375 428.566406 275.722656 428.355469 275.089844 428.136719 Z M 279.109375 428.746094 C 279.746094 428.941406 280.382812 429.132812 281.023438 429.324219 L 280.835938 429.960938 C 280.191406 429.773438 279.550781 429.582031 278.910156 429.382812 Z M 282.945312 429.871094 C 283.589844 430.046875 284.230469 430.222656 284.875 430.390625 L 284.703125 431.035156 C 284.058594 430.867188 283.414062 430.691406 282.765625 430.511719 Z M 286.816406 430.878906 C 287.464844 431.039062 288.113281 431.191406 288.765625 431.34375 L 288.617188 431.992188 C 287.960938 431.84375 287.308594 431.6875 286.65625 431.527344 Z M 290.71875 431.773438 C 291.371094 431.914062 292.023438 432.050781 292.675781 432.179688 L 292.546875 432.832031 C 291.894531 432.703125 291.238281 432.566406 290.578125 432.425781 Z M 294.640625 432.550781 C 295.292969 432.671875 295.945312 432.785156 296.605469 432.894531 L 296.492188 433.554688 C 295.832031 433.441406 295.175781 433.328125 294.519531 433.207031 Z M 298.574219 433.203125 L 300.5625 433.480469 L 300.46875 434.140625 L 298.480469 433.867188 Z M 302.542969 433.726562 L 304.535156 433.949219 L 304.460938 434.613281 L 302.46875 434.390625 Z M 306.519531 434.148438 L 308.515625 434.324219 L 308.457031 434.988281 L 306.460938 434.8125 Z M 310.503906 434.480469 L 312.503906 434.621094 L 312.457031 435.285156 L 310.457031 435.144531 Z M 314.5 434.746094 L 316.5 434.863281 L 316.460938 435.527344 L 314.460938 435.414062 Z M 318.496094 434.964844 L 320.5 435.066406 L 320.464844 435.730469 L 318.464844 435.632812 Z M 322.5 435.15625 L 324.390625 435.242188 L 324.5 435.25 L 324.46875 435.914062 L 324.363281 435.910156 L 322.46875 435.824219 Z M 326.5 435.339844 L 328.503906 435.429688 L 328.472656 436.097656 L 326.472656 436.003906 Z M 330.503906 435.519531 L 332.507812 435.613281 L 332.476562 436.277344 L 330.476562 436.1875 Z M 334.507812 435.703125 L 336.511719 435.792969 L 336.480469 436.460938 L 334.476562 436.367188 Z M 338.511719 435.882812 L 340.511719 435.976562 L 340.484375 436.640625 L 338.480469 436.550781 Z M 342.515625 436.066406 L 344.515625 436.15625 L 344.488281 436.824219 L 342.484375 436.730469 Z M 346.519531 436.246094 L 348.519531 436.339844 L 348.488281 437.003906 L 346.488281 436.914062 Z M 350.523438 436.429688 L 352.523438 436.519531 L 352.492188 437.1875 L 350.492188 437.09375 Z M 354.523438 436.609375 L 356.527344 436.699219 L 356.496094 437.367188 L 354.496094 437.277344 Z M 358.527344 436.792969 L 360.53125 436.882812 L 360.5 437.546875 L 358.496094 437.457031 Z M 362.53125 436.972656 L 364.53125 437.0625 L 364.503906 437.730469 L 362.5 437.640625 Z M 366.535156 437.15625 L 368.535156 437.246094 L 368.507812 437.910156 L 366.503906 437.820312 Z M 370.539062 437.335938 L 372.539062 437.425781 L 372.507812 438.09375 L 370.507812 438.003906 Z M 374.542969 437.519531 L 375.425781 437.558594 L 376.542969 437.609375 L 376.511719 438.277344 L 375.398438 438.222656 L 374.511719 438.183594 Z M 378.542969 437.703125 L 378.96875 437.722656 L 380.546875 437.792969 L 380.515625 438.457031 L 378.9375 438.386719 L 378.515625 438.367188 Z M 382.546875 437.882812 L 383.335938 437.917969 L 384.550781 437.972656 L 384.519531 438.636719 L 383.308594 438.585938 L 382.519531 438.550781 Z M 386.550781 438.058594 L 387.101562 438.082031 L 388.550781 438.144531 L 388.523438 438.8125 L 387.074219 438.75 L 386.523438 438.726562 Z M 390.554688 438.230469 L 392.554688 438.308594 L 392.527344 438.976562 L 390.527344 438.894531 Z M 394.558594 438.386719 L 396.558594 438.460938 L 396.535156 439.128906 L 394.53125 439.054688 Z M 398.5625 438.53125 L 400.5625 438.597656 L 400.542969 439.265625 L 398.539062 439.199219 Z M 402.566406 438.660156 L 404.570312 438.71875 L 404.550781 439.386719 L 402.546875 439.328125 Z M 406.570312 438.769531 L 408.574219 438.816406 L 408.558594 439.484375 L 406.554688 439.4375 Z M 410.574219 438.859375 L 412.578125 438.894531 L 412.566406 439.558594 L 410.5625 439.523438 Z M 414.578125 438.921875 L 416.582031 438.941406 L 416.574219 439.609375 L 414.570312 439.589844 Z M 418.582031 438.957031 L 418.90625 438.957031 L 420.585938 438.964844 L 420.582031 439.632812 L 418.902344 439.625 L 418.582031 439.625 Z M 422.585938 438.96875 L 424.585938 438.960938 L 424.589844 439.628906 L 422.585938 439.632812 Z M 426.585938 438.949219 L 428.589844 438.929688 L 428.597656 439.597656 L 426.59375 439.617188 Z M 430.59375 438.902344 L 431.472656 438.890625 L 432.59375 438.871094 L 432.605469 439.535156 L 431.484375 439.554688 L 430.601562 439.570312 Z M 434.597656 438.828125 L 436.601562 438.78125 L 436.617188 439.445312 L 434.613281 439.496094 Z M 438.601562 438.722656 L 440.605469 438.660156 L 440.625 439.328125 L 438.621094 439.390625 Z M 442.605469 438.59375 L 444.609375 438.515625 L 444.636719 439.179688 L 442.632812 439.257812 Z M 446.613281 438.429688 L 448.617188 438.339844 L 448.644531 439.003906 L 446.640625 439.097656 Z M 450.613281 438.242188 L 452.613281 438.136719 L 452.648438 438.800781 L 450.648438 438.90625 Z M 454.613281 438.023438 L 456.613281 437.902344 L 456.652344 438.566406 L 454.652344 438.6875 Z M 458.609375 437.773438 L 460.609375 437.640625 L 460.652344 438.304688 L 458.65625 438.441406 Z M 462.605469 437.5 L 464.605469 437.351562 L 464.652344 438.015625 L 462.65625 438.164062 Z M 466.601562 437.195312 L 468.597656 437.03125 L 468.652344 437.695312 L 466.652344 437.859375 Z M 470.59375 436.859375 L 472.589844 436.683594 L 472.648438 437.347656 L 470.652344 437.527344 Z M 474.582031 436.5 L 476.578125 436.308594 L 476.640625 436.972656 L 474.644531 437.164062 Z M 478.570312 436.109375 L 480.5625 435.902344 L 480.632812 436.566406 L 478.636719 436.773438 Z M 482.554688 435.691406 L 484.546875 435.46875 L 484.621094 436.132812 L 482.628906 436.351562 Z M 486.535156 435.242188 L 488.523438 435.007812 L 488.605469 435.667969 L 486.613281 435.90625 Z M 490.511719 434.765625 L 492.5 434.515625 L 492.585938 435.179688 L 490.59375 435.429688 Z M 494.488281 434.261719 L 496.074219 434.050781 L 496.472656 434 L 496.5625 434.660156 L 496.164062 434.714844 L 494.574219 434.921875 Z M 498.457031 433.726562 L 500.441406 433.453125 L 500.53125 434.113281 L 498.546875 434.390625 Z M 502.421875 433.167969 L 504.402344 432.875 L 504.5 433.535156 L 502.519531 433.828125 Z M 506.382812 432.578125 L 508.363281 432.273438 L 508.464844 432.929688 L 506.484375 433.238281 Z M 510.339844 431.960938 L 512.320312 431.640625 L 512.425781 432.296875 L 510.445312 432.617188 Z M 514.296875 431.3125 L 516.273438 430.976562 L 516.382812 431.636719 L 514.40625 431.96875 Z M 518.246094 430.636719 L 520.21875 430.289062 L 520.335938 430.945312 L 518.363281 431.292969 Z M 522.191406 429.933594 L 524.160156 429.570312 L 524.28125 430.226562 L 522.3125 430.589844 Z M 526.128906 429.203125 L 528.097656 428.824219 L 528.222656 429.480469 L 526.253906 429.855469 Z M 530.058594 428.441406 L 532.023438 428.050781 L 532.152344 428.707031 L 530.191406 429.097656 Z M 533.984375 427.65625 L 535.945312 427.25 L 536.078125 427.902344 L 534.121094 428.308594 Z M 537.902344 426.839844 L 538.117188 426.792969 C 538.707031 426.667969 539.28125 426.542969 539.835938 426.410156 L 539.992188 427.058594 C 539.429688 427.191406 538.851562 427.320312 538.257812 427.445312 L 538.039062 427.492188 Z M 541.765625 425.914062 C 542.421875 425.734375 543.0625 425.542969 543.683594 425.34375 L 543.886719 425.980469 C 543.257812 426.179688 542.609375 426.375 541.945312 426.554688 Z M 545.550781 424.703125 C 546.179688 424.472656 546.796875 424.230469 547.402344 423.972656 L 547.660156 424.585938 C 547.046875 424.847656 546.421875 425.09375 545.78125 425.332031 Z M 549.21875 423.148438 C 549.808594 422.863281 550.386719 422.5625 550.953125 422.25 L 551.277344 422.832031 C 550.699219 423.152344 550.109375 423.457031 549.511719 423.75 Z M 552.671875 421.234375 C 553.238281 420.878906 553.792969 420.511719 554.335938 420.125 L 554.722656 420.667969 C 554.167969 421.0625 553.605469 421.4375 553.027344 421.800781 Z M 555.882812 418.960938 C 556.402344 418.550781 556.910156 418.125 557.410156 417.679688 L 557.851562 418.179688 C 557.34375 418.628906 556.828125 419.066406 556.300781 419.484375 Z M 555.882812 418.960938 " fill-opacity="1" fill-rule="nonzero"/><path fill="#000000" d="M 255.988281 406.4375 C 256.550781 406.789062 257.113281 407.140625 257.683594 407.484375 L 257.335938 408.054688 C 256.761719 407.707031 256.195312 407.355469 255.632812 407 Z M 259.394531 408.507812 C 259.96875 408.84375 260.542969 409.175781 261.125 409.507812 L 260.796875 410.085938 C 260.210938 409.757812 259.632812 409.421875 259.054688 409.085938 Z M 262.875 410.476562 C 263.460938 410.796875 264.050781 411.109375 264.640625 411.417969 L 264.332031 412.007812 C 263.734375 411.699219 263.144531 411.382812 262.554688 411.0625 Z M 266.421875 412.332031 C 267.019531 412.632812 267.617188 412.925781 268.214844 413.214844 L 267.925781 413.816406 C 267.320312 413.523438 266.722656 413.230469 266.125 412.929688 Z M 270.019531 414.066406 C 270.625 414.347656 271.230469 414.621094 271.839844 414.890625 L 271.570312 415.5 C 270.957031 415.230469 270.347656 414.953125 269.738281 414.671875 Z M 273.675781 415.6875 C 274.289062 415.949219 274.90625 416.203125 275.523438 416.453125 L 275.273438 417.070312 C 274.652344 416.820312 274.03125 416.5625 273.414062 416.300781 Z M 277.382812 417.1875 C 278.003906 417.429688 278.628906 417.664062 279.253906 417.894531 L 279.023438 418.519531 C 278.394531 418.289062 277.765625 418.050781 277.140625 417.808594 Z M 281.136719 418.570312 C 281.765625 418.789062 282.398438 419.003906 283.03125 419.210938 L 282.820312 419.84375 C 282.183594 419.632812 281.550781 419.417969 280.917969 419.199219 Z M 284.933594 419.824219 C 285.570312 420.023438 286.207031 420.21875 286.84375 420.40625 L 286.65625 421.046875 C 286.011719 420.855469 285.371094 420.660156 284.734375 420.460938 Z M 288.765625 420.957031 C 289.40625 421.136719 290.050781 421.308594 290.699219 421.480469 L 290.527344 422.125 C 289.878906 421.953125 289.230469 421.78125 288.585938 421.601562 Z M 292.640625 421.96875 C 293.289062 422.125 293.9375 422.277344 294.589844 422.425781 L 294.441406 423.074219 C 293.789062 422.929688 293.132812 422.773438 292.480469 422.617188 Z M 296.542969 422.851562 C 297.191406 422.988281 297.84375 423.117188 298.5 423.242188 L 298.371094 423.898438 C 297.714844 423.773438 297.058594 423.640625 296.40625 423.503906 Z M 300.457031 423.605469 L 301.183594 423.730469 L 302.433594 423.925781 L 302.328125 424.585938 L 301.070312 424.386719 L 300.34375 424.261719 Z M 304.410156 424.210938 L 306.398438 424.464844 L 306.3125 425.128906 L 304.324219 424.875 Z M 308.378906 424.691406 L 310.375 424.894531 L 310.304688 425.554688 L 308.3125 425.355469 Z M 312.359375 425.070312 L 314.355469 425.226562 L 314.300781 425.890625 L 312.308594 425.734375 Z M 316.351562 425.367188 L 318.351562 425.492188 L 318.308594 426.160156 L 316.308594 426.035156 Z M 320.347656 425.609375 L 322.347656 425.714844 L 322.3125 426.378906 L 320.3125 426.273438 Z M 324.347656 425.8125 L 326.347656 425.910156 L 326.316406 426.574219 L 324.316406 426.480469 Z M 328.347656 426.003906 L 330.351562 426.101562 L 330.320312 426.769531 L 328.316406 426.671875 Z M 332.351562 426.199219 L 334.351562 426.292969 L 334.320312 426.960938 L 332.320312 426.863281 Z M 336.355469 426.390625 L 338.355469 426.488281 L 338.324219 427.152344 L 336.324219 427.058594 Z M 340.359375 426.582031 L 342.359375 426.679688 L 342.328125 427.347656 L 340.324219 427.25 Z M 344.359375 426.777344 L 346.363281 426.871094 L 346.328125 427.539062 L 344.328125 427.441406 Z M 348.363281 426.96875 L 350.363281 427.066406 L 350.332031 427.730469 L 348.332031 427.636719 Z M 352.367188 427.160156 L 354.367188 427.257812 L 354.335938 427.925781 L 352.332031 427.828125 Z M 356.367188 427.355469 L 358.371094 427.449219 L 358.339844 428.117188 L 356.335938 428.019531 Z M 360.371094 427.546875 L 362.371094 427.644531 L 362.339844 428.308594 L 360.339844 428.210938 Z M 364.375 427.738281 L 366.375 427.835938 L 366.34375 428.5 L 364.34375 428.40625 Z M 368.378906 427.933594 L 370.378906 428.027344 L 370.347656 428.695312 L 368.34375 428.597656 Z M 372.378906 428.125 L 374.382812 428.222656 L 374.347656 428.886719 L 372.347656 428.789062 Z M 376.382812 428.316406 L 378.382812 428.414062 L 378.351562 429.082031 L 376.351562 428.984375 Z M 380.386719 428.511719 L 382.175781 428.59375 L 382.386719 428.605469 L 382.355469 429.269531 L 382.144531 429.261719 L 380.351562 429.175781 Z M 384.386719 428.699219 L 385.285156 428.738281 L 386.390625 428.789062 L 386.359375 429.457031 L 385.253906 429.40625 L 384.355469 429.363281 Z M 388.390625 428.878906 L 389.191406 428.914062 L 390.390625 428.964844 L 390.363281 429.632812 L 389.160156 429.582031 L 388.359375 429.546875 Z M 392.394531 429.050781 L 394.394531 429.128906 L 394.367188 429.796875 L 392.367188 429.714844 Z M 396.394531 429.207031 L 398.398438 429.277344 L 398.375 429.945312 L 396.371094 429.871094 Z M 400.398438 429.34375 L 402.402344 429.40625 L 402.382812 430.074219 L 400.378906 430.011719 Z M 404.402344 429.460938 L 406.40625 429.511719 L 406.390625 430.179688 L 404.386719 430.128906 Z M 408.40625 429.558594 L 410.410156 429.59375 L 410.398438 430.261719 L 408.394531 430.222656 Z M 412.414062 429.625 L 414.058594 429.644531 L 414.414062 429.644531 L 414.410156 430.3125 L 414.050781 430.308594 L 412.40625 430.289062 Z M 416.417969 429.660156 L 416.589844 429.660156 L 418.417969 429.667969 L 418.417969 430.335938 L 416.585938 430.328125 L 416.414062 430.328125 Z M 420.417969 429.667969 L 422.421875 429.660156 L 422.421875 430.328125 L 420.421875 430.335938 Z M 424.421875 429.648438 L 426.421875 429.625 L 426.429688 430.289062 L 424.429688 430.3125 Z M 428.425781 429.59375 L 429.957031 429.5625 L 430.425781 429.554688 L 430.441406 430.21875 L 429.96875 430.230469 L 428.4375 430.257812 Z M 432.429688 429.507812 L 432.550781 429.503906 L 434.433594 429.449219 L 434.449219 430.117188 L 432.570312 430.167969 L 432.445312 430.171875 Z M 436.433594 429.386719 L 437.855469 429.339844 L 438.4375 429.316406 L 438.460938 429.984375 L 437.878906 430.003906 L 436.457031 430.054688 Z M 440.4375 429.238281 L 442.441406 429.152344 L 442.472656 429.816406 L 440.46875 429.90625 Z M 444.445312 429.058594 L 446.445312 428.953125 L 446.480469 429.621094 L 444.476562 429.722656 Z M 448.441406 428.84375 L 450.441406 428.726562 L 450.480469 429.390625 L 448.480469 429.511719 Z M 452.4375 428.597656 L 454.4375 428.464844 L 454.484375 429.128906 L 452.484375 429.265625 Z M 456.433594 428.324219 L 458.433594 428.171875 L 458.484375 428.839844 L 456.484375 428.988281 Z M 460.429688 428.015625 L 462.425781 427.847656 L 462.480469 428.515625 L 460.484375 428.679688 Z M 464.417969 427.675781 L 466.414062 427.492188 L 466.476562 428.15625 L 464.480469 428.339844 Z M 468.410156 427.304688 L 470.402344 427.105469 L 470.46875 427.769531 L 468.472656 427.96875 Z M 472.394531 426.902344 L 474.386719 426.6875 L 474.457031 427.351562 L 472.464844 427.5625 Z M 476.375 426.464844 L 478.367188 426.238281 L 478.445312 426.898438 L 476.453125 427.128906 Z M 480.355469 426 L 482.34375 425.753906 L 482.425781 426.417969 L 480.4375 426.664062 Z M 484.332031 425.503906 L 486.316406 425.242188 L 486.40625 425.902344 L 484.417969 426.164062 Z M 488.300781 424.972656 L 490.285156 424.699219 L 490.378906 425.359375 L 488.394531 425.632812 Z M 492.265625 424.414062 L 494.25 424.121094 L 494.347656 424.78125 L 492.363281 425.074219 Z M 496.226562 423.820312 L 498.207031 423.515625 L 498.308594 424.171875 L 496.332031 424.480469 Z M 500.183594 423.199219 L 502.160156 422.875 L 502.269531 423.535156 L 500.289062 423.855469 Z M 504.136719 422.542969 L 506.113281 422.203125 L 506.226562 422.863281 L 504.25 423.203125 Z M 508.085938 421.859375 L 510.058594 421.503906 L 510.175781 422.160156 L 508.203125 422.515625 Z M 512.027344 421.140625 L 513.996094 420.769531 L 514.121094 421.425781 L 512.152344 421.796875 Z M 515.960938 420.390625 L 517.929688 420.007812 L 518.058594 420.660156 L 516.089844 421.046875 Z M 519.890625 419.613281 L 521.851562 419.210938 L 521.988281 419.867188 L 520.023438 420.265625 Z M 523.8125 418.804688 L 524.074219 418.746094 L 525.769531 418.386719 L 525.910156 419.039062 L 524.214844 419.398438 L 523.949219 419.457031 Z M 527.722656 417.960938 L 529.675781 417.53125 L 529.820312 418.183594 L 527.867188 418.613281 Z M 531.605469 417.074219 C 532.261719 416.90625 532.902344 416.730469 533.523438 416.546875 L 533.714844 417.1875 C 533.085938 417.375 532.4375 417.550781 531.769531 417.722656 Z M 535.425781 415.941406 C 536.054688 415.726562 536.671875 415.496094 537.273438 415.257812 L 537.519531 415.875 C 536.910156 416.121094 536.285156 416.351562 535.640625 416.574219 Z M 539.105469 414.46875 C 539.710938 414.1875 540.300781 413.894531 540.875 413.589844 L 541.191406 414.179688 C 540.601562 414.492188 540.003906 414.789062 539.386719 415.074219 Z M 542.582031 412.617188 C 543.15625 412.269531 543.71875 411.90625 544.269531 411.523438 L 544.652344 412.070312 C 544.089844 412.460938 543.515625 412.832031 542.929688 413.1875 Z M 545.847656 410.363281 C 546.359375 409.960938 546.859375 409.546875 547.351562 409.113281 L 547.792969 409.617188 C 547.289062 410.054688 546.78125 410.480469 546.257812 410.886719 Z M 548.832031 407.738281 C 549.078125 407.496094 549.324219 407.246094 549.566406 406.996094 L 550.050781 407.457031 C 549.800781 407.714844 549.550781 407.964844 549.300781 408.214844 Z M 548.832031 407.738281 " fill-opacity="1" fill-rule="nonzero"/><path fill="#000000" d="M 262.609375 398.621094 C 263.175781 398.964844 263.75 399.300781 264.324219 399.632812 L 263.992188 400.210938 C 263.414062 399.875 262.835938 399.539062 262.265625 399.195312 Z M 266.0625 400.617188 C 266.644531 400.9375 267.226562 401.257812 267.816406 401.570312 L 267.5 402.160156 C 266.910156 401.84375 266.320312 401.523438 265.734375 401.199219 Z M 269.585938 402.5 C 270.179688 402.804688 270.777344 403.101562 271.375 403.398438 L 271.082031 403.996094 C 270.476562 403.699219 269.878906 403.398438 269.28125 403.09375 Z M 273.179688 404.269531 C 273.78125 404.550781 274.382812 404.832031 274.992188 405.105469 L 274.714844 405.714844 C 274.105469 405.4375 273.496094 405.15625 272.894531 404.871094 Z M 276.820312 405.914062 C 277.429688 406.179688 278.042969 406.4375 278.660156 406.691406 L 278.402344 407.308594 C 277.785156 407.054688 277.167969 406.792969 276.554688 406.527344 Z M 280.515625 407.441406 C 281.132812 407.683594 281.757812 407.925781 282.378906 408.15625 L 282.144531 408.78125 C 281.519531 408.546875 280.894531 408.304688 280.269531 408.058594 Z M 284.257812 408.84375 C 284.886719 409.070312 285.515625 409.285156 286.148438 409.5 L 285.933594 410.132812 C 285.300781 409.917969 284.667969 409.699219 284.035156 409.472656 Z M 288.046875 410.125 C 288.683594 410.328125 289.320312 410.523438 289.957031 410.71875 L 289.765625 411.355469 C 289.121094 411.164062 288.484375 410.964844 287.84375 410.761719 Z M 291.875 411.277344 C 292.515625 411.460938 293.15625 411.636719 293.800781 411.808594 L 293.628906 412.453125 C 292.980469 412.28125 292.335938 412.101562 291.691406 411.921875 Z M 295.738281 412.304688 C 296.386719 412.46875 297.035156 412.625 297.6875 412.773438 L 297.535156 413.421875 C 296.882812 413.273438 296.230469 413.117188 295.578125 412.953125 Z M 299.640625 413.207031 C 300.289062 413.347656 300.941406 413.480469 301.597656 413.609375 L 301.46875 414.261719 C 300.8125 414.132812 300.15625 414 299.5 413.859375 Z M 303.558594 413.976562 C 304.210938 414.09375 304.867188 414.207031 305.523438 414.3125 L 305.417969 414.972656 C 304.757812 414.863281 304.097656 414.753906 303.441406 414.632812 Z M 307.5 414.609375 L 309.488281 414.871094 L 309.398438 415.53125 L 307.410156 415.269531 Z M 311.46875 415.101562 L 313.460938 415.304688 L 313.394531 415.96875 L 311.402344 415.761719 Z M 315.449219 415.484375 L 317.445312 415.644531 L 317.390625 416.308594 L 315.394531 416.148438 Z M 319.4375 415.785156 L 321.4375 415.910156 L 321.394531 416.578125 L 319.394531 416.449219 Z M 323.433594 416.023438 L 324.023438 416.054688 L 325.433594 416.128906 L 325.402344 416.792969 L 323.988281 416.722656 L 323.398438 416.691406 Z M 327.433594 416.222656 L 329.4375 416.316406 L 329.40625 416.984375 L 327.402344 416.890625 Z M 331.4375 416.40625 L 333.4375 416.5 L 333.410156 417.164062 L 331.40625 417.074219 Z M 335.441406 416.589844 L 337.441406 416.679688 L 337.410156 417.347656 L 335.410156 417.253906 Z M 339.445312 416.769531 L 341.445312 416.863281 L 341.414062 417.527344 L 339.414062 417.4375 Z M 343.445312 416.953125 L 345.449219 417.042969 L 345.417969 417.710938 L 343.417969 417.617188 Z M 347.449219 417.132812 L 349.453125 417.226562 L 349.421875 417.890625 L 347.421875 417.800781 Z M 351.453125 417.316406 L 353.457031 417.40625 L 353.425781 418.074219 L 351.421875 417.980469 Z M 355.457031 417.496094 L 357.457031 417.589844 L 357.429688 418.253906 L 355.425781 418.164062 Z M 359.460938 417.679688 L 361.460938 417.769531 L 361.429688 418.4375 L 359.429688 418.34375 Z M 363.464844 417.859375 L 365.464844 417.953125 L 365.433594 418.617188 L 363.433594 418.527344 Z M 367.464844 418.042969 L 369.46875 418.132812 L 369.4375 418.800781 L 367.4375 418.707031 Z M 371.46875 418.222656 L 373.472656 418.316406 L 373.441406 418.980469 L 371.441406 418.890625 Z M 375.472656 418.40625 L 376.460938 418.449219 L 377.476562 418.496094 L 377.445312 419.164062 L 376.433594 419.117188 L 375.441406 419.070312 Z M 379.476562 418.585938 L 381.480469 418.675781 L 381.449219 419.34375 L 379.445312 419.253906 Z M 383.480469 418.765625 L 385.480469 418.855469 L 385.453125 419.519531 L 383.449219 419.433594 Z M 387.484375 418.941406 L 389.484375 419.023438 L 389.457031 419.691406 L 387.457031 419.605469 Z M 391.488281 419.105469 L 393.488281 419.183594 L 393.460938 419.847656 L 391.460938 419.773438 Z M 395.488281 419.257812 L 397.492188 419.328125 L 397.46875 419.996094 L 395.464844 419.925781 Z M 399.492188 419.394531 L 401.496094 419.457031 L 401.476562 420.125 L 399.472656 420.0625 Z M 403.5 419.511719 L 405.5 419.566406 L 405.484375 420.230469 L 403.480469 420.179688 Z M 407.503906 419.609375 L 409.503906 419.648438 L 409.492188 420.316406 L 407.488281 420.277344 Z M 411.507812 419.683594 L 413.511719 419.707031 L 413.5 420.375 L 411.496094 420.351562 Z M 415.511719 419.726562 L 415.921875 419.730469 L 417.511719 419.738281 L 417.507812 420.402344 L 415.917969 420.398438 L 415.507812 420.394531 Z M 419.511719 419.738281 L 421.515625 419.730469 L 421.515625 420.398438 L 419.515625 420.40625 Z M 423.515625 419.714844 L 425.515625 419.695312 L 425.523438 420.359375 L 423.523438 420.382812 Z M 427.519531 419.664062 L 429.523438 419.625 L 429.535156 420.292969 L 427.53125 420.328125 Z M 431.523438 419.578125 L 433.527344 419.523438 L 433.542969 420.191406 L 431.539062 420.246094 Z M 435.527344 419.460938 L 437.53125 419.390625 L 437.554688 420.058594 L 435.550781 420.128906 Z M 439.53125 419.3125 L 441.535156 419.226562 L 441.566406 419.894531 L 439.5625 419.980469 Z M 443.535156 419.132812 L 445.539062 419.03125 L 445.570312 419.695312 L 443.570312 419.800781 Z M 447.535156 418.921875 L 448.15625 418.886719 L 449.535156 418.804688 L 449.574219 419.46875 L 448.195312 419.550781 L 447.574219 419.585938 Z M 451.53125 418.679688 L 453.53125 418.542969 L 453.574219 419.210938 L 451.578125 419.34375 Z M 455.527344 418.402344 L 457.527344 418.253906 L 457.574219 418.917969 L 455.578125 419.070312 Z M 459.523438 418.097656 L 461.519531 417.933594 L 461.574219 418.597656 L 459.578125 418.761719 Z M 463.511719 417.757812 L 465.507812 417.578125 L 465.570312 418.242188 L 463.574219 418.421875 Z M 467.503906 417.390625 L 469.496094 417.191406 L 469.5625 417.855469 L 467.566406 418.054688 Z M 471.488281 416.988281 L 473.480469 416.777344 L 473.550781 417.4375 L 471.558594 417.652344 Z M 475.472656 416.554688 L 476.660156 416.421875 L 477.460938 416.328125 L 477.539062 416.988281 L 476.738281 417.082031 L 475.546875 417.21875 Z M 479.449219 416.089844 L 481.4375 415.847656 L 481.519531 416.511719 L 479.53125 416.753906 Z M 483.425781 415.597656 L 485.410156 415.335938 L 485.5 415.996094 L 483.511719 416.257812 Z M 487.394531 415.070312 L 489.378906 414.792969 L 489.472656 415.453125 L 487.488281 415.730469 Z M 491.359375 414.511719 L 493.34375 414.21875 L 493.441406 414.878906 L 491.457031 415.171875 Z M 495.320312 413.921875 L 497.300781 413.617188 L 497.402344 414.273438 L 495.421875 414.582031 Z M 499.277344 413.300781 L 501.257812 412.980469 L 501.367188 413.636719 L 499.386719 413.960938 Z M 503.234375 412.648438 L 505.210938 412.308594 L 505.320312 412.96875 L 503.347656 413.304688 Z M 507.183594 411.964844 L 508.597656 411.710938 L 509.152344 411.613281 L 509.273438 412.269531 L 508.714844 412.367188 L 507.300781 412.621094 Z M 511.125 411.25 L 512.003906 411.085938 L 513.09375 410.882812 L 513.214844 411.535156 L 512.125 411.742188 L 511.246094 411.90625 Z M 515.058594 410.503906 L 517.023438 410.121094 L 517.152344 410.773438 L 515.1875 411.160156 Z M 518.984375 409.730469 L 520.5 409.421875 L 520.945312 409.328125 L 521.082031 409.980469 L 520.632812 410.074219 L 519.117188 410.382812 Z M 522.902344 408.921875 L 524.113281 408.667969 L 524.851562 408.503906 L 524.996094 409.15625 L 524.25 409.320312 L 523.042969 409.574219 Z M 526.78125 408.035156 C 527.441406 407.859375 528.082031 407.679688 528.703125 407.488281 L 528.902344 408.125 C 528.269531 408.316406 527.621094 408.503906 526.949219 408.679688 Z M 530.574219 406.863281 C 531.207031 406.632812 531.824219 406.394531 532.425781 406.140625 L 532.6875 406.753906 C 532.074219 407.011719 531.445312 407.257812 530.804688 407.488281 Z M 534.242188 405.316406 C 534.832031 405.027344 535.410156 404.722656 535.972656 404.40625 L 536.300781 404.984375 C 535.726562 405.3125 535.136719 405.621094 534.535156 405.914062 Z M 537.683594 403.371094 C 538.234375 403.011719 538.773438 402.640625 539.304688 402.25 L 539.703125 402.785156 C 539.160156 403.183594 538.609375 403.566406 538.046875 403.929688 Z M 540.839844 401.039062 C 541.351562 400.609375 541.855469 400.164062 542.347656 399.699219 L 542.808594 400.183594 C 542.304688 400.65625 541.792969 401.113281 541.269531 401.550781 Z M 540.839844 401.039062 " fill-opacity="1" fill-rule="nonzero"/><path fill="#000000" d="M 268.921875 390.804688 C 269.496094 391.132812 270.074219 391.460938 270.65625 391.78125 L 270.332031 392.363281 C 269.75 392.042969 269.167969 391.714844 268.585938 391.378906 Z M 272.410156 392.730469 C 273 393.042969 273.589844 393.351562 274.183594 393.65625 L 273.878906 394.25 C 273.28125 393.945312 272.6875 393.636719 272.097656 393.320312 Z M 275.972656 394.546875 C 276.574219 394.839844 277.175781 395.128906 277.78125 395.410156 L 277.496094 396.015625 C 276.890625 395.730469 276.285156 395.441406 275.679688 395.148438 Z M 279.597656 396.242188 C 280.207031 396.515625 280.816406 396.78125 281.425781 397.042969 L 281.164062 397.65625 C 280.550781 397.394531 279.9375 397.125 279.324219 396.851562 Z M 283.269531 397.8125 C 283.886719 398.0625 284.507812 398.308594 285.128906 398.550781 L 284.886719 399.171875 C 284.261719 398.929688 283.636719 398.683594 283.019531 398.429688 Z M 287 399.257812 C 287.625 399.488281 288.253906 399.714844 288.882812 399.933594 L 288.660156 400.5625 C 288.027344 400.34375 287.398438 400.117188 286.769531 399.882812 Z M 290.773438 400.578125 C 291.40625 400.785156 292.042969 400.992188 292.679688 401.1875 L 292.480469 401.824219 C 291.839844 401.625 291.199219 401.421875 290.566406 401.210938 Z M 294.589844 401.769531 C 295.230469 401.957031 295.871094 402.136719 296.511719 402.316406 L 296.335938 402.957031 C 295.691406 402.78125 295.046875 402.597656 294.402344 402.410156 Z M 298.445312 402.828125 C 299.089844 402.996094 299.738281 403.15625 300.386719 403.3125 L 300.230469 403.960938 C 299.578125 403.804688 298.929688 403.640625 298.277344 403.476562 Z M 302.335938 403.761719 C 302.988281 403.90625 303.640625 404.042969 304.292969 404.175781 L 304.160156 404.832031 C 303.503906 404.695312 302.847656 404.558594 302.191406 404.410156 Z M 306.253906 404.558594 C 306.910156 404.679688 307.5625 404.796875 308.21875 404.910156 L 308.109375 405.566406 C 307.449219 405.453125 306.789062 405.335938 306.132812 405.214844 Z M 310.183594 405.222656 L 312.171875 405.496094 L 312.078125 406.160156 L 310.09375 405.882812 Z M 314.152344 405.738281 L 316.144531 405.953125 L 316.074219 406.617188 L 314.082031 406.402344 Z M 318.128906 406.140625 L 320.125 406.300781 L 320.070312 406.96875 L 318.074219 406.804688 Z M 322.117188 406.445312 L 323.117188 406.511719 L 324.117188 406.574219 L 324.074219 407.238281 L 322.074219 407.113281 Z M 326.113281 406.6875 L 328.113281 406.789062 L 328.082031 407.453125 L 326.078125 407.351562 Z M 330.113281 406.882812 L 332.117188 406.972656 L 332.085938 407.636719 L 330.085938 407.546875 Z M 334.117188 407.058594 L 336.121094 407.148438 L 336.089844 407.8125 L 334.089844 407.726562 Z M 338.121094 407.234375 L 340.125 407.320312 L 340.09375 407.988281 L 338.09375 407.902344 Z M 342.125 407.410156 L 344.125 407.496094 L 344.097656 408.164062 L 342.09375 408.074219 Z M 346.128906 407.585938 L 348.128906 407.671875 L 348.101562 408.339844 L 346.097656 408.25 Z M 350.132812 407.757812 L 352.132812 407.847656 L 352.105469 408.511719 L 350.101562 408.425781 Z M 354.136719 407.933594 L 356.136719 408.023438 L 356.109375 408.6875 L 354.105469 408.601562 Z M 358.140625 408.109375 L 360.140625 408.195312 L 360.113281 408.863281 L 358.109375 408.777344 Z M 362.144531 408.285156 L 364.144531 408.371094 L 364.117188 409.039062 L 362.113281 408.949219 Z M 366.144531 408.460938 L 368.148438 408.546875 L 368.117188 409.214844 L 366.117188 409.125 Z M 370.148438 408.632812 L 372.152344 408.722656 L 372.121094 409.386719 L 370.121094 409.300781 Z M 374.152344 408.808594 L 376.15625 408.898438 L 376.125 409.5625 L 374.125 409.476562 Z M 378.15625 408.984375 L 380.160156 409.070312 L 380.128906 409.738281 L 378.128906 409.652344 Z M 382.160156 409.160156 L 384.164062 409.246094 L 384.132812 409.910156 L 382.132812 409.824219 Z M 386.164062 409.328125 L 388.167969 409.410156 L 388.140625 410.078125 L 386.136719 409.996094 Z M 390.167969 409.492188 L 391.945312 409.558594 L 392.171875 409.566406 L 392.144531 410.234375 L 391.917969 410.226562 L 390.140625 410.15625 Z M 394.171875 409.640625 L 396.175781 409.710938 L 396.152344 410.378906 L 394.148438 410.308594 Z M 398.175781 409.777344 L 399.378906 409.816406 L 400.179688 409.839844 L 400.160156 410.507812 L 399.355469 410.480469 L 398.15625 410.445312 Z M 402.179688 409.894531 L 404.183594 409.949219 L 404.164062 410.613281 L 402.164062 410.5625 Z M 406.183594 409.992188 L 408.082031 410.03125 L 408.1875 410.03125 L 408.175781 410.699219 L 408.070312 410.699219 L 406.171875 410.660156 Z M 410.1875 410.066406 L 411.652344 410.085938 L 412.191406 410.089844 L 412.183594 410.757812 L 411.644531 410.75 L 410.179688 410.730469 Z M 414.195312 410.109375 L 414.832031 410.113281 L 416.195312 410.117188 L 416.191406 410.785156 L 414.828125 410.78125 L 414.191406 410.777344 Z M 418.195312 410.121094 L 420.199219 410.113281 L 420.199219 410.78125 L 418.199219 410.789062 Z M 422.199219 410.097656 L 424.203125 410.078125 L 424.207031 410.742188 L 422.207031 410.765625 Z M 426.203125 410.046875 L 427.796875 410.015625 L 428.207031 410.007812 L 428.21875 410.675781 L 427.808594 410.683594 L 426.214844 410.714844 Z M 430.207031 409.960938 L 432.210938 409.90625 L 432.230469 410.574219 L 430.226562 410.628906 Z M 434.210938 409.84375 L 435.167969 409.8125 L 436.214844 409.773438 L 436.238281 410.441406 L 435.191406 410.476562 L 434.234375 410.511719 Z M 438.214844 409.695312 L 440.21875 409.609375 L 440.25 410.273438 L 438.246094 410.363281 Z M 442.21875 409.515625 L 444.21875 409.410156 L 444.253906 410.078125 L 442.253906 410.179688 Z M 446.21875 409.300781 L 448.21875 409.183594 L 448.257812 409.847656 L 446.257812 409.96875 Z M 450.214844 409.054688 L 450.351562 409.046875 L 452.214844 408.921875 L 452.257812 409.585938 L 450.394531 409.714844 L 450.257812 409.722656 Z M 454.210938 408.78125 L 456.207031 408.628906 L 456.257812 409.292969 L 454.261719 409.445312 Z M 458.203125 408.46875 L 460.203125 408.304688 L 460.257812 408.96875 L 458.257812 409.136719 Z M 462.195312 408.128906 L 464.191406 407.945312 L 464.253906 408.609375 L 462.257812 408.792969 Z M 466.183594 407.757812 L 468.179688 407.558594 L 468.246094 408.222656 L 466.25 408.421875 Z M 470.167969 407.351562 L 472.164062 407.136719 L 472.234375 407.800781 L 470.242188 408.015625 Z M 474.152344 406.914062 L 476.140625 406.683594 L 476.21875 407.347656 L 474.226562 407.578125 Z M 478.128906 406.445312 L 480.117188 406.199219 L 480.199219 406.863281 L 478.210938 407.109375 Z M 482.105469 405.945312 L 484.089844 405.683594 L 484.175781 406.347656 L 482.191406 406.609375 Z M 486.074219 405.414062 L 488.058594 405.136719 L 488.148438 405.796875 L 486.164062 406.074219 Z M 490.039062 404.851562 L 492.019531 404.558594 L 492.117188 405.21875 L 490.136719 405.511719 Z M 494 404.257812 L 495.980469 403.945312 L 496.082031 404.605469 L 494.101562 404.914062 Z M 497.957031 403.628906 L 499.933594 403.300781 L 500.042969 403.960938 L 498.066406 404.285156 Z M 501.910156 402.96875 L 503.882812 402.628906 L 503.996094 403.285156 L 502.023438 403.625 Z M 505.855469 402.277344 L 507.824219 401.921875 L 507.945312 402.578125 L 505.972656 402.933594 Z M 509.792969 401.558594 L 511.761719 401.183594 L 511.886719 401.839844 L 509.917969 402.210938 Z M 513.726562 400.804688 L 515.6875 400.414062 L 515.820312 401.070312 L 513.855469 401.457031 Z M 517.648438 400.019531 L 517.800781 399.988281 C 518.417969 399.863281 519.011719 399.734375 519.585938 399.597656 L 519.738281 400.246094 C 519.160156 400.382812 518.558594 400.515625 517.9375 400.640625 L 517.78125 400.671875 Z M 521.515625 399.101562 C 522.167969 398.921875 522.800781 398.726562 523.417969 398.523438 L 523.625 399.15625 C 523 399.363281 522.359375 399.558594 521.695312 399.746094 Z M 525.28125 397.855469 C 525.910156 397.609375 526.523438 397.351562 527.125 397.078125 L 527.402344 397.683594 C 526.792969 397.964844 526.164062 398.226562 525.523438 398.476562 Z M 528.875 396.210938 C 529.464844 395.898438 530.042969 395.566406 530.605469 395.21875 L 530.957031 395.789062 C 530.382812 396.140625 529.792969 396.480469 529.191406 396.800781 Z M 532.25 394.128906 C 532.78125 393.753906 533.300781 393.359375 533.808594 392.945312 L 534.226562 393.464844 C 533.710938 393.886719 533.179688 394.289062 532.636719 394.671875 Z M 535.335938 391.625 C 535.46875 391.5 535.601562 391.375 535.730469 391.25 L 536.195312 391.734375 C 536.058594 391.863281 535.925781 391.988281 535.789062 392.113281 Z M 535.335938 391.625 " fill-opacity="1" fill-rule="nonzero"/><path fill="#000000" d="M 276.144531 383.296875 C 276.714844 383.636719 277.289062 383.972656 277.863281 384.300781 L 277.53125 384.878906 C 276.953125 384.546875 276.375 384.210938 275.804688 383.867188 Z M 279.605469 385.277344 C 280.1875 385.597656 280.773438 385.914062 281.363281 386.222656 L 281.054688 386.8125 C 280.460938 386.5 279.871094 386.183594 279.28125 385.863281 Z M 283.144531 387.136719 C 283.742188 387.4375 284.339844 387.730469 284.941406 388.019531 L 284.652344 388.621094 C 284.046875 388.332031 283.445312 388.035156 282.84375 387.734375 Z M 286.75 388.867188 C 287.355469 389.144531 287.960938 389.417969 288.574219 389.683594 L 288.304688 390.292969 C 287.691406 390.027344 287.082031 389.753906 286.472656 389.472656 Z M 290.410156 390.464844 C 291.027344 390.71875 291.644531 390.96875 292.265625 391.210938 L 292.019531 391.832031 C 291.398438 391.589844 290.777344 391.335938 290.15625 391.082031 Z M 294.132812 391.925781 C 294.757812 392.160156 295.382812 392.386719 296.011719 392.609375 L 295.789062 393.238281 C 295.15625 393.015625 294.527344 392.785156 293.898438 392.550781 Z M 297.902344 393.253906 C 298.535156 393.464844 299.171875 393.667969 299.808594 393.867188 L 299.609375 394.503906 C 298.96875 394.304688 298.332031 394.097656 297.695312 393.886719 Z M 301.71875 394.441406 C 302.359375 394.628906 303 394.808594 303.640625 394.984375 L 303.464844 395.628906 C 302.820312 395.453125 302.175781 395.269531 301.53125 395.082031 Z M 305.574219 395.492188 C 306.222656 395.65625 306.871094 395.8125 307.519531 395.964844 L 307.371094 396.613281 C 306.714844 396.460938 306.0625 396.304688 305.410156 396.136719 Z M 309.472656 396.402344 C 310.125 396.539062 310.777344 396.675781 311.429688 396.800781 L 311.304688 397.457031 C 310.648438 397.328125 309.992188 397.195312 309.332031 397.054688 Z M 313.394531 397.167969 C 313.972656 397.269531 314.550781 397.367188 315.132812 397.457031 L 315.359375 397.492188 L 315.257812 398.152344 L 315.027344 398.117188 C 314.441406 398.023438 313.859375 397.925781 313.277344 397.824219 Z M 317.335938 397.773438 L 319.324219 398.023438 L 319.242188 398.683594 L 317.253906 398.4375 Z M 321.308594 398.238281 L 323.300781 398.429688 L 323.238281 399.089844 L 321.246094 398.902344 Z M 325.289062 398.59375 L 327.289062 398.734375 L 327.242188 399.402344 L 325.242188 399.257812 Z M 329.285156 398.863281 L 331.285156 398.972656 L 331.25 399.640625 L 329.246094 399.527344 Z M 333.285156 399.074219 L 335.285156 399.171875 L 335.253906 399.835938 L 333.253906 399.742188 Z M 337.28125 399.261719 L 339.285156 399.351562 L 339.253906 400.019531 L 337.253906 399.929688 Z M 341.285156 399.445312 L 343.289062 399.535156 L 343.257812 400.199219 L 341.257812 400.109375 Z M 345.289062 399.625 L 347.292969 399.714844 L 347.261719 400.382812 L 345.257812 400.289062 Z M 349.292969 399.804688 L 351.292969 399.898438 L 351.265625 400.5625 L 349.261719 400.472656 Z M 353.296875 399.988281 L 355.296875 400.078125 L 355.269531 400.742188 L 353.265625 400.652344 Z M 357.300781 400.167969 L 359.300781 400.257812 L 359.269531 400.925781 L 357.269531 400.835938 Z M 361.304688 400.347656 L 363.304688 400.441406 L 363.273438 401.105469 L 361.273438 401.015625 Z M 365.304688 400.53125 L 367.308594 400.621094 L 367.277344 401.289062 L 365.277344 401.195312 Z M 369.308594 400.710938 L 371.3125 400.800781 L 371.28125 401.46875 L 369.28125 401.378906 Z M 373.3125 400.894531 L 375.316406 400.984375 L 375.285156 401.648438 L 373.28125 401.558594 Z M 377.316406 401.074219 L 378.980469 401.148438 L 379.316406 401.164062 L 379.289062 401.832031 L 378.949219 401.816406 L 377.285156 401.742188 Z M 381.320312 401.257812 L 383.324219 401.347656 L 383.292969 402.011719 L 381.289062 401.921875 Z M 385.324219 401.433594 L 387.328125 401.523438 L 387.296875 402.1875 L 385.296875 402.101562 Z M 389.328125 401.605469 L 391.332031 401.691406 L 391.304688 402.355469 L 389.300781 402.273438 Z M 393.332031 401.769531 L 395.335938 401.84375 L 395.308594 402.511719 L 393.308594 402.4375 Z M 397.335938 401.917969 L 399.339844 401.984375 L 399.316406 402.652344 L 397.3125 402.582031 Z M 401.339844 402.046875 L 401.996094 402.066406 L 403.339844 402.101562 L 403.324219 402.769531 L 401.976562 402.730469 L 401.320312 402.710938 Z M 405.34375 402.152344 L 406.507812 402.179688 L 407.34375 402.199219 L 407.332031 402.863281 L 406.492188 402.847656 L 405.328125 402.820312 Z M 409.347656 402.234375 L 411.347656 402.265625 L 411.339844 402.933594 L 409.335938 402.902344 Z M 413.351562 402.285156 L 414.632812 402.296875 L 415.351562 402.300781 L 415.347656 402.96875 L 414.628906 402.964844 L 413.34375 402.953125 Z M 417.351562 402.304688 L 419.355469 402.300781 L 419.355469 402.964844 L 417.351562 402.972656 Z M 421.355469 402.285156 L 423.355469 402.261719 L 423.363281 402.929688 L 421.363281 402.953125 Z M 425.359375 402.234375 L 427.359375 402.191406 L 427.375 402.859375 L 425.371094 402.898438 Z M 429.363281 402.144531 L 431.367188 402.085938 L 431.386719 402.753906 L 429.382812 402.8125 Z M 433.367188 402.019531 L 435.371094 401.945312 L 435.394531 402.613281 L 433.390625 402.6875 Z M 437.371094 401.863281 L 439.375 401.769531 L 439.40625 402.4375 L 437.402344 402.53125 Z M 441.371094 401.671875 L 443.371094 401.558594 L 443.410156 402.226562 L 441.410156 402.335938 Z M 445.371094 401.441406 L 447.371094 401.316406 L 447.410156 401.980469 L 445.414062 402.109375 Z M 449.367188 401.179688 L 451.363281 401.035156 L 451.414062 401.699219 L 449.414062 401.84375 Z M 453.359375 400.882812 L 455.355469 400.71875 L 455.410156 401.382812 L 453.414062 401.546875 Z M 457.351562 400.546875 L 457.402344 400.542969 L 459.347656 400.371094 L 459.40625 401.035156 L 457.460938 401.207031 L 457.410156 401.214844 Z M 461.339844 400.179688 L 463.335938 399.984375 L 463.402344 400.648438 L 461.40625 400.84375 Z M 465.324219 399.777344 L 467.320312 399.566406 L 467.390625 400.226562 L 465.398438 400.441406 Z M 469.308594 399.339844 L 471.296875 399.109375 L 471.375 399.773438 L 469.386719 400.003906 Z M 473.285156 398.871094 L 473.820312 398.804688 L 475.273438 398.621094 L 475.359375 399.28125 L 473.902344 399.464844 L 473.367188 399.53125 Z M 477.257812 398.363281 L 479.246094 398.097656 L 479.332031 398.757812 L 477.347656 399.023438 Z M 481.226562 397.820312 L 483.210938 397.539062 L 483.304688 398.199219 L 481.320312 398.480469 Z M 485.1875 397.246094 L 487.167969 396.945312 L 487.269531 397.605469 L 485.289062 397.90625 Z M 489.148438 396.636719 L 491.125 396.316406 L 491.234375 396.976562 L 489.253906 397.292969 Z M 493.101562 395.992188 L 495.078125 395.65625 L 495.191406 396.3125 L 493.214844 396.648438 Z M 497.050781 395.308594 L 499.023438 394.957031 L 499.140625 395.613281 L 497.167969 395.96875 Z M 500.992188 394.597656 L 502.960938 394.226562 L 503.085938 394.882812 L 501.117188 395.25 Z M 504.925781 393.847656 L 506.890625 393.460938 L 507.019531 394.117188 L 505.054688 394.503906 Z M 508.851562 393.066406 L 510.8125 392.660156 L 510.945312 393.316406 L 508.984375 393.71875 Z M 512.761719 392.25 C 513.429688 392.105469 514.074219 391.953125 514.691406 391.792969 L 514.859375 392.4375 C 514.234375 392.597656 513.582031 392.753906 512.90625 392.902344 Z M 516.617188 391.246094 C 517.257812 391.046875 517.878906 390.839844 518.484375 390.617188 L 518.714844 391.242188 C 518.097656 391.46875 517.464844 391.683594 516.8125 391.882812 Z M 520.332031 389.875 C 520.9375 389.609375 521.53125 389.328125 522.113281 389.03125 L 522.417969 389.625 C 521.824219 389.929688 521.21875 390.214844 520.597656 390.488281 Z M 523.835938 388.074219 C 524.410156 387.726562 524.972656 387.363281 525.519531 386.980469 L 525.902344 387.527344 C 525.34375 387.917969 524.769531 388.292969 524.179688 388.644531 Z M 527.066406 385.824219 C 527.582031 385.40625 528.089844 384.972656 528.582031 384.519531 L 529.035156 385.011719 C 528.53125 385.472656 528.011719 385.917969 527.484375 386.34375 Z M 527.066406 385.824219 " fill-opacity="1" fill-rule="nonzero"/><path fill="#000000" d="M 282.429688 376.070312 C 283.015625 376.382812 283.605469 376.691406 284.195312 376.992188 L 283.894531 377.585938 C 283.296875 377.285156 282.707031 376.972656 282.117188 376.660156 Z M 285.984375 377.882812 C 286.582031 378.175781 287.179688 378.464844 287.785156 378.746094 L 287.503906 379.351562 C 286.894531 379.066406 286.289062 378.777344 285.6875 378.484375 Z M 289.605469 379.574219 C 290.214844 379.847656 290.828125 380.113281 291.441406 380.375 L 291.179688 380.988281 C 290.5625 380.726562 289.945312 380.457031 289.332031 380.183594 Z M 293.285156 381.136719 C 293.902344 381.386719 294.523438 381.628906 295.144531 381.867188 L 294.90625 382.492188 C 294.28125 382.25 293.65625 382.007812 293.035156 381.753906 Z M 297.015625 382.566406 C 297.644531 382.792969 298.273438 383.015625 298.902344 383.234375 L 298.683594 383.863281 C 298.050781 383.644531 297.417969 383.421875 296.789062 383.195312 Z M 300.800781 383.867188 C 301.433594 384.070312 302.066406 384.269531 302.707031 384.464844 L 302.511719 385.101562 C 301.871094 384.90625 301.230469 384.707031 300.59375 384.5 Z M 304.625 385.03125 C 305.265625 385.210938 305.90625 385.386719 306.550781 385.558594 L 306.378906 386.203125 C 305.730469 386.03125 305.085938 385.855469 304.441406 385.671875 Z M 308.484375 386.058594 C 309.132812 386.21875 309.78125 386.371094 310.429688 386.519531 L 310.28125 387.167969 C 309.628906 387.019531 308.976562 386.867188 308.324219 386.703125 Z M 312.382812 386.949219 C 313.039062 387.085938 313.691406 387.21875 314.34375 387.34375 L 314.21875 387.996094 C 313.5625 387.871094 312.90625 387.738281 312.246094 387.601562 Z M 316.3125 387.703125 C 316.964844 387.816406 317.621094 387.921875 318.28125 388.023438 L 318.179688 388.683594 C 317.515625 388.582031 316.855469 388.472656 316.195312 388.359375 Z M 320.25 388.3125 L 322.242188 388.5625 L 322.15625 389.222656 L 320.167969 388.972656 Z M 324.222656 388.777344 L 326.21875 388.96875 L 326.15625 389.632812 L 324.160156 389.441406 Z M 328.207031 389.128906 L 328.515625 389.152344 L 330.203125 389.269531 L 330.15625 389.9375 L 328.464844 389.816406 L 328.15625 389.792969 Z M 332.199219 389.390625 L 334.199219 389.5 L 334.164062 390.164062 L 332.164062 390.058594 Z M 336.199219 389.59375 L 338.199219 389.683594 L 338.171875 390.347656 L 336.167969 390.261719 Z M 340.199219 389.765625 L 340.863281 389.792969 L 342.203125 389.847656 L 342.175781 390.511719 L 340.835938 390.457031 L 340.175781 390.429688 Z M 344.207031 389.925781 L 346.207031 390.007812 L 346.179688 390.675781 L 344.179688 390.59375 Z M 348.210938 390.089844 L 350.210938 390.171875 L 350.183594 390.835938 L 348.183594 390.757812 Z M 352.214844 390.253906 L 354.214844 390.332031 L 354.1875 391 L 352.1875 390.917969 Z M 356.21875 390.414062 L 358.21875 390.496094 L 358.191406 391.164062 L 356.191406 391.082031 Z M 360.222656 390.578125 L 362.222656 390.660156 L 362.195312 391.324219 L 360.195312 391.246094 Z M 364.226562 390.742188 L 366.226562 390.820312 L 366.199219 391.488281 L 364.199219 391.40625 Z M 368.230469 390.902344 L 370.230469 390.984375 L 370.203125 391.652344 L 368.203125 391.570312 Z M 372.234375 391.066406 L 374.234375 391.148438 L 374.207031 391.8125 L 372.207031 391.730469 Z M 376.238281 391.226562 L 378.238281 391.308594 L 378.214844 391.976562 L 376.210938 391.894531 Z M 380.242188 391.390625 L 380.9375 391.417969 L 382.242188 391.472656 L 382.214844 392.136719 L 380.910156 392.085938 L 380.214844 392.058594 Z M 384.242188 391.550781 L 386.242188 391.632812 L 386.214844 392.296875 L 384.214844 392.21875 Z M 388.242188 391.710938 L 390.242188 391.789062 L 390.214844 392.453125 L 388.214844 392.378906 Z M 392.242188 391.863281 L 394.246094 391.933594 L 394.222656 392.601562 L 392.21875 392.527344 Z M 396.25 392.003906 L 398.253906 392.066406 L 398.230469 392.734375 L 396.226562 392.667969 Z M 400.253906 392.128906 L 402.257812 392.183594 L 402.242188 392.851562 L 400.238281 392.792969 Z M 404.261719 392.234375 L 406.265625 392.28125 L 406.253906 392.945312 L 404.246094 392.902344 Z M 408.269531 392.320312 L 410.273438 392.351562 L 410.261719 393.019531 L 408.257812 392.984375 Z M 412.277344 392.375 L 414.28125 392.394531 L 414.273438 393.0625 L 412.269531 393.042969 Z M 416.28125 392.402344 L 418.28125 392.40625 L 418.28125 393.070312 L 416.28125 393.070312 Z M 420.28125 392.398438 L 422.285156 392.382812 L 422.289062 393.050781 L 420.289062 393.066406 Z M 424.285156 392.359375 L 426.289062 392.328125 L 426.300781 392.996094 L 424.296875 393.027344 Z M 428.289062 392.289062 L 430.292969 392.238281 L 430.308594 392.90625 L 428.304688 392.953125 Z M 432.296875 392.183594 L 434.300781 392.117188 L 434.320312 392.785156 L 432.316406 392.847656 Z M 436.300781 392.046875 L 436.753906 392.027344 L 438.304688 391.964844 L 438.332031 392.628906 L 436.78125 392.695312 L 436.328125 392.710938 Z M 440.300781 391.875 L 442.304688 391.777344 L 442.335938 392.445312 L 440.335938 392.542969 Z M 444.300781 391.671875 L 446.300781 391.558594 L 446.339844 392.222656 L 444.339844 392.339844 Z M 448.300781 391.4375 L 450.300781 391.304688 L 450.34375 391.972656 L 448.34375 392.101562 Z M 452.296875 391.167969 L 454.292969 391.019531 L 454.34375 391.6875 L 452.34375 391.832031 Z M 456.289062 390.867188 L 458.289062 390.703125 L 458.339844 391.367188 L 456.34375 391.53125 Z M 460.28125 390.53125 L 461.695312 390.40625 L 462.277344 390.351562 L 462.339844 391.015625 L 461.753906 391.070312 L 460.339844 391.195312 Z M 464.269531 390.164062 L 466.265625 389.96875 L 466.332031 390.632812 L 464.335938 390.828125 Z M 468.257812 389.765625 L 469.8125 389.601562 L 470.25 389.554688 L 470.320312 390.214844 L 469.882812 390.265625 L 468.328125 390.429688 Z M 472.238281 389.332031 L 474.230469 389.105469 L 474.304688 389.765625 L 472.3125 389.996094 Z M 476.214844 388.867188 L 478.203125 388.625 L 478.285156 389.285156 L 476.296875 389.53125 Z M 480.191406 388.371094 L 482.175781 388.109375 L 482.261719 388.769531 L 480.277344 389.03125 Z M 484.160156 387.839844 L 486.144531 387.5625 L 486.234375 388.222656 L 484.25 388.5 Z M 488.125 387.277344 L 490.109375 386.984375 L 490.207031 387.644531 L 488.222656 387.9375 Z M 492.085938 386.683594 L 494.066406 386.371094 L 494.171875 387.03125 L 492.191406 387.339844 Z M 496.042969 386.054688 L 498.019531 385.726562 L 498.128906 386.386719 L 496.152344 386.710938 Z M 499.996094 385.394531 L 500.875 385.242188 L 501.96875 385.050781 L 502.082031 385.710938 L 500.988281 385.898438 L 500.109375 386.050781 Z M 503.9375 384.703125 L 505.90625 384.34375 L 506.027344 385 L 504.058594 385.359375 Z M 507.875 383.976562 L 508.628906 383.835938 C 509.039062 383.757812 509.4375 383.675781 509.824219 383.59375 L 509.964844 384.246094 C 509.570312 384.332031 509.167969 384.410156 508.753906 384.488281 L 507.996094 384.632812 Z M 511.765625 383.144531 C 512.421875 382.976562 513.0625 382.800781 513.679688 382.609375 L 513.875 383.25 C 513.246094 383.441406 512.597656 383.621094 511.929688 383.792969 Z M 515.554688 381.980469 C 516.1875 381.746094 516.804688 381.5 517.402344 381.238281 L 517.671875 381.847656 C 517.058594 382.117188 516.433594 382.367188 515.785156 382.605469 Z M 519.175781 380.390625 C 519.773438 380.082031 520.355469 379.753906 520.921875 379.40625 L 521.269531 379.976562 C 520.691406 380.332031 520.09375 380.667969 519.484375 380.984375 Z M 522.542969 378.339844 C 523.082031 377.957031 523.609375 377.550781 524.125 377.128906 L 524.550781 377.644531 C 524.023438 378.078125 523.484375 378.492188 522.929688 378.882812 Z M 522.542969 378.339844 " fill-opacity="1" fill-rule="nonzero"/><path fill="#000000" d="M 311.835938 265.128906 C 312.460938 265.285156 313.109375 265.425781 313.773438 265.554688 L 313.648438 266.210938 C 312.96875 266.078125 312.3125 265.933594 311.671875 265.777344 Z M 315.734375 265.886719 C 316.371094 265.980469 317.027344 266.0625 317.714844 266.140625 L 317.640625 266.800781 C 316.949219 266.726562 316.28125 266.640625 315.636719 266.546875 Z M 319.699219 266.328125 C 320.324219 266.378906 320.992188 266.425781 321.695312 266.464844 L 321.652344 267.132812 C 320.945312 267.089844 320.277344 267.042969 319.648438 266.992188 Z M 323.691406 266.570312 L 325.214844 266.632812 L 325.691406 266.65625 L 325.660156 267.324219 L 325.183594 267.300781 L 323.660156 267.234375 Z M 327.695312 266.75 L 329.695312 266.84375 L 329.664062 267.511719 L 327.664062 267.417969 Z M 331.695312 266.9375 L 333.699219 267.03125 L 333.667969 267.699219 L 331.664062 267.605469 Z M 335.699219 267.128906 L 337.703125 267.222656 L 337.671875 267.886719 L 335.667969 267.792969 Z M 339.703125 267.316406 L 341.703125 267.410156 L 341.671875 268.074219 L 339.671875 267.980469 Z M 343.707031 267.503906 L 345.707031 267.597656 L 345.675781 268.265625 L 343.675781 268.171875 Z M 347.710938 267.691406 L 349.710938 267.785156 L 349.679688 268.453125 L 347.675781 268.359375 Z M 351.710938 267.878906 L 353.714844 267.972656 L 353.683594 268.640625 L 351.679688 268.546875 Z M 355.714844 268.070312 L 357.714844 268.164062 L 357.683594 268.828125 L 355.683594 268.734375 Z M 359.71875 268.257812 L 361.71875 268.351562 L 361.6875 269.015625 L 359.6875 268.921875 Z M 363.722656 268.445312 L 365.722656 268.539062 L 365.691406 269.207031 L 363.691406 269.113281 Z M 367.722656 268.632812 L 369.726562 268.726562 L 369.695312 269.394531 L 367.691406 269.300781 Z M 371.726562 268.820312 L 373.726562 268.914062 L 373.695312 269.582031 L 371.695312 269.488281 Z M 375.730469 269.011719 L 377.730469 269.105469 L 377.699219 269.769531 L 375.699219 269.675781 Z M 379.734375 269.199219 L 381.734375 269.292969 L 381.703125 269.957031 L 379.703125 269.863281 Z M 383.734375 269.386719 L 385.738281 269.480469 L 385.707031 270.148438 L 383.703125 270.050781 Z M 387.738281 269.574219 L 389.742188 269.667969 L 389.707031 270.335938 L 387.707031 270.242188 Z M 391.738281 269.75 C 392.386719 269.769531 393.050781 269.785156 393.734375 269.789062 L 393.726562 270.457031 C 393.039062 270.449219 392.371094 270.4375 391.71875 270.417969 Z M 395.730469 269.792969 L 397.734375 269.765625 L 397.742188 270.433594 L 395.738281 270.460938 Z M 399.730469 269.714844 L 401.734375 269.644531 L 401.757812 270.3125 L 399.753906 270.382812 Z M 403.734375 269.5625 L 405.738281 269.476562 L 405.765625 270.144531 L 403.761719 270.230469 Z M 407.742188 269.390625 L 409.746094 269.3125 L 409.769531 269.980469 L 407.769531 270.058594 Z M 411.753906 269.25 L 413.757812 269.203125 L 413.769531 269.871094 L 411.769531 269.914062 Z M 415.769531 269.1875 L 417.773438 269.203125 L 417.769531 269.871094 L 415.765625 269.855469 Z M 419.78125 269.234375 L 420.582031 269.246094 L 421.78125 269.261719 L 421.773438 269.929688 L 420.570312 269.914062 L 419.769531 269.902344 Z M 423.785156 269.285156 L 425.148438 269.300781 L 425.789062 269.304688 L 425.78125 269.972656 L 425.140625 269.964844 L 423.777344 269.953125 Z M 427.792969 269.320312 L 429.796875 269.328125 L 429.792969 269.996094 L 427.789062 269.988281 Z M 431.796875 269.335938 L 433.800781 269.335938 L 433.800781 270.003906 L 431.796875 270.003906 Z M 435.804688 269.328125 L 437.804688 269.320312 L 437.808594 269.984375 L 435.804688 269.996094 Z M 439.808594 269.300781 L 441.8125 269.277344 L 441.820312 269.945312 L 439.816406 269.96875 Z M 443.816406 269.246094 L 445.820312 269.210938 L 445.832031 269.875 L 443.828125 269.914062 Z M 447.820312 269.164062 L 449.824219 269.113281 L 449.839844 269.78125 L 447.839844 269.832031 Z M 451.824219 269.054688 L 453.824219 268.984375 L 453.847656 269.652344 L 451.847656 269.71875 Z M 455.824219 268.90625 L 457.824219 268.824219 L 457.851562 269.488281 L 455.851562 269.574219 Z M 459.824219 268.726562 L 461.824219 268.625 L 461.859375 269.289062 L 459.859375 269.394531 Z M 463.824219 268.511719 L 465.824219 268.386719 L 465.867188 269.054688 L 463.863281 269.175781 Z M 467.820312 268.253906 L 469.820312 268.109375 L 469.867188 268.773438 L 467.867188 268.917969 Z M 471.8125 267.957031 L 473.808594 267.789062 L 473.863281 268.453125 L 471.867188 268.621094 Z M 475.800781 267.613281 L 476.269531 267.570312 L 477.792969 267.421875 L 477.859375 268.085938 L 476.332031 268.234375 L 475.863281 268.277344 Z M 479.785156 267.222656 L 481.773438 267.007812 L 481.847656 267.671875 L 479.855469 267.886719 Z M 483.761719 266.78125 L 485.75 266.542969 L 485.828125 267.207031 L 483.839844 267.445312 Z M 487.734375 266.292969 L 489.71875 266.027344 L 489.808594 266.6875 L 487.820312 266.953125 Z M 491.699219 265.75 L 493.683594 265.457031 L 493.78125 266.113281 L 491.796875 266.410156 Z M 495.660156 265.148438 L 497.089844 264.917969 L 497.199219 265.574219 L 495.765625 265.808594 Z M 495.660156 265.148438 " fill-opacity="1" fill-rule="nonzero"/><path fill="#000000" d="M 317.253906 258.519531 C 317.878906 258.683594 318.523438 258.832031 319.191406 258.964844 L 319.058594 259.621094 C 318.378906 259.484375 317.722656 259.332031 317.085938 259.167969 Z M 321.148438 259.308594 C 321.78125 259.40625 322.441406 259.488281 323.125 259.566406 L 323.050781 260.230469 C 322.355469 260.152344 321.691406 260.066406 321.050781 259.96875 Z M 325.113281 259.753906 C 325.730469 259.804688 326.394531 259.847656 327.105469 259.890625 L 327.066406 260.554688 C 326.351562 260.515625 325.683594 260.46875 325.058594 260.417969 Z M 329.101562 259.992188 L 329.875 260.023438 L 331.101562 260.085938 L 331.070312 260.75 L 329.847656 260.691406 L 329.070312 260.65625 Z M 333.105469 260.183594 L 335.105469 260.285156 L 335.074219 260.949219 L 333.070312 260.851562 Z M 337.105469 260.382812 L 339.109375 260.484375 L 339.074219 261.148438 L 337.074219 261.050781 Z M 341.109375 260.582031 L 343.109375 260.683594 L 343.078125 261.347656 L 341.078125 261.25 Z M 345.113281 260.78125 L 347.113281 260.882812 L 347.078125 261.546875 L 345.078125 261.449219 Z M 349.113281 260.980469 L 351.117188 261.078125 L 351.082031 261.746094 L 349.082031 261.644531 Z M 353.117188 261.179688 L 355.117188 261.277344 L 355.085938 261.945312 L 353.082031 261.84375 Z M 357.121094 261.378906 L 359.121094 261.476562 L 359.085938 262.144531 L 357.085938 262.042969 Z M 361.121094 261.578125 L 363.125 261.675781 L 363.089844 262.34375 L 361.089844 262.242188 Z M 365.125 261.777344 L 367.125 261.875 L 367.09375 262.542969 L 365.089844 262.441406 Z M 369.125 261.972656 L 371.128906 262.074219 L 371.09375 262.738281 L 369.09375 262.640625 Z M 373.128906 262.171875 L 375.128906 262.273438 L 375.097656 262.9375 L 373.097656 262.839844 Z M 377.132812 262.371094 L 379.132812 262.472656 L 379.101562 263.136719 L 377.097656 263.039062 Z M 381.132812 262.570312 L 383.136719 262.671875 L 383.101562 263.335938 L 381.101562 263.238281 Z M 385.136719 262.769531 L 387.136719 262.867188 L 387.105469 263.535156 L 385.101562 263.4375 Z M 389.140625 262.96875 L 391.140625 263.066406 L 391.105469 263.734375 L 389.105469 263.632812 Z M 393.132812 263.148438 C 393.777344 263.164062 394.441406 263.175781 395.125 263.179688 L 395.121094 263.847656 C 394.433594 263.84375 393.761719 263.832031 393.113281 263.8125 Z M 397.121094 263.171875 L 399.125 263.132812 L 399.136719 263.800781 L 397.132812 263.839844 Z M 401.121094 263.070312 L 403.128906 262.988281 L 403.15625 263.652344 L 401.148438 263.734375 Z M 405.132812 262.898438 L 407.136719 262.804688 L 407.164062 263.472656 L 405.164062 263.5625 Z M 409.140625 262.71875 L 411.144531 262.648438 L 411.167969 263.3125 L 409.164062 263.386719 Z M 413.15625 262.59375 L 415.160156 262.574219 L 415.167969 263.238281 L 413.164062 263.261719 Z M 417.171875 262.585938 L 417.523438 262.59375 L 418.609375 262.609375 L 419.175781 262.617188 L 419.164062 263.285156 L 418.597656 263.277344 L 417.511719 263.257812 L 417.160156 263.253906 Z M 421.179688 262.648438 L 423.183594 262.671875 L 423.175781 263.339844 L 421.171875 263.316406 Z M 425.183594 262.691406 L 425.855469 262.699219 L 427.1875 262.707031 L 427.183594 263.375 L 425.847656 263.367188 L 425.179688 263.359375 Z M 429.191406 262.71875 L 431.195312 262.722656 L 431.191406 263.390625 L 429.1875 263.386719 Z M 433.195312 262.71875 L 435.199219 262.710938 L 435.203125 263.378906 L 433.199219 263.386719 Z M 437.199219 262.699219 L 439.203125 262.675781 L 439.210938 263.34375 L 437.207031 263.363281 Z M 441.207031 262.648438 L 443.210938 262.609375 L 443.222656 263.277344 L 441.21875 263.3125 Z M 445.210938 262.566406 L 447.214844 262.511719 L 447.234375 263.179688 L 445.230469 263.230469 Z M 449.214844 262.449219 L 451.214844 262.378906 L 451.238281 263.042969 L 449.238281 263.117188 Z M 453.214844 262.296875 L 455.214844 262.207031 L 455.246094 262.875 L 453.246094 262.964844 Z M 457.214844 262.105469 L 459.214844 261.996094 L 459.25 262.660156 L 457.25 262.773438 Z M 461.210938 261.875 L 463.210938 261.742188 L 463.253906 262.40625 L 461.253906 262.539062 Z M 465.207031 261.597656 L 465.941406 261.539062 L 467.203125 261.441406 L 467.253906 262.105469 L 465.992188 262.207031 L 465.257812 262.261719 Z M 469.195312 261.273438 L 471.191406 261.089844 L 471.25 261.753906 L 469.253906 261.9375 Z M 473.179688 260.898438 L 475.171875 260.691406 L 475.242188 261.351562 L 473.25 261.558594 Z M 477.15625 260.46875 L 479.144531 260.234375 L 479.222656 260.898438 L 477.234375 261.132812 Z M 481.128906 259.988281 L 483.113281 259.722656 L 483.203125 260.382812 L 481.214844 260.648438 Z M 485.09375 259.445312 L 487.078125 259.152344 L 487.175781 259.8125 L 485.191406 260.105469 Z M 489.054688 258.84375 L 491.035156 258.519531 L 491.144531 259.175781 L 489.160156 259.503906 Z M 489.054688 258.84375 " fill-opacity="1" fill-rule="nonzero"/><path fill="#000000" class="pano" d="M 393.914062 313.53125 C 393.914062 314.46875 393.867188 315.398438 393.78125 316.316406 C 393.691406 317.238281 393.558594 318.128906 393.386719 318.996094 C 393.210938 319.859375 393 320.683594 392.746094 321.460938 C 392.496094 322.242188 392.207031 322.960938 391.886719 323.625 C 391.566406 324.289062 391.214844 324.878906 390.835938 325.398438 C 390.460938 325.921875 390.0625 326.359375 389.640625 326.71875 C 389.222656 327.078125 388.789062 327.347656 388.34375 327.53125 C 387.898438 327.714844 387.449219 327.804688 386.992188 327.804688 C 386.539062 327.804688 386.089844 327.714844 385.644531 327.53125 C 385.199219 327.347656 384.765625 327.078125 384.34375 326.71875 C 383.925781 326.359375 383.527344 325.921875 383.148438 325.398438 C 382.769531 324.878906 382.421875 324.289062 382.101562 323.625 C 381.777344 322.960938 381.492188 322.242188 381.238281 321.460938 C 380.988281 320.683594 380.773438 319.859375 380.601562 318.996094 C 380.425781 318.128906 380.296875 317.238281 380.207031 316.316406 C 380.117188 315.398438 380.074219 314.46875 380.074219 313.53125 C 380.074219 312.597656 380.117188 311.667969 380.207031 310.75 C 380.296875 309.828125 380.425781 308.9375 380.601562 308.070312 C 380.773438 307.207031 380.988281 306.382812 381.238281 305.605469 C 381.492188 304.824219 381.777344 304.105469 382.101562 303.441406 C 382.421875 302.777344 382.769531 302.1875 383.148438 301.664062 C 383.527344 301.144531 383.925781 300.707031 384.34375 300.347656 C 384.765625 299.988281 385.199219 299.71875 385.644531 299.535156 C 386.089844 299.351562 386.539062 299.261719 386.992188 299.261719 C 387.449219 299.261719 387.898438 299.351562 388.34375 299.535156 C 388.789062 299.71875 389.222656 299.988281 389.640625 300.347656 C 390.0625 300.707031 390.460938 301.144531 390.835938 301.664062 C 391.214844 302.1875 391.566406 302.777344 391.886719 303.441406 C 392.207031 304.105469 392.496094 304.824219 392.746094 305.605469 C 393 306.382812 393.210938 307.207031 393.386719 308.070312 C 393.558594 308.9375 393.691406 309.828125 393.78125 310.75 C 393.867188 311.667969 393.914062 312.597656 393.914062 313.53125 Z M 393.914062 313.53125 " fill-opacity="1" fill-rule="nonzero"/><path fill="#000000" class="pano" d="M 422.199219 313.53125 C 422.199219 314.46875 422.152344 315.398438 422.066406 316.316406 C 421.976562 317.238281 421.84375 318.128906 421.671875 318.996094 C 421.496094 319.859375 421.285156 320.683594 421.03125 321.460938 C 420.78125 322.242188 420.492188 322.960938 420.171875 323.625 C 419.851562 324.289062 419.5 324.878906 419.125 325.398438 C 418.746094 325.921875 418.347656 326.359375 417.925781 326.71875 C 417.507812 327.078125 417.074219 327.347656 416.628906 327.53125 C 416.183594 327.714844 415.734375 327.804688 415.277344 327.804688 C 414.824219 327.804688 414.375 327.714844 413.929688 327.53125 C 413.484375 327.347656 413.050781 327.078125 412.632812 326.71875 C 412.210938 326.359375 411.8125 325.921875 411.433594 325.398438 C 411.058594 324.878906 410.707031 324.289062 410.386719 323.625 C 410.066406 322.960938 409.777344 322.242188 409.527344 321.460938 C 409.273438 320.683594 409.058594 319.859375 408.886719 318.996094 C 408.710938 318.128906 408.582031 317.238281 408.492188 316.316406 C 408.402344 315.398438 408.359375 314.46875 408.359375 313.53125 C 408.359375 312.597656 408.402344 311.667969 408.492188 310.75 C 408.582031 309.828125 408.710938 308.9375 408.886719 308.070312 C 409.058594 307.207031 409.273438 306.382812 409.527344 305.605469 C 409.777344 304.824219 410.066406 304.105469 410.386719 303.441406 C 410.707031 302.777344 411.058594 302.1875 411.433594 301.664062 C 411.8125 301.144531 412.210938 300.707031 412.632812 300.347656 C 413.050781 299.988281 413.484375 299.71875 413.929688 299.535156 C 414.375 299.351562 414.824219 299.261719 415.277344 299.261719 C 415.734375 299.261719 416.183594 299.351562 416.628906 299.535156 C 417.074219 299.71875 417.507812 299.988281 417.925781 300.347656 C 418.347656 300.707031 418.746094 301.144531 419.125 301.664062 C 419.5 302.1875 419.851562 302.777344 420.171875 303.441406 C 420.492188 304.105469 420.78125 304.824219 421.03125 305.605469 C 421.285156 306.382812 421.496094 307.207031 421.671875 308.070312 C 421.84375 308.9375 421.976562 309.828125 422.066406 310.75 C 422.152344 311.667969 422.199219 312.597656 422.199219 313.53125 Z M 422.199219 313.53125 " fill-opacity="1" fill-rule="nonzero"/><path fill="#000000" class="pano" d="M 364.191406 317.273438 C 361.765625 324.9375 367.710938 332.226562 372.359375 337.65625 C 374.773438 340.558594 377.53125 343.082031 380.640625 345.226562 C 383.535156 347.132812 386.667969 348.507812 390.03125 349.347656 C 393.441406 350.191406 396.902344 350.53125 400.414062 350.363281 C 403.925781 350.191406 407.335938 349.523438 410.652344 348.355469 C 413.851562 347.195312 416.871094 345.671875 419.707031 343.792969 C 422.542969 341.910156 425.117188 339.71875 427.429688 337.222656 C 430.039062 334.421875 432.316406 331.375 434.253906 328.074219 C 436.003906 325.085938 438.375 320.523438 434.660156 317.96875 C 434.429688 317.8125 434.179688 317.710938 433.90625 317.660156 C 433.632812 317.609375 433.363281 317.613281 433.089844 317.675781 C 432.820312 317.738281 432.574219 317.851562 432.351562 318.019531 C 432.128906 318.183594 431.945312 318.382812 431.808594 318.625 C 431.667969 318.863281 431.582031 319.121094 431.550781 319.398438 C 431.519531 319.671875 431.542969 319.941406 431.625 320.207031 C 431.703125 320.472656 431.835938 320.710938 432.015625 320.921875 C 432.195312 321.132812 432.410156 321.300781 432.65625 321.421875 C 432.382812 321.234375 432.730469 321.476562 432.703125 321.488281 C 432.484375 321.589844 432.703125 321.0625 432.597656 321.34375 C 432.597656 321.34375 432.703125 321.796875 432.664062 321.550781 C 432.625 321.304688 432.664062 321.730469 432.664062 321.78125 C 432.695312 322.011719 432.664062 322.234375 432.578125 322.449219 C 432.5 322.777344 432.398438 323.09375 432.269531 323.402344 C 431.683594 324.640625 431.015625 325.832031 430.265625 326.980469 C 428.714844 329.507812 426.933594 331.863281 424.921875 334.046875 C 420.953125 338.507812 416.210938 341.878906 410.691406 344.160156 C 407.886719 345.28125 404.984375 345.996094 401.980469 346.308594 C 398.980469 346.621094 395.992188 346.515625 393.019531 345.992188 C 390.039062 345.464844 387.222656 344.472656 384.570312 343.023438 C 381.777344 341.40625 379.292969 339.40625 377.121094 337.023438 C 374.484375 334.304688 372.152344 331.347656 370.128906 328.144531 C 368.332031 325.203125 366.941406 321.804688 368.03125 318.363281 C 368.8125 315.902344 364.945312 314.847656 364.171875 317.292969 Z M 364.191406 317.273438 " fill-opacity="1" fill-rule="nonzero"/><path fill="#000000" class="pano" d="M 430.660156 321.351562 C 431.046875 321.289062 430.398438 321.351562 430.660156 321.351562 L 430.96875 321.351562 C 431.195312 321.351562 431.421875 321.351562 431.636719 321.351562 L 432.304688 321.351562 C 432.523438 321.386719 432.746094 321.40625 432.972656 321.410156 C 432.71875 321.371094 432.664062 321.363281 432.816406 321.410156 L 432.964844 321.410156 L 433.265625 321.464844 C 433.484375 321.507812 433.714844 321.554688 433.933594 321.617188 C 434.152344 321.675781 434.421875 321.757812 434.660156 321.84375 L 434.949219 321.941406 L 435.128906 322.015625 L 435.234375 322.0625 L 435.582031 322.230469 C 435.785156 322.335938 435.984375 322.445312 436.183594 322.5625 C 436.382812 322.683594 436.570312 322.796875 436.757812 322.921875 L 437.011719 323.097656 C 437.320312 323.308594 436.84375 322.949219 437.011719 323.097656 C 437.359375 323.390625 437.679688 323.691406 438.019531 324.015625 C 438.179688 324.183594 438.328125 324.351562 438.476562 324.523438 C 438.550781 324.597656 438.613281 324.675781 438.667969 324.765625 C 438.460938 324.359375 438.667969 324.765625 438.714844 324.84375 C 438.855469 325.070312 439.027344 325.261719 439.242188 325.417969 C 439.453125 325.574219 439.6875 325.6875 439.941406 325.753906 C 440.199219 325.824219 440.457031 325.839844 440.71875 325.808594 C 440.984375 325.773438 441.230469 325.691406 441.460938 325.566406 C 441.691406 325.429688 441.886719 325.257812 442.046875 325.046875 C 442.207031 324.832031 442.320312 324.597656 442.386719 324.34375 C 442.453125 324.085938 442.46875 323.824219 442.433594 323.5625 C 442.394531 323.296875 442.308594 323.050781 442.175781 322.824219 C 441.480469 321.828125 440.660156 320.953125 439.71875 320.1875 C 438.773438 319.425781 437.746094 318.808594 436.628906 318.335938 C 435.507812 317.867188 434.347656 317.558594 433.144531 317.414062 C 431.9375 317.269531 430.738281 317.292969 429.539062 317.488281 C 429.28125 317.558594 429.050781 317.675781 428.839844 317.839844 C 428.632812 318.003906 428.460938 318.199219 428.332031 318.429688 C 428.199219 318.660156 428.117188 318.90625 428.085938 319.171875 C 428.054688 319.433594 428.070312 319.695312 428.144531 319.949219 C 428.21875 320.199219 428.339844 320.429688 428.503906 320.632812 C 428.671875 320.839844 428.867188 321.007812 429.097656 321.136719 C 429.324219 321.265625 429.570312 321.347656 429.832031 321.386719 C 430.09375 321.421875 430.351562 321.40625 430.605469 321.34375 Z M 430.660156 321.351562 " fill-opacity="1" fill-rule="nonzero"/><path fill="#000000" class="pano" d="M 359.148438 323.589844 C 362.917969 321.050781 367 319.203125 371.398438 318.042969 C 371.652344 317.972656 371.886719 317.855469 372.097656 317.691406 C 372.308594 317.527344 372.476562 317.328125 372.609375 317.097656 C 372.738281 316.867188 372.820312 316.621094 372.855469 316.355469 C 372.886719 316.09375 372.867188 315.832031 372.796875 315.578125 C 372.726562 315.320312 372.609375 315.089844 372.445312 314.878906 C 372.28125 314.667969 372.085938 314.5 371.851562 314.367188 C 371.621094 314.238281 371.375 314.15625 371.109375 314.121094 C 370.847656 314.089844 370.585938 314.109375 370.328125 314.179688 C 365.601562 315.445312 361.199219 317.429688 357.125 320.136719 C 356.875 320.257812 356.660156 320.425781 356.480469 320.636719 C 356.300781 320.847656 356.171875 321.085938 356.089844 321.351562 C 356.011719 321.617188 355.984375 321.886719 356.019531 322.160156 C 356.050781 322.4375 356.136719 322.695312 356.273438 322.933594 C 356.414062 323.175781 356.59375 323.375 356.816406 323.542969 C 357.042969 323.707031 357.289062 323.820312 357.558594 323.882812 C 357.828125 323.945312 358.101562 323.949219 358.375 323.898438 C 358.648438 323.847656 358.898438 323.746094 359.128906 323.589844 Z M 359.148438 323.589844 " fill-opacity="1" fill-rule="nonzero"/></svg>