<svg xmlns="http://www.w3.org/2000/svg" xmlns:xlink="http://www.w3.org/1999/xlink" width="1920" zoomAndPan="magnify" viewBox="0 0 1440 809.999993" height="1080" preserveAspectRatio="xMidYMid meet" version="1.0"><defs><clipPath id="c579eec1d4"><path d="M 560 154 L 933.988281 154 L 933.988281 467 L 560 467 Z M 560 154 " clip-rule="nonzero"/></clipPath></defs><g clip-path="url(#c579eec1d4)"><path fill="#000000" class="sombra" d="M 932.359375 425.175781 C 931.132812 427.351562 928.6875 428.574219 926.375 429.527344 C 834.308594 469.523438 731.496094 477.683594 634.398438 452.652344 C 609.375 446.125 584.488281 437.28125 564.089844 421.367188 C 562.050781 419.734375 559.738281 417.558594 560.148438 414.835938 C 560.554688 412.117188 563.546875 410.890625 565.996094 409.9375 C 592.648438 400.6875 624.199219 393.207031 652.351562 391.167969 C 666.085938 353.894531 709.058594 246.96875 725.785156 210.785156 C 727.554688 206.976562 729.457031 203.03125 732.855469 200.582031 C 738.570312 196.636719 746.046875 198.269531 752.847656 199.359375 C 757.878906 200.171875 762.910156 200.582031 767.941406 200.582031 C 771.886719 200.582031 776.238281 200.171875 778.957031 197.453125 C 783.308594 192.964844 781 185.480469 778.414062 179.769531 C 776.101562 174.597656 773.789062 169.292969 771.34375 164.125 C 770.933594 163.308594 770.664062 162.21875 771.207031 161.539062 C 771.613281 161.132812 772.160156 160.996094 772.703125 160.859375 C 780.726562 159.226562 788.75 157.59375 796.636719 156.097656 C 802.347656 155.011719 808.195312 153.785156 814.042969 154.195312 C 819.890625 154.601562 825.738281 156.914062 829.410156 161.539062 C 832.539062 165.621094 833.492188 171.0625 832.132812 176.09375 C 831.859375 177.046875 830.90625 177.457031 829.957031 177.183594 C 829.683594 177.046875 829.277344 176.910156 829.140625 176.640625 C 827.644531 174.734375 825.875 172.832031 824.109375 171.0625 C 820.027344 166.300781 808.332031 173.238281 808.875 179.496094 C 809.421875 185.753906 814.722656 190.378906 819.347656 194.597656 C 828.59375 203.300781 836.753906 216.089844 832.132812 227.925781 C 827.78125 239.078125 814.453125 243.296875 803.027344 246.832031 C 800.171875 247.648438 797.046875 248.875 795.683594 251.59375 C 795.003906 253.5 794.734375 255.539062 795.140625 257.445312 C 796.636719 273.359375 800.171875 288.867188 805.613281 303.832031 C 808.742188 312.675781 812.820312 321.515625 814.179688 330.765625 C 815.269531 337.976562 815.40625 345.324219 816.492188 352.53125 C 818.667969 366.953125 823.019531 382.597656 835.125 391.980469 C 839.746094 395.519531 845.59375 396.878906 851.304688 397.96875 L 919.574219 412.117188 C 923.109375 412.796875 926.644531 413.613281 929.5 415.789062 C 932.359375 417.964844 933.988281 421.910156 932.359375 425.175781 Z M 932.359375 425.175781 " fill-opacity="1" fill-rule="nonzero"/></g><path fill="#ed9a20" class="detalhe" d="M 663.09375 363.277344 C 663.09375 363.277344 741.5625 396.335938 818.667969 363.277344 C 818.667969 363.277344 821.660156 375.929688 828.050781 384.5 C 828.050781 384.5 743.464844 408.171875 655.070312 384.5 Z M 761.550781 291.996094 C 756.792969 291.316406 752.03125 291.453125 747.410156 292.542969 C 740.199219 294.308594 730.816406 299.480469 726.464844 313.761719 C 721.84375 329 730.410156 338.65625 735.847656 343.144531 C 744.417969 350.082031 756.792969 352.941406 763.183594 349.675781 C 759.238281 348.722656 755.566406 346.953125 752.167969 344.640625 C 747 340.96875 740.878906 333.757812 740.746094 321.246094 C 740.746094 317.300781 741.5625 313.492188 743.054688 309.953125 C 745.503906 304.238281 750.535156 296.621094 761.550781 291.996094 Z M 761.550781 291.996094 " fill-opacity="1" fill-rule="nonzero"/></svg>