<svg xmlns="http://www.w3.org/2000/svg" xmlns:xlink="http://www.w3.org/1999/xlink" width="1920" zoomAndPan="magnify" viewBox="0 0 1440 809.999993" height="1080" preserveAspectRatio="xMidYMid meet" version="1.0"><defs><clipPath id="aaf6f3122f"><path d="M 563 337 L 991.40625 337 L 991.40625 513.140625 L 563 513.140625 Z M 563 337 " clip-rule="nonzero"/></clipPath></defs><path fill="#c38e4e" class="detalhe" d="M 576.058594 374.394531 C 596.734375 328.027344 631.910156 258.992188 645.558594 247.667969 C 659.207031 236.34375 762.875 220.621094 805.425781 254.335938 C 847.96875 288.054688 837.277344 351.136719 837.277344 351.136719 L 738.597656 379.726562 L 576.058594 374.394531 " fill-opacity="1" fill-rule="nonzero"/><path fill="#af7535" class="sombra" d="M 792.238281 317.351562 C 792.09375 317.351562 791.945312 317.335938 791.796875 317.304688 C 741.820312 306.15625 722.699219 251.84375 722.511719 251.296875 C 722.148438 250.234375 722.710938 249.082031 723.769531 248.722656 C 724.824219 248.359375 725.980469 248.921875 726.34375 249.984375 C 726.523438 250.507812 744.949219 302.699219 792.679688 313.34375 C 793.769531 313.589844 794.457031 314.671875 794.214844 315.765625 C 794.007812 316.710938 793.164062 317.351562 792.238281 317.351562 " fill-opacity="1" fill-rule="nonzero"/><path fill="#b78046" class="detalhe" d="M 564.046875 393.414062 C 516.695312 368.828125 450.898438 349.957031 433.574219 364.433594 C 416.25 378.910156 455.050781 466.535156 579.917969 441.964844 C 710.492188 416.265625 757.996094 399.414062 837.277344 351.136719 C 748.648438 365.890625 597.242188 421.175781 544.832031 420.925781 C 574.8125 403.160156 564.046875 393.414062 564.046875 393.414062 " fill-opacity="1" fill-rule="nonzero"/><path fill="#e6dbaa" class="sombra" d="M 537.527344 421.148438 C 537.527344 421.148438 561.148438 403.117188 576.058594 374.394531 C 647.640625 349.96875 743.042969 373.28125 743.042969 373.28125 C 743.042969 373.28125 572.988281 425.558594 537.527344 421.148438 " fill-opacity="1" fill-rule="nonzero"/><path fill="#aa6f3a" class="sombra" d="M 516.011719 424.535156 C 501 424.535156 490.246094 421.632812 483.9375 415.859375 C 478.65625 411.019531 478.679688 405.90625 478.679688 405.6875 C 478.703125 404.566406 479.691406 403.679688 480.742188 403.699219 C 481.855469 403.714844 482.738281 404.628906 482.734375 405.738281 C 482.734375 405.925781 482.832031 409.441406 486.824219 413.007812 C 492.003906 417.632812 503.980469 422.527344 531.621094 419.574219 C 532.753906 419.457031 533.730469 420.265625 533.847656 421.375 C 533.964844 422.488281 533.164062 423.484375 532.054688 423.609375 C 526.257812 424.226562 520.910156 424.535156 516.011719 424.535156 " fill-opacity="1" fill-rule="nonzero"/><g clip-path="url(#aaf6f3122f)"><path fill="#a1703b" class="detalhe" d="M 563.398438 444.515625 C 653.484375 439.871094 787.175781 532.984375 920.621094 509.304688 C 1054.070312 485.625 983.292969 285.402344 837.277344 351.136719 C 700.441406 412.746094 563.398438 444.515625 563.398438 444.515625 " fill-opacity="1" fill-rule="nonzero"/></g><path fill="#000000" class="pano" d="M 579.917969 441.964844 C 579.917969 441.964844 826.703125 408.710938 843.101562 453.179688 C 859.5 497.648438 579.917969 441.964844 579.917969 441.964844 " fill-opacity="1" fill-rule="nonzero"/></svg>