<svg xmlns="http://www.w3.org/2000/svg" xmlns:xlink="http://www.w3.org/1999/xlink" width="1920" zoomAndPan="magnify" viewBox="0 0 1440 809.999993" height="1080" preserveAspectRatio="xMidYMid meet" version="1.0"><defs><clipPath id="bed08478b5"><path d="M 531.011719 307 L 995.261719 307 L 995.261719 436.257812 L 531.011719 436.257812 Z M 531.011719 307 " clip-rule="nonzero"/></clipPath><clipPath id="6a439f489b"><path d="M 621 165.507812 L 905 165.507812 L 905 372 L 621 372 Z M 621 165.507812 " clip-rule="nonzero"/></clipPath></defs><g clip-path="url(#bed08478b5)"><path fill="#ffd983" class="detalhe" d="M 995.261719 371.746094 C 995.261719 372.796875 995.167969 373.851562 994.984375 374.90625 C 994.796875 375.957031 994.515625 377.007812 994.144531 378.058594 C 993.773438 379.109375 993.308594 380.152344 992.75 381.195312 C 992.191406 382.238281 991.542969 383.277344 990.800781 384.3125 C 990.0625 385.347656 989.230469 386.375 988.304688 387.398438 C 987.382812 388.417969 986.371094 389.433594 985.265625 390.445312 C 984.164062 391.453125 982.972656 392.453125 981.695312 393.445312 C 980.414062 394.4375 979.046875 395.421875 977.59375 396.394531 C 976.140625 397.371094 974.601562 398.332031 972.976562 399.285156 C 971.351562 400.238281 969.644531 401.179688 967.855469 402.109375 C 966.0625 403.039062 964.191406 403.957031 962.238281 404.863281 C 960.285156 405.765625 958.253906 406.65625 956.140625 407.535156 C 954.03125 408.410156 951.84375 409.273438 949.582031 410.117188 C 947.320312 410.964844 944.984375 411.796875 942.574219 412.609375 C 940.164062 413.425781 937.683594 414.222656 935.132812 415.003906 C 932.578125 415.785156 929.960938 416.550781 927.273438 417.296875 C 924.589844 418.039062 921.839844 418.765625 919.023438 419.476562 C 916.207031 420.183594 913.332031 420.871094 910.394531 421.539062 C 907.460938 422.210938 904.464844 422.859375 901.414062 423.484375 C 898.363281 424.113281 895.257812 424.71875 892.097656 425.304688 C 888.941406 425.890625 885.730469 426.457031 882.472656 426.996094 C 879.214844 427.539062 875.910156 428.058594 872.5625 428.554688 C 869.210938 429.054688 865.816406 429.527344 862.382812 429.976562 C 858.949219 430.429688 855.476562 430.855469 851.96875 431.257812 C 848.457031 431.664062 844.914062 432.042969 841.339844 432.398438 C 837.761719 432.753906 834.15625 433.082031 830.519531 433.390625 C 826.882812 433.695312 823.222656 433.976562 819.539062 434.230469 C 815.855469 434.488281 812.148438 434.71875 808.421875 434.925781 C 804.695312 435.128906 800.957031 435.3125 797.199219 435.464844 C 793.441406 435.621094 789.671875 435.75 785.890625 435.851562 C 782.109375 435.957031 778.320312 436.035156 774.527344 436.085938 C 770.734375 436.136719 766.9375 436.164062 763.136719 436.164062 C 759.339844 436.164062 755.542969 436.136719 751.746094 436.085938 C 747.953125 436.035156 744.167969 435.957031 740.386719 435.851562 C 736.605469 435.75 732.835938 435.621094 729.078125 435.464844 C 725.320312 435.3125 721.578125 435.128906 717.851562 434.925781 C 714.125 434.71875 710.421875 434.488281 706.734375 434.230469 C 703.050781 433.976562 699.390625 433.695312 695.753906 433.390625 C 692.121094 433.082031 688.515625 432.753906 684.9375 432.398438 C 681.359375 432.042969 677.816406 431.664062 674.308594 431.257812 C 670.796875 430.855469 667.324219 430.429688 663.890625 429.976562 C 660.457031 429.527344 657.066406 429.054688 653.714844 428.554688 C 650.363281 428.058594 647.058594 427.539062 643.800781 426.996094 C 640.542969 426.457031 637.335938 425.890625 634.175781 425.304688 C 631.015625 424.71875 627.914062 424.113281 624.859375 423.484375 C 621.808594 422.859375 618.816406 422.210938 615.878906 421.539062 C 612.941406 420.871094 610.066406 420.183594 607.253906 419.476562 C 604.4375 418.765625 601.6875 418.039062 599 417.296875 C 596.3125 416.550781 593.695312 415.785156 591.144531 415.003906 C 588.59375 414.222656 586.113281 413.425781 583.703125 412.609375 C 581.292969 411.796875 578.957031 410.964844 576.691406 410.117188 C 574.429688 409.273438 572.242188 408.410156 570.132812 407.535156 C 568.023438 406.65625 565.992188 405.765625 564.039062 404.863281 C 562.085938 403.957031 560.210938 403.039062 558.421875 402.109375 C 556.632812 401.179688 554.921875 400.238281 553.300781 399.285156 C 551.675781 398.332031 550.136719 397.371094 548.683594 396.394531 C 547.226562 395.421875 545.863281 394.4375 544.582031 393.445312 C 543.300781 392.453125 542.109375 391.453125 541.007812 390.445312 C 539.90625 389.433594 538.890625 388.417969 537.96875 387.398438 C 537.046875 386.375 536.214844 385.347656 535.472656 384.3125 C 534.730469 383.277344 534.082031 382.238281 533.523438 381.195312 C 532.96875 380.152344 532.503906 379.109375 532.128906 378.058594 C 531.757812 377.007812 531.480469 375.957031 531.292969 374.90625 C 531.105469 373.851562 531.011719 372.796875 531.011719 371.746094 C 531.011719 370.691406 531.105469 369.636719 531.292969 368.582031 C 531.480469 367.53125 531.757812 366.480469 532.128906 365.429688 C 532.503906 364.382812 532.96875 363.335938 533.523438 362.292969 C 534.082031 361.25 534.730469 360.210938 535.472656 359.175781 C 536.214844 358.144531 537.046875 357.113281 537.96875 356.09375 C 538.890625 355.070312 539.90625 354.054688 541.007812 353.042969 C 542.109375 352.035156 543.300781 351.035156 544.582031 350.042969 C 545.863281 349.050781 547.226562 348.066406 548.683594 347.09375 C 550.136719 346.117188 551.675781 345.15625 553.300781 344.203125 C 554.921875 343.25 556.632812 342.308594 558.421875 341.378906 C 560.210938 340.449219 562.085938 339.53125 564.039062 338.625 C 565.992188 337.722656 568.023438 336.832031 570.132812 335.957031 C 572.242188 335.078125 574.429688 334.21875 576.691406 333.371094 C 578.957031 332.523438 581.292969 331.691406 583.703125 330.878906 C 586.113281 330.0625 588.59375 329.265625 591.144531 328.484375 C 593.695312 327.703125 596.3125 326.9375 599 326.195312 C 601.6875 325.449219 604.4375 324.722656 607.253906 324.011719 C 610.066406 323.304688 612.941406 322.617188 615.878906 321.949219 C 618.816406 321.28125 621.808594 320.632812 624.859375 320.003906 C 627.914062 319.375 631.015625 318.769531 634.175781 318.183594 C 637.335938 317.597656 640.542969 317.03125 643.800781 316.492188 C 647.058594 315.949219 650.363281 315.429688 653.714844 314.933594 C 657.066406 314.433594 660.457031 313.960938 663.890625 313.511719 C 667.324219 313.058594 670.796875 312.632812 674.308594 312.230469 C 677.816406 311.824219 681.359375 311.445312 684.9375 311.089844 C 688.515625 310.734375 692.121094 310.40625 695.753906 310.101562 C 699.390625 309.792969 703.050781 309.511719 706.734375 309.257812 C 710.421875 309 714.125 308.769531 717.851562 308.5625 C 721.578125 308.359375 725.320312 308.179688 729.078125 308.023438 C 732.835938 307.867188 736.605469 307.738281 740.386719 307.636719 C 744.167969 307.53125 747.953125 307.457031 751.746094 307.402344 C 755.542969 307.351562 759.339844 307.324219 763.136719 307.324219 C 766.9375 307.324219 770.734375 307.351562 774.527344 307.402344 C 778.320312 307.457031 782.109375 307.53125 785.890625 307.636719 C 789.671875 307.738281 793.441406 307.867188 797.199219 308.023438 C 800.957031 308.179688 804.695312 308.359375 808.421875 308.5625 C 812.148438 308.769531 815.855469 309 819.539062 309.257812 C 823.222656 309.511719 826.882812 309.792969 830.519531 310.101562 C 834.15625 310.40625 837.761719 310.734375 841.339844 311.089844 C 844.914062 311.445312 848.457031 311.824219 851.96875 312.230469 C 855.476562 312.632812 858.949219 313.058594 862.382812 313.511719 C 865.816406 313.960938 869.210938 314.433594 872.5625 314.933594 C 875.910156 315.429688 879.214844 315.949219 882.472656 316.492188 C 885.730469 317.03125 888.941406 317.597656 892.097656 318.183594 C 895.257812 318.769531 898.363281 319.375 901.414062 320.003906 C 904.464844 320.632812 907.460938 321.28125 910.394531 321.949219 C 913.332031 322.617188 916.207031 323.304688 919.023438 324.011719 C 921.839844 324.722656 924.589844 325.449219 927.273438 326.195312 C 929.960938 326.9375 932.578125 327.703125 935.132812 328.484375 C 937.683594 329.265625 940.164062 330.0625 942.574219 330.878906 C 944.984375 331.691406 947.320312 332.523438 949.582031 333.371094 C 951.84375 334.21875 954.03125 335.078125 956.140625 335.957031 C 958.253906 336.832031 960.285156 337.722656 962.238281 338.625 C 964.191406 339.53125 966.0625 340.449219 967.855469 341.378906 C 969.644531 342.308594 971.351562 343.25 972.976562 344.203125 C 974.601562 345.15625 976.140625 346.117188 977.59375 347.09375 C 979.046875 348.066406 980.414062 349.050781 981.695312 350.042969 C 982.972656 351.035156 984.164062 352.035156 985.265625 353.042969 C 986.371094 354.054688 987.382812 355.070312 988.304688 356.09375 C 989.230469 357.113281 990.0625 358.144531 990.800781 359.175781 C 991.542969 360.210938 992.191406 361.25 992.75 362.292969 C 993.308594 363.335938 993.773438 364.382812 994.144531 365.429688 C 994.515625 366.480469 994.796875 367.53125 994.984375 368.582031 C 995.167969 369.636719 995.261719 370.691406 995.261719 371.746094 Z M 995.261719 371.746094 " fill-opacity="1" fill-rule="nonzero"/></g><g clip-path="url(#6a439f489b)"><path fill="#ffd983" class="detalhe" d="M 904.992188 294.441406 C 904.992188 314.617188 841.480469 371.746094 763.136719 371.746094 C 684.796875 371.746094 621.839844 314.617188 621.839844 294.441406 C 621.839844 204.257812 711.554688 165.605469 763.136719 165.605469 C 814.722656 165.605469 904.992188 204.257812 904.992188 294.441406 Z M 904.992188 294.441406 " fill-opacity="1" fill-rule="nonzero"/></g><path fill="#9266cc" class="pano" d="M 904.992188 345.976562 C 840.511719 384.628906 685.761719 384.628906 621.285156 345.976562 C 621.285156 339.636719 621.839844 300.433594 621.839844 294.441406 C 698.660156 333.09375 827.617188 333.09375 904.992188 294.441406 C 904.953125 300.433594 904.992188 339.636719 904.992188 345.976562 Z M 904.992188 345.976562 " fill-opacity="1" fill-rule="nonzero"/><path fill="#ffffff" class="sombra" d="M 776.035156 384.628906 C 776.035156 385.472656 776.011719 386.3125 775.972656 387.152344 C 775.929688 387.992188 775.867188 388.828125 775.785156 389.65625 C 775.703125 390.484375 775.601562 391.300781 775.476562 392.109375 C 775.355469 392.914062 775.214844 393.710938 775.050781 394.488281 C 774.890625 395.269531 774.710938 396.03125 774.511719 396.773438 C 774.3125 397.519531 774.09375 398.242188 773.859375 398.945312 C 773.625 399.644531 773.375 400.324219 773.105469 400.976562 C 772.839844 401.628906 772.554688 402.25 772.257812 402.847656 C 771.957031 403.445312 771.644531 404.011719 771.320312 404.546875 C 770.992188 405.082031 770.652344 405.585938 770.300781 406.054688 C 769.949219 406.523438 769.589844 406.953125 769.214844 407.351562 C 768.84375 407.75 768.464844 408.109375 768.074219 408.433594 C 767.683594 408.757812 767.285156 409.039062 766.882812 409.285156 C 766.476562 409.53125 766.066406 409.734375 765.652344 409.898438 C 765.238281 410.066406 764.820312 410.1875 764.402344 410.269531 C 763.980469 410.355469 763.558594 410.394531 763.136719 410.394531 C 762.714844 410.394531 762.292969 410.355469 761.875 410.269531 C 761.453125 410.1875 761.035156 410.066406 760.621094 409.898438 C 760.207031 409.734375 759.796875 409.53125 759.394531 409.285156 C 758.988281 409.039062 758.59375 408.757812 758.203125 408.433594 C 757.8125 408.109375 757.429688 407.75 757.058594 407.351562 C 756.6875 406.953125 756.324219 406.523438 755.972656 406.054688 C 755.621094 405.585938 755.28125 405.082031 754.957031 404.546875 C 754.628906 404.011719 754.316406 403.445312 754.019531 402.847656 C 753.71875 402.25 753.4375 401.628906 753.167969 400.976562 C 752.902344 400.324219 752.648438 399.644531 752.414062 398.945312 C 752.179688 398.242188 751.964844 397.519531 751.765625 396.773438 C 751.566406 396.03125 751.386719 395.269531 751.222656 394.488281 C 751.0625 393.710938 750.917969 392.914062 750.796875 392.109375 C 750.675781 391.300781 750.570312 390.484375 750.488281 389.65625 C 750.40625 388.828125 750.34375 387.992188 750.304688 387.152344 C 750.261719 386.3125 750.242188 385.472656 750.242188 384.628906 C 750.242188 383.785156 750.261719 382.941406 750.304688 382.101562 C 750.34375 381.261719 750.40625 380.429688 750.488281 379.601562 C 750.570312 378.773438 750.675781 377.957031 750.796875 377.148438 C 750.917969 376.339844 751.0625 375.546875 751.222656 374.765625 C 751.386719 373.988281 751.566406 373.226562 751.765625 372.480469 C 751.964844 371.738281 752.179688 371.015625 752.414062 370.3125 C 752.648438 369.609375 752.902344 368.933594 753.167969 368.28125 C 753.4375 367.628906 753.71875 367.003906 754.019531 366.40625 C 754.316406 365.8125 754.628906 365.246094 754.957031 364.710938 C 755.28125 364.175781 755.621094 363.671875 755.972656 363.203125 C 756.324219 362.734375 756.6875 362.300781 757.058594 361.902344 C 757.429688 361.503906 757.8125 361.144531 758.203125 360.820312 C 758.59375 360.5 758.988281 360.214844 759.394531 359.96875 C 759.796875 359.726562 760.207031 359.519531 760.621094 359.355469 C 761.035156 359.191406 761.453125 359.066406 761.875 358.984375 C 762.292969 358.902344 762.714844 358.859375 763.136719 358.859375 C 763.558594 358.859375 763.980469 358.902344 764.402344 358.984375 C 764.820312 359.066406 765.238281 359.191406 765.652344 359.355469 C 766.066406 359.519531 766.476562 359.726562 766.882812 359.96875 C 767.285156 360.214844 767.683594 360.5 768.074219 360.820312 C 768.464844 361.144531 768.84375 361.503906 769.214844 361.902344 C 769.589844 362.300781 769.949219 362.734375 770.300781 363.203125 C 770.652344 363.671875 770.992188 364.175781 771.320312 364.710938 C 771.644531 365.246094 771.957031 365.8125 772.257812 366.40625 C 772.554688 367.003906 772.839844 367.628906 773.105469 368.28125 C 773.375 368.933594 773.625 369.609375 773.859375 370.3125 C 774.09375 371.015625 774.3125 371.738281 774.511719 372.480469 C 774.710938 373.226562 774.890625 373.988281 775.050781 374.765625 C 775.214844 375.546875 775.355469 376.339844 775.476562 377.148438 C 775.601562 377.957031 775.703125 378.773438 775.785156 379.601562 C 775.867188 380.429688 775.929688 381.261719 775.972656 382.101562 C 776.011719 382.941406 776.035156 383.785156 776.035156 384.628906 Z M 776.035156 384.628906 " fill-opacity="1" fill-rule="nonzero"/><path fill="#ffffff" class="sombra" d="M 776.035156 307.324219 C 776.035156 308.167969 776.011719 309.011719 775.972656 309.851562 C 775.929688 310.691406 775.867188 311.523438 775.785156 312.351562 C 775.703125 313.179688 775.601562 314 775.476562 314.804688 C 775.355469 315.613281 775.214844 316.40625 775.050781 317.1875 C 774.890625 317.964844 774.710938 318.726562 774.511719 319.472656 C 774.3125 320.214844 774.09375 320.941406 773.859375 321.640625 C 773.625 322.34375 773.375 323.019531 773.105469 323.671875 C 772.839844 324.324219 772.554688 324.949219 772.257812 325.546875 C 771.957031 326.144531 771.644531 326.707031 771.320312 327.246094 C 770.992188 327.78125 770.652344 328.28125 770.300781 328.75 C 769.949219 329.21875 769.589844 329.652344 769.214844 330.050781 C 768.84375 330.449219 768.464844 330.808594 768.074219 331.132812 C 767.683594 331.453125 767.285156 331.738281 766.882812 331.984375 C 766.476562 332.230469 766.066406 332.433594 765.652344 332.597656 C 765.238281 332.761719 764.820312 332.886719 764.402344 332.96875 C 763.980469 333.050781 763.558594 333.09375 763.136719 333.09375 C 762.714844 333.09375 762.292969 333.050781 761.875 332.96875 C 761.453125 332.886719 761.035156 332.761719 760.621094 332.597656 C 760.207031 332.433594 759.796875 332.230469 759.394531 331.984375 C 758.988281 331.738281 758.59375 331.453125 758.203125 331.132812 C 757.8125 330.808594 757.429688 330.449219 757.058594 330.050781 C 756.6875 329.652344 756.324219 329.21875 755.972656 328.75 C 755.621094 328.28125 755.28125 327.78125 754.957031 327.246094 C 754.628906 326.707031 754.316406 326.144531 754.019531 325.546875 C 753.71875 324.949219 753.4375 324.324219 753.167969 323.671875 C 752.902344 323.019531 752.648438 322.34375 752.414062 321.640625 C 752.179688 320.941406 751.964844 320.214844 751.765625 319.472656 C 751.566406 318.726562 751.386719 317.964844 751.222656 317.1875 C 751.0625 316.40625 750.917969 315.613281 750.796875 314.804688 C 750.675781 314 750.570312 313.179688 750.488281 312.351562 C 750.40625 311.523438 750.34375 310.691406 750.304688 309.851562 C 750.261719 309.011719 750.242188 308.167969 750.242188 307.324219 C 750.242188 306.480469 750.261719 305.640625 750.304688 304.800781 C 750.34375 303.960938 750.40625 303.125 750.488281 302.300781 C 750.570312 301.472656 750.675781 300.652344 750.796875 299.847656 C 750.917969 299.039062 751.0625 298.246094 751.222656 297.464844 C 751.386719 296.683594 751.566406 295.921875 751.765625 295.179688 C 751.964844 294.433594 752.179688 293.710938 752.414062 293.011719 C 752.648438 292.308594 752.902344 291.632812 753.167969 290.980469 C 753.4375 290.328125 753.71875 289.703125 754.019531 289.105469 C 754.316406 288.507812 754.628906 287.941406 754.957031 287.40625 C 755.28125 286.871094 755.621094 286.371094 755.972656 285.902344 C 756.324219 285.433594 756.6875 285 757.058594 284.601562 C 757.429688 284.203125 757.8125 283.84375 758.203125 283.519531 C 758.59375 283.195312 758.988281 282.914062 759.394531 282.667969 C 759.796875 282.421875 760.207031 282.21875 760.621094 282.054688 C 761.035156 281.890625 761.453125 281.765625 761.875 281.683594 C 762.292969 281.601562 762.714844 281.558594 763.136719 281.558594 C 763.558594 281.558594 763.980469 281.601562 764.402344 281.683594 C 764.820312 281.765625 765.238281 281.890625 765.652344 282.054688 C 766.066406 282.21875 766.476562 282.421875 766.882812 282.667969 C 767.285156 282.914062 767.683594 283.195312 768.074219 283.519531 C 768.464844 283.84375 768.84375 284.203125 769.214844 284.601562 C 769.589844 285 769.949219 285.433594 770.300781 285.902344 C 770.652344 286.371094 770.992188 286.871094 771.320312 287.40625 C 771.644531 287.941406 771.957031 288.507812 772.257812 289.105469 C 772.554688 289.703125 772.839844 290.328125 773.105469 290.980469 C 773.375 291.632812 773.625 292.308594 773.859375 293.011719 C 774.09375 293.710938 774.3125 294.433594 774.511719 295.179688 C 774.710938 295.921875 774.890625 296.683594 775.050781 297.464844 C 775.214844 298.246094 775.355469 299.039062 775.476562 299.847656 C 775.601562 300.652344 775.703125 301.472656 775.785156 302.300781 C 775.867188 303.125 775.929688 303.960938 775.972656 304.800781 C 776.011719 305.640625 776.035156 306.480469 776.035156 307.324219 Z M 776.035156 307.324219 " fill-opacity="1" fill-rule="nonzero"/><path fill="#ffffff" class="sombra" d="M 744.902344 382.410156 C 734.832031 392.472656 722.582031 396.558594 717.550781 391.519531 C 712.507812 386.484375 716.597656 374.257812 726.667969 364.195312 C 736.738281 354.132812 748.976562 350.046875 754.035156 355.085938 C 759.0625 360.125 754.976562 372.363281 744.902344 382.410156 Z M 799.605469 327.757812 C 789.546875 337.820312 777.296875 341.90625 772.253906 336.867188 C 767.210938 331.832031 771.300781 319.605469 781.371094 309.527344 C 791.445312 299.464844 803.683594 295.382812 808.722656 300.421875 C 813.765625 305.457031 809.679688 317.695312 799.605469 327.757812 Z M 799.605469 327.757812 " fill-opacity="1" fill-rule="nonzero"/><path fill="#ffffff" class="sombra" d="M 724.449219 358.859375 C 710.199219 358.859375 698.660156 353.089844 698.660156 345.976562 C 698.660156 338.851562 710.214844 333.09375 724.449219 333.09375 C 738.699219 333.09375 750.242188 338.851562 750.242188 345.976562 C 750.242188 353.101562 738.6875 358.859375 724.449219 358.859375 Z M 801.824219 358.859375 C 787.589844 358.875 776.035156 353.101562 776.035156 345.976562 C 776.035156 338.851562 787.589844 333.09375 801.824219 333.09375 C 816.0625 333.09375 827.617188 338.851562 827.617188 345.976562 C 827.617188 353.089844 816.0625 358.859375 801.824219 358.859375 Z M 801.824219 358.859375 " fill-opacity="1" fill-rule="nonzero"/><path fill="#ffffff" class="sombra" d="M 726.667969 327.773438 C 716.582031 317.695312 712.507812 305.457031 717.550781 300.433594 C 722.59375 295.394531 734.832031 299.480469 744.902344 309.542969 C 754.976562 319.617188 759.0625 331.832031 754.019531 336.867188 C 748.976562 341.917969 736.726562 337.820312 726.667969 327.773438 Z M 781.371094 382.425781 C 771.289062 372.375 767.210938 360.136719 772.253906 355.097656 C 777.296875 350.046875 789.535156 354.144531 799.605469 364.207031 C 809.679688 374.257812 813.765625 386.496094 808.722656 391.535156 C 803.707031 396.558594 791.445312 392.488281 781.371094 382.425781 Z M 781.371094 382.425781 " fill-opacity="1" fill-rule="nonzero"/><path fill="#ffac33" d="M 788.929688 345.976562 C 788.929688 346.820312 788.886719 347.664062 788.804688 348.503906 C 788.722656 349.34375 788.597656 350.175781 788.433594 351.003906 C 788.269531 351.832031 788.0625 352.648438 787.820312 353.457031 C 787.574219 354.265625 787.289062 355.058594 786.964844 355.835938 C 786.644531 356.617188 786.28125 357.378906 785.882812 358.125 C 785.484375 358.867188 785.050781 359.589844 784.582031 360.292969 C 784.113281 360.996094 783.609375 361.671875 783.074219 362.324219 C 782.539062 362.976562 781.972656 363.601562 781.375 364.199219 C 780.777344 364.792969 780.152344 365.359375 779.5 365.894531 C 778.847656 366.429688 778.167969 366.933594 777.46875 367.402344 C 776.765625 367.871094 776.039062 368.304688 775.296875 368.703125 C 774.550781 369.101562 773.789062 369.460938 773.007812 369.78125 C 772.226562 370.105469 771.433594 370.390625 770.625 370.636719 C 769.816406 370.878906 768.996094 371.085938 768.167969 371.25 C 767.339844 371.414062 766.507812 371.539062 765.664062 371.621094 C 764.824219 371.703125 763.984375 371.746094 763.136719 371.746094 C 762.292969 371.746094 761.449219 371.703125 760.609375 371.621094 C 759.769531 371.539062 758.933594 371.414062 758.105469 371.25 C 757.277344 371.085938 756.460938 370.878906 755.652344 370.636719 C 754.84375 370.390625 754.046875 370.105469 753.269531 369.78125 C 752.488281 369.460938 751.722656 369.101562 750.980469 368.703125 C 750.234375 368.304688 749.511719 367.871094 748.808594 367.402344 C 748.105469 366.933594 747.429688 366.429688 746.777344 365.894531 C 746.121094 365.359375 745.496094 364.792969 744.898438 364.199219 C 744.304688 363.601562 743.738281 362.976562 743.199219 362.324219 C 742.664062 361.671875 742.160156 360.996094 741.691406 360.292969 C 741.222656 359.589844 740.789062 358.867188 740.390625 358.125 C 739.992188 357.378906 739.632812 356.617188 739.308594 355.835938 C 738.984375 355.058594 738.703125 354.265625 738.457031 353.457031 C 738.210938 352.648438 738.007812 351.832031 737.839844 351.003906 C 737.675781 350.175781 737.554688 349.34375 737.46875 348.503906 C 737.386719 347.664062 737.347656 346.820312 737.347656 345.976562 C 737.347656 345.132812 737.386719 344.292969 737.46875 343.453125 C 737.554688 342.613281 737.675781 341.777344 737.839844 340.949219 C 738.007812 340.121094 738.210938 339.304688 738.457031 338.496094 C 738.703125 337.691406 738.984375 336.894531 739.308594 336.117188 C 739.632812 335.335938 739.992188 334.574219 740.390625 333.832031 C 740.789062 333.085938 741.222656 332.363281 741.691406 331.660156 C 742.160156 330.960938 742.664062 330.28125 743.199219 329.628906 C 743.738281 328.976562 744.304688 328.351562 744.898438 327.757812 C 745.496094 327.160156 746.121094 326.59375 746.777344 326.058594 C 747.429688 325.523438 748.105469 325.019531 748.808594 324.550781 C 749.511719 324.082031 750.234375 323.648438 750.980469 323.253906 C 751.722656 322.855469 752.488281 322.492188 753.269531 322.171875 C 754.046875 321.847656 754.84375 321.5625 755.652344 321.320312 C 756.460938 321.074219 757.277344 320.871094 758.105469 320.703125 C 758.933594 320.539062 759.769531 320.417969 760.609375 320.332031 C 761.449219 320.25 762.292969 320.210938 763.136719 320.210938 C 763.984375 320.210938 764.824219 320.25 765.664062 320.332031 C 766.507812 320.417969 767.339844 320.539062 768.167969 320.703125 C 768.996094 320.871094 769.816406 321.074219 770.625 321.320312 C 771.433594 321.5625 772.226562 321.847656 773.007812 322.171875 C 773.789062 322.492188 774.550781 322.855469 775.296875 323.253906 C 776.039062 323.648438 776.765625 324.082031 777.46875 324.550781 C 778.167969 325.019531 778.847656 325.523438 779.5 326.058594 C 780.152344 326.59375 780.777344 327.160156 781.375 327.757812 C 781.972656 328.351562 782.539062 328.976562 783.074219 329.628906 C 783.609375 330.28125 784.113281 330.960938 784.582031 331.660156 C 785.050781 332.363281 785.484375 333.085938 785.882812 333.832031 C 786.28125 334.574219 786.644531 335.335938 786.964844 336.117188 C 787.289062 336.894531 787.574219 337.691406 787.820312 338.496094 C 788.0625 339.304688 788.269531 340.121094 788.433594 340.949219 C 788.597656 341.777344 788.722656 342.613281 788.804688 343.453125 C 788.886719 344.292969 788.929688 345.132812 788.929688 345.976562 Z M 788.929688 345.976562 " fill-opacity="1" fill-rule="nonzero"/></svg>