<svg xmlns="http://www.w3.org/2000/svg" xmlns:xlink="http://www.w3.org/1999/xlink" width="1080" zoomAndPan="magnify" viewBox="0 0 810 809.999993" height="1080" preserveAspectRatio="xMidYMid meet" version="1.0"><defs><clipPath id="94cb04e133"><path d="M 211.125 275.089844 L 560 275.089844 L 560 369 L 211.125 369 Z M 211.125 275.089844 " clip-rule="nonzero"/></clipPath><clipPath id="04dc5adf00"><path d="M 260 319 L 389 319 L 389 491.839844 L 260 491.839844 Z M 260 319 " clip-rule="nonzero"/></clipPath></defs><path fill="#2b315f" class="pano" d="M 300.898438 317.597656 C 298.628906 317.597656 296.789062 319.4375 296.789062 321.707031 L 296.789062 405.265625 L 296.785156 405.265625 C 296.742188 405.582031 296.695312 405.90625 296.652344 406.242188 C 296.65625 406.878906 296.691406 407.261719 296.75 407.386719 C 296.925781 408.152344 297.324219 408.925781 297.941406 409.699219 C 298.078125 409.945312 298.539062 410.285156 299.324219 410.710938 C 299.683594 410.910156 300.085938 411.066406 300.53125 411.1875 L 300.527344 411.191406 L 307.457031 414.992188 C 307.527344 415.027344 307.597656 415.066406 307.667969 415.097656 L 316.460938 419.277344 C 316.53125 419.3125 316.601562 419.34375 316.675781 419.375 L 325.695312 423.039062 C 325.769531 423.066406 325.84375 423.09375 325.917969 423.121094 L 335.132812 426.253906 C 335.207031 426.28125 335.285156 426.304688 335.359375 426.324219 L 344.742188 428.917969 C 344.816406 428.941406 344.894531 428.960938 344.972656 428.976562 L 354.488281 431.023438 C 354.566406 431.039062 354.644531 431.054688 354.722656 431.066406 L 364.339844 432.558594 C 364.417969 432.570312 364.496094 432.578125 364.574219 432.585938 L 374.265625 433.519531 C 374.34375 433.527344 374.421875 433.53125 374.5 433.535156 L 384.226562 433.902344 C 384.28125 433.90625 384.332031 433.90625 384.382812 433.90625 C 384.40625 433.90625 384.433594 433.90625 384.457031 433.90625 L 393.515625 433.742188 C 393.589844 433.742188 393.660156 433.738281 393.734375 433.730469 L 402.769531 433.078125 C 402.84375 433.074219 402.917969 433.066406 402.992188 433.058594 L 411.976562 431.917969 C 412.050781 431.910156 412.125 431.898438 412.195312 431.886719 L 421.109375 430.261719 C 421.179688 430.25 421.253906 430.234375 421.324219 430.21875 L 430.136719 428.117188 C 430.207031 428.101562 430.277344 428.082031 430.351562 428.0625 L 439.035156 425.488281 C 439.105469 425.46875 439.175781 425.445312 439.246094 425.417969 L 447.78125 422.382812 C 447.851562 422.359375 447.917969 422.332031 447.988281 422.300781 L 456.34375 418.808594 C 456.414062 418.78125 456.480469 418.75 456.546875 418.71875 L 464.703125 414.78125 C 464.769531 414.746094 464.835938 414.714844 464.902344 414.679688 L 470.484375 411.601562 L 473.078125 410.238281 C 473.078125 410.238281 473.082031 410.238281 473.082031 410.238281 C 473.117188 410.238281 473.28125 410.085938 473.582031 409.78125 L 473.574219 409.785156 C 474.28125 409.28125 474.730469 408.78125 474.917969 408.285156 C 475 408.042969 475.054688 407.828125 475.085938 407.644531 C 475.128906 407.292969 475.140625 407.039062 475.121094 406.886719 L 474.960938 405.398438 L 474.960938 321.707031 C 474.960938 319.4375 473.121094 317.597656 470.851562 317.597656 C 470.824219 317.597656 470.796875 317.597656 470.769531 317.597656 Z M 300.898438 317.597656 " fill-opacity="1" fill-rule="nonzero"/><g clip-path="url(#94cb04e133)"><path fill="#464f92" class="sombra" d="M 385.871094 275.097656 C 385.488281 275.097656 385.113281 275.148438 384.753906 275.253906 L 384.75 275.253906 L 214.925781 317.71875 C 212.726562 318.269531 211.386719 320.5 211.9375 322.703125 C 212.328125 324.269531 213.570312 325.398438 215.042969 325.722656 L 215.039062 325.722656 L 384.878906 368.191406 L 384.875 368.195312 C 385.199219 368.273438 385.53125 368.316406 385.871094 368.316406 L 385.878906 368.316406 C 386.21875 368.316406 386.550781 368.273438 386.875 368.191406 L 386.871094 368.195312 L 556.6875 325.726562 L 556.679688 325.726562 C 558.167969 325.410156 559.417969 324.277344 559.8125 322.703125 C 560.363281 320.5 559.023438 318.269531 556.824219 317.71875 L 387 275.253906 L 386.996094 275.253906 C 386.636719 275.148438 386.261719 275.097656 385.878906 275.097656 Z M 385.871094 275.097656 " fill-opacity="1" fill-rule="nonzero"/></g><g clip-path="url(#04dc5adf00)"><path fill="#fe9800" class="detalhe" d="M 385.851562 319.199219 C 385.695312 319.199219 385.539062 319.210938 385.382812 319.238281 L 280.296875 337.417969 C 279.003906 337.640625 278.050781 338.75 278.027344 340.0625 L 276.722656 405.289062 L 276.71875 405.292969 C 276.433594 405.535156 276.195312 405.84375 276.023438 406.207031 L 273.558594 411.511719 C 273.542969 411.542969 273.53125 411.578125 273.515625 411.609375 L 271.253906 417.003906 C 271.242188 417.035156 271.226562 417.066406 271.214844 417.097656 L 269.15625 422.574219 C 269.144531 422.609375 269.132812 422.640625 269.125 422.671875 L 267.273438 428.222656 C 267.261719 428.257812 267.253906 428.289062 267.242188 428.324219 L 265.605469 433.9375 C 265.597656 433.972656 265.585938 434.003906 265.578125 434.039062 L 264.15625 439.714844 C 264.148438 439.746094 264.140625 439.78125 264.132812 439.8125 L 262.925781 445.539062 C 262.917969 445.574219 262.910156 445.605469 262.90625 445.640625 L 261.890625 451.566406 C 261.886719 451.597656 261.878906 451.632812 261.875 451.667969 L 261.09375 457.628906 C 261.089844 457.664062 261.085938 457.699219 261.082031 457.734375 L 260.53125 463.71875 C 260.527344 463.753906 260.527344 463.789062 260.523438 463.824219 L 260.207031 469.824219 C 260.203125 469.859375 260.203125 469.894531 260.203125 469.929688 L 260.121094 475.9375 C 260.121094 475.972656 260.121094 476.011719 260.121094 476.046875 L 260.269531 482.050781 C 260.273438 482.085938 260.273438 482.125 260.277344 482.160156 L 260.660156 488.15625 C 260.753906 489.605469 261.957031 490.71875 263.390625 490.71875 C 263.449219 490.71875 263.507812 490.71875 263.566406 490.714844 C 265.078125 490.617188 266.222656 489.316406 266.125 487.804688 L 265.746094 481.863281 L 265.597656 475.960938 L 265.679688 470.058594 L 265.992188 464.164062 L 266.53125 458.289062 L 266.703125 456.964844 L 266.453125 460.515625 C 266.449219 460.542969 266.449219 460.574219 266.449219 460.605469 L 266.179688 467.558594 C 266.179688 467.589844 266.179688 467.621094 266.179688 467.648438 L 266.136719 474.609375 C 266.136719 474.640625 266.136719 474.667969 266.140625 474.699219 L 266.324219 481.660156 C 266.324219 481.6875 266.328125 481.71875 266.328125 481.746094 L 266.742188 488.695312 C 266.828125 490.152344 268.035156 491.273438 269.472656 491.273438 C 269.527344 491.273438 269.582031 491.273438 269.636719 491.269531 C 271.148438 491.179688 272.300781 489.882812 272.210938 488.371094 L 271.800781 481.46875 L 271.613281 474.597656 L 271.65625 467.726562 L 271.894531 461.527344 L 272.144531 467.753906 C 272.148438 467.78125 272.148438 467.804688 272.148438 467.832031 L 272.613281 474.566406 C 272.617188 474.59375 272.617188 474.617188 272.621094 474.644531 L 273.277344 481.363281 C 273.28125 481.390625 273.28125 481.414062 273.285156 481.441406 L 274.132812 488.140625 C 274.308594 489.523438 275.488281 490.535156 276.847656 490.535156 C 276.960938 490.535156 277.078125 490.527344 277.191406 490.511719 C 278.695312 490.324219 279.757812 488.953125 279.566406 487.453125 L 278.726562 480.792969 L 278.078125 474.152344 L 277.617188 467.492188 L 277.347656 460.824219 L 277.265625 454.152344 L 277.375 447.476562 L 277.679688 440.714844 L 278.179688 433.964844 L 278.453125 431.308594 L 278.792969 438.3125 L 279.09375 445.476562 L 279.351562 452.644531 L 279.566406 459.929688 L 279.730469 467.210938 L 279.84375 474.488281 L 279.914062 481.769531 L 279.933594 489.0625 C 279.9375 490.574219 281.164062 491.792969 282.671875 491.792969 C 282.675781 491.792969 282.675781 491.792969 282.679688 491.792969 C 284.191406 491.789062 285.414062 490.558594 285.410156 489.046875 L 285.390625 481.746094 L 285.390625 481.730469 L 285.320312 474.429688 L 285.320312 474.410156 L 285.207031 467.113281 L 285.203125 467.09375 L 285.039062 459.796875 L 285.039062 459.777344 L 284.828125 452.480469 L 284.824219 452.460938 L 284.570312 445.277344 L 284.570312 445.257812 L 284.265625 438.074219 L 284.265625 438.054688 L 284.210938 436.925781 L 284.75 440.679688 L 285.492188 447.003906 L 286.085938 453.578125 L 286.5 460.164062 L 286.734375 466.761719 L 286.789062 473.363281 L 286.660156 479.964844 L 286.355469 486.59375 C 286.285156 488.105469 287.453125 489.386719 288.964844 489.457031 C 289.007812 489.457031 289.050781 489.457031 289.09375 489.457031 C 290.546875 489.457031 291.757812 488.3125 291.828125 486.847656 L 292.136719 480.175781 C 292.136719 480.152344 292.136719 480.128906 292.136719 480.101562 L 292.265625 473.429688 C 292.265625 473.402344 292.265625 473.378906 292.265625 473.355469 L 292.210938 466.679688 C 292.210938 466.65625 292.207031 466.628906 292.207031 466.605469 L 291.972656 459.933594 C 291.96875 459.910156 291.96875 459.882812 291.96875 459.859375 L 291.625 454.40625 L 292.203125 458.203125 L 292.898438 464.152344 L 293.390625 470.121094 L 293.683594 476.101562 L 293.765625 482.089844 L 293.644531 488.125 C 293.617188 489.636719 294.816406 490.886719 296.328125 490.917969 C 296.347656 490.917969 296.367188 490.917969 296.386719 490.917969 C 297.871094 490.917969 299.09375 489.726562 299.121094 488.234375 L 299.242188 482.152344 C 299.246094 482.121094 299.246094 482.089844 299.242188 482.058594 L 299.15625 475.976562 C 299.15625 475.945312 299.15625 475.914062 299.15625 475.882812 L 298.859375 469.808594 C 298.859375 469.777344 298.855469 469.746094 298.855469 469.714844 L 298.351562 463.652344 C 298.351562 463.621094 298.347656 463.589844 298.34375 463.558594 L 297.636719 457.519531 C 297.632812 457.488281 297.628906 457.457031 297.625 457.425781 L 296.710938 451.414062 C 296.703125 451.382812 296.699219 451.351562 296.695312 451.320312 L 295.574219 445.339844 C 295.570312 445.3125 295.5625 445.28125 295.558594 445.25 L 294.234375 439.3125 C 294.226562 439.285156 294.222656 439.253906 294.214844 439.222656 L 292.691406 433.335938 C 292.683594 433.304688 292.671875 433.277344 292.664062 433.246094 L 290.941406 427.414062 C 290.933594 427.382812 290.921875 427.355469 290.914062 427.324219 L 288.992188 421.554688 C 288.980469 421.527344 288.972656 421.496094 288.960938 421.46875 L 286.84375 415.769531 C 286.832031 415.738281 286.820312 415.710938 286.808594 415.679688 L 284.496094 410.054688 C 284.484375 410.027344 284.472656 410 284.460938 409.96875 L 284.195312 409.378906 L 284.195312 409.382812 L 283.867188 408.09375 C 283.722656 407.515625 283.402344 407.027344 282.976562 406.667969 L 282.972656 406.671875 L 282.207031 404.976562 L 283.457031 342.429688 L 386.316406 324.636719 C 387.804688 324.378906 388.804688 322.960938 388.546875 321.472656 C 388.316406 320.136719 387.160156 319.199219 385.851562 319.199219 Z M 385.851562 319.199219 " fill-opacity="1" fill-rule="nonzero"/></g></svg>