<svg xmlns="http://www.w3.org/2000/svg" xmlns:xlink="http://www.w3.org/1999/xlink" width="1920" zoomAndPan="magnify" viewBox="0 0 1440 809.999993" height="1080" preserveAspectRatio="xMidYMid meet" version="1.0"><path fill="#ff66c4" class="sombra" d="M 849.617188 625.535156 C 839.175781 640.511719 810.855469 643.601562 795.238281 646.460938 C 778.921875 649.457031 761.539062 650.726562 744.699219 650.089844 C 738.324219 649.839844 729.085938 651.042969 724.003906 646.234375 C 718.804688 641.308594 719.714844 631.707031 719.757812 625.261719 C 719.804688 621.539062 719.644531 618.089844 719.167969 614.414062 C 718.917969 612.53125 718.214844 598.824219 716.832031 598.257812 C 716.648438 598.1875 716.492188 598.03125 716.421875 597.78125 C 715.605469 594.828125 713.972656 592.21875 711.722656 590.132812 C 707.707031 586.410156 702.058594 584.777344 696.746094 586.207031 C 690.4375 587.929688 685.875 592.671875 685.488281 599.1875 C 685.035156 606.722656 684.558594 614.257812 684.082031 621.789062 C 683.425781 632.390625 683.21875 644.507812 671.511719 648.546875 C 666.3125 650.339844 660.660156 650.046875 655.261719 649.816406 C 644.933594 649.363281 634.585938 648.910156 624.261719 648.117188 C 614.117188 647.34375 603.925781 646.347656 593.941406 644.394531 C 583.183594 642.304688 572.652344 638.652344 563.324219 632.84375 C 553.25 626.578125 548.144531 620.679688 548.710938 608.558594 C 549.9375 581.757812 550.867188 554.75 556.199219 528.359375 C 562.167969 498.765625 572.109375 468.535156 588.605469 443.140625 C 593.28125 435.945312 598.320312 429.023438 603.0625 421.875 C 607.421875 415.292969 611.527344 408.460938 614.75 401.222656 C 616.5 397.320312 617.949219 393.300781 619.109375 389.195312 C 620.128906 385.5625 619.609375 381.5 620.789062 378.027344 C 621.96875 374.511719 625.917969 372.671875 629.59375 372.195312 C 673.9375 366.453125 722.074219 364.570312 766.417969 371.015625 C 773.429688 372.039062 787.230469 370.585938 791.109375 378.210938 C 793.878906 383.679688 792.222656 390.421875 793.015625 396.207031 C 795.808594 416.472656 808.992188 436.242188 818.140625 454.214844 C 839.949219 497.085938 846.6875 543.425781 851.023438 590.722656 C 851.679688 597.984375 853.65625 605.132812 853.632812 612.484375 C 853.632812 617.636719 852.136719 621.925781 849.617188 625.535156 Z M 849.617188 625.535156 " fill-opacity="1" fill-rule="nonzero"/><path fill="#000000" d="M 624.53125 378.414062 C 631.25 385.585938 640.757812 389.011719 650.175781 390.917969 C 655.304688 391.964844 660.503906 392.597656 665.699219 393.1875 C 671.851562 393.894531 678.023438 394.414062 684.195312 394.800781 C 696.496094 395.550781 708.863281 395.664062 721.1875 395.164062 C 733.488281 394.664062 745.765625 393.53125 757.953125 391.757812 C 767.28125 390.421875 777.878906 389.082031 785.140625 382.453125 C 786.003906 381.660156 786.796875 380.820312 787.523438 379.914062 C 787.773438 379.59375 787.320312 379.117188 787.070312 379.460938 C 781.035156 387.085938 770.820312 389.148438 761.71875 390.554688 C 749.667969 392.417969 737.527344 393.6875 725.339844 394.324219 C 713.289062 394.960938 701.21875 394.980469 689.144531 394.414062 C 677.5 393.871094 665.789062 392.917969 654.285156 391.011719 C 644.820312 389.445312 634.972656 386.765625 627.550781 380.390625 C 626.664062 379.617188 625.824219 378.824219 625.03125 377.960938 C 624.738281 377.667969 624.28125 378.121094 624.578125 378.414062 Z M 624.53125 378.414062 " fill-opacity="1" fill-rule="nonzero"/><path fill="#ff66c4" class="detalhe" d="M 814.804688 255.976562 C 814.078125 261.335938 812.851562 266.644531 811.148438 271.796875 C 810.96875 272.75 810.832031 273.726562 810.671875 274.679688 C 807.949219 289.226562 802.503906 303.160156 800.074219 317.753906 L 794.855469 344.144531 C 795.171875 344.464844 795.285156 345.078125 794.785156 345.417969 C 794.71875 345.484375 794.605469 345.507812 794.535156 345.554688 C 794.402344 345.757812 794.195312 345.847656 793.96875 345.847656 C 780.714844 345.847656 767.574219 344.304688 754.367188 344.011719 C 740.25 343.691406 726.179688 343.511719 712.066406 343.441406 C 683.878906 343.328125 655.667969 343.667969 627.484375 344.507812 C 622.851562 344.644531 614.546875 347.800781 610.484375 344.667969 C 609.871094 344.191406 609.351562 343.535156 609.054688 342.808594 C 608.875 342.714844 608.757812 342.582031 608.714844 342.332031 C 605.765625 329.894531 604.539062 317.183594 602.449219 304.589844 C 598.863281 283.167969 589.695312 262.921875 588.378906 241.046875 C 587.519531 226.769531 594.347656 213.699219 596.84375 199.921875 C 599.410156 185.648438 598.683594 170.648438 599.546875 156.507812 C 599.886719 150.878906 600.273438 145.273438 600.613281 139.644531 C 600.90625 135.199219 600.179688 129.046875 602.269531 124.964844 C 603.859375 121.875 607.488281 121.035156 610.6875 121.058594 C 613.183594 121.058594 620.449219 119.8125 622.46875 120.96875 C 626.507812 123.238281 622.308594 135.085938 622.195312 138.511719 C 621.558594 157.371094 624.394531 176.320312 630.570312 194.179688 C 633.996094 204.121094 649.792969 210.023438 658.867188 212.609375 C 669.648438 215.671875 680.949219 216.421875 692.117188 216.46875 C 705.394531 216.535156 718.625 215.332031 731.785156 213.652344 C 738.074219 212.835938 744.359375 212.042969 750.601562 210.816406 C 757.816406 209.386719 765.191406 207.027344 771.273438 202.804688 C 777.378906 198.582031 780.445312 192.046875 781.53125 184.832031 C 783.394531 172.691406 782.578125 157.824219 780.828125 145.707031 C 779.921875 139.417969 778.695312 126.824219 782.984375 121.71875 C 786.277344 117.792969 794.71875 120.46875 798.960938 120.902344 C 800.347656 121.035156 802.003906 120.992188 803.207031 121.785156 C 803.636719 122.082031 803.976562 122.488281 804.203125 122.941406 C 806.996094 128.933594 805.269531 136.898438 805.453125 143.574219 C 805.726562 152.402344 806.203125 161.230469 806.90625 170.035156 C 808.039062 183.902344 810.535156 197.628906 812.238281 211.453125 C 812.421875 212.269531 812.601562 213.085938 812.761719 213.902344 C 815.394531 227.722656 816.6875 241.90625 814.78125 255.910156 Z M 814.804688 255.976562 " fill-opacity="1" fill-rule="nonzero"/><path fill="#000000" d="M 611.121094 324.832031 C 633.472656 322.359375 655.894531 320.726562 678.363281 319.953125 C 700.832031 319.183594 723.320312 319.273438 745.789062 320.226562 C 758.382812 320.75 770.957031 321.566406 783.53125 322.632812 C 783.9375 322.675781 783.9375 322.019531 783.53125 321.972656 C 761.128906 320.066406 738.664062 319 716.171875 318.820312 C 693.683594 318.613281 671.214844 319.296875 648.769531 320.816406 C 636.199219 321.679688 623.648438 322.789062 611.121094 324.175781 C 610.710938 324.21875 610.710938 324.878906 611.121094 324.832031 Z M 611.121094 324.832031 " fill-opacity="1" fill-rule="nonzero"/></svg>