<svg xmlns="http://www.w3.org/2000/svg" xmlns:xlink="http://www.w3.org/1999/xlink" width="1920" zoomAndPan="magnify" viewBox="0 0 1440 809.999993" height="1080" preserveAspectRatio="xMidYMid meet" version="1.0"><defs><clipPath id="5889a95324"><path d="M 508.46875 59.074219 L 622 59.074219 L 622 189 L 508.46875 189 Z M 508.46875 59.074219 " clip-rule="nonzero"/></clipPath><clipPath id="e94d10f7f0"><path d="M 508.46875 84 L 546 84 L 546 188 L 508.46875 188 Z M 508.46875 84 " clip-rule="nonzero"/></clipPath><clipPath id="a3e65cc2cf"><path d="M 730 59.074219 L 843.71875 59.074219 L 843.71875 189 L 730 189 Z M 730 59.074219 " clip-rule="nonzero"/></clipPath><clipPath id="8231402601"><path d="M 806 84 L 843.71875 84 L 843.71875 188 L 806 188 Z M 806 84 " clip-rule="nonzero"/></clipPath><clipPath id="bfc1c53410"><path d="M 553 59.074219 L 799 59.074219 L 799 356.824219 L 553 356.824219 Z M 553 59.074219 " clip-rule="nonzero"/></clipPath><clipPath id="0a66399b09"><path d="M 610 59.074219 L 742 59.074219 L 742 106 L 610 106 Z M 610 59.074219 " clip-rule="nonzero"/></clipPath><clipPath id="95d15a99b0"><path d="M 484 410 L 853 410 L 853 713 L 484 713 Z M 484 410 " clip-rule="nonzero"/></clipPath><clipPath id="9735e8bcc8"><path d="M 455.769531 420.757812 L 822.429688 379.269531 L 858.859375 701.214844 L 492.199219 742.703125 Z M 455.769531 420.757812 " clip-rule="nonzero"/></clipPath><clipPath id="f61ae04f5c"><path d="M 455.769531 420.757812 L 822.429688 379.269531 L 858.859375 701.214844 L 492.199219 742.703125 Z M 455.769531 420.757812 " clip-rule="nonzero"/></clipPath><clipPath id="04c4ea1fd3"><path d="M 488 420 L 845 420 L 845 700 L 488 700 Z M 488 420 " clip-rule="nonzero"/></clipPath><clipPath id="37bda814b8"><path d="M 455.769531 420.757812 L 822.429688 379.269531 L 858.859375 701.214844 L 492.199219 742.703125 Z M 455.769531 420.757812 " clip-rule="nonzero"/></clipPath><clipPath id="384016f6cb"><path d="M 455.769531 420.757812 L 822.429688 379.269531 L 858.859375 701.214844 L 492.199219 742.703125 Z M 455.769531 420.757812 " clip-rule="nonzero"/></clipPath></defs><g clip-path="url(#5889a95324)"><path fill="#a6a6a6" class="pano" d="M 610.882812 59.074219 C 582.960938 59.074219 508.496094 77.691406 508.496094 96.308594 C 508.496094 114.921875 517.804688 161.464844 527.113281 180.078125 C 536.417969 198.695312 601.574219 180.078125 610.882812 170.769531 C 620.191406 161.464844 629.5 59.074219 610.882812 59.074219 Z M 610.882812 59.074219 " fill-opacity="1" fill-rule="nonzero"/></g><g clip-path="url(#e94d10f7f0)"><path fill="#545454" class="sombra" d="M 517.804688 84.363281 C 511.773438 87.820312 508.496094 92.257812 508.496094 96.308594 C 508.496094 114.921875 517.804688 161.464844 527.113281 180.078125 C 529.726562 185.308594 536.78125 187.3125 545.726562 187.992188 C 536.417969 161.464844 527.113281 124.230469 517.804688 84.363281 Z M 517.804688 84.363281 " fill-opacity="1" fill-rule="nonzero"/></g><g clip-path="url(#a3e65cc2cf)"><path fill="#a6a6a6" class="pano" d="M 741.195312 59.074219 C 769.121094 59.074219 843.582031 77.691406 843.582031 96.308594 C 843.582031 114.921875 834.273438 161.464844 824.96875 180.078125 C 815.660156 198.695312 750.503906 180.078125 741.195312 170.769531 C 731.886719 161.464844 722.578125 59.074219 741.195312 59.074219 Z M 741.195312 59.074219 " fill-opacity="1" fill-rule="nonzero"/></g><g clip-path="url(#8231402601)"><path fill="#545454" class="sombra" d="M 834.273438 84.363281 C 840.308594 87.820312 843.582031 92.257812 843.582031 96.308594 C 843.582031 114.921875 834.273438 161.464844 824.96875 180.078125 C 822.351562 185.308594 815.296875 187.3125 806.351562 187.992188 C 815.660156 161.464844 824.96875 124.230469 834.273438 84.363281 Z M 834.273438 84.363281 " fill-opacity="1" fill-rule="nonzero"/></g><g clip-path="url(#bfc1c53410)"><path fill="#a6a6a6" class="pano" d="M 741.195312 59.074219 L 731.253906 59.074219 C 727.371094 74.851562 704.160156 87 676.039062 87 C 647.921875 87 624.707031 74.851562 620.824219 59.074219 L 610.882812 59.074219 C 590.320312 59.074219 564.34375 75.746094 564.34375 96.308594 C 564.34375 96.308594 564.34375 282.46875 555.035156 319.699219 C 545.726562 356.929688 571.707031 356.929688 592.269531 356.929688 L 759.8125 356.929688 C 780.371094 356.929688 806.351562 356.929688 797.042969 319.699219 C 787.734375 282.46875 787.734375 96.308594 787.734375 96.308594 C 787.734375 75.746094 761.757812 59.074219 741.195312 59.074219 Z M 741.195312 59.074219 " fill-opacity="1" fill-rule="nonzero"/></g><g clip-path="url(#0a66399b09)"><path fill="#545454" class="sombra" d="M 676.039062 105.617188 C 712.023438 105.617188 741.195312 84.773438 741.195312 59.074219 L 731.253906 59.074219 C 727.371094 74.851562 704.160156 87 676.039062 87 C 647.921875 87 624.707031 74.851562 620.824219 59.074219 L 610.882812 59.074219 C 610.882812 84.773438 640.054688 105.617188 676.039062 105.617188 Z M 676.039062 105.617188 " fill-opacity="1" fill-rule="nonzero"/></g><g clip-path="url(#95d15a99b0)"><g clip-path="url(#9735e8bcc8)"><g clip-path="url(#f61ae04f5c)"><path fill="#737373" class="detalhe" d="M 782.542969 708.238281 C 795.910156 706.109375 809.136719 703.113281 822.109375 699.253906 C 830.175781 696.855469 838.167969 694.121094 845.714844 690.398438 C 847.707031 689.417969 849.738281 688.300781 851.003906 686.480469 C 852.699219 684.046875 852.703125 680.859375 852.597656 677.894531 C 851.398438 644.703125 814.191406 480.589844 812.25 470.398438 C 810.148438 459.347656 807.683594 448.320312 805.875 437.21875 C 804.859375 430.980469 806.488281 417.648438 799.945312 413.703125 C 796.640625 411.710938 788.535156 412.855469 784.667969 412.789062 C 779.101562 412.699219 773.535156 412.769531 767.96875 412.960938 C 756.8125 413.34375 745.679688 414.210938 734.5625 415.199219 C 712.523438 417.160156 690.484375 419.632812 668.335938 419.871094 C 633.855469 420.242188 599.582031 415.191406 565.378906 410.800781 C 558.746094 409.953125 553.085938 409.550781 551.429688 417.039062 C 544.460938 448.597656 535.199219 479.585938 525.761719 510.476562 C 520.992188 526.082031 516.167969 541.675781 511.566406 557.332031 C 507.132812 572.429688 503.882812 588.25 498.597656 602.988281 C 492.09375 621.125 488.203125 640.667969 484.550781 659.589844 C 484.207031 661.378906 483.871094 663.238281 484.332031 665.003906 C 485.078125 667.867188 487.703125 669.785156 490.195312 671.382812 C 506.261719 681.667969 524.160156 688.6875 541.992188 695.460938 C 547.636719 697.601562 553.3125 699.738281 559.21875 700.984375 C 563.742188 701.941406 568.359375 702.371094 572.960938 702.796875 C 596.40625 704.96875 620.050781 707.140625 643.449219 704.519531 C 645.960938 704.238281 648.527344 703.882812 650.765625 702.703125 C 657.117188 699.355469 657.371094 692.429688 658.65625 686.269531 C 660.226562 678.742188 661.53125 671.226562 662.707031 663.542969 C 665.601562 644.648438 668.40625 624.957031 673.855469 606.613281 C 676.214844 612.6875 675.785156 621.644531 676.773438 628.21875 C 677.988281 636.296875 679.242188 644.367188 680.53125 652.433594 C 683.113281 668.566406 685.847656 684.675781 688.734375 700.753906 C 689.230469 703.519531 689.875 706.535156 692.082031 708.273438 C 693.734375 709.570312 695.933594 709.878906 698.023438 710.117188 C 726.105469 713.34375 754.628906 712.6875 782.542969 708.238281 Z M 782.542969 708.238281 " fill-opacity="1" fill-rule="nonzero"/></g></g></g><g clip-path="url(#04c4ea1fd3)"><g clip-path="url(#37bda814b8)"><g clip-path="url(#384016f6cb)"><path fill="#000000" d="M 669.660156 438.277344 C 668.222656 437.214844 667.652344 435.246094 668.398438 433.613281 C 668.578125 433.214844 668.851562 432.863281 669.183594 432.585938 C 669.542969 432.0625 669.992188 431.597656 670.628906 431.335938 C 671.542969 430.960938 672.515625 430.96875 673.480469 431.105469 C 674.335938 431.226562 675.335938 431.375 676.074219 431.859375 C 676.546875 432.171875 676.9375 432.644531 677.035156 433.214844 C 677.140625 433.835938 676.976562 434.414062 676.742188 434.984375 C 676.355469 435.925781 675.855469 436.820312 675.113281 437.53125 C 673.726562 438.867188 671.328125 439.507812 669.660156 438.277344 Z M 686.964844 519.167969 C 687.054688 507.167969 687.855469 495.1875 688.175781 483.195312 C 688.480469 471.878906 687.335938 460.707031 687.039062 449.4375 C 707.238281 449.101562 727.421875 447.777344 747.496094 445.519531 C 759.671875 444.148438 772.996094 443.203125 784.835938 438.972656 C 784.417969 442.765625 785.75 447.238281 786.511719 450.765625 C 787.585938 455.730469 789.074219 460.628906 790.871094 465.375 C 794.210938 474.203125 798.648438 483.328125 805.179688 490.261719 C 805.53125 490.636719 806.066406 490.171875 805.863281 489.746094 C 801.757812 481.050781 797.027344 472.765625 793.679688 463.703125 C 792.070312 459.347656 790.703125 454.921875 789.535156 450.429688 C 788.933594 448.113281 788.390625 445.785156 787.910156 443.441406 C 787.554688 441.710938 787.296875 439.921875 786.625 438.289062 C 790.292969 436.851562 793.816406 435.109375 797.074219 432.867188 C 798.121094 432.144531 797.25 430.636719 796.097656 431.164062 C 788.207031 434.753906 780.03125 437.023438 771.695312 438.667969 C 771.699219 438.574219 771.707031 438.484375 771.714844 438.390625 C 771.78125 437.535156 771.84375 436.683594 771.800781 435.824219 C 771.71875 434.246094 771.535156 432.667969 771.347656 431.097656 C 770.960938 427.835938 770.328125 424.671875 769.5 421.496094 C 769.265625 420.59375 767.855469 420.886719 767.90625 421.796875 C 768.097656 425.011719 768.304688 428.214844 768.574219 431.421875 C 768.707031 433 768.796875 434.582031 768.957031 436.15625 C 769.039062 436.949219 769.199219 437.730469 769.359375 438.511719 C 769.398438 438.714844 769.433594 438.90625 769.46875 439.105469 C 763.640625 440.171875 757.738281 440.960938 751.789062 441.671875 C 741.480469 442.902344 731.140625 443.867188 720.785156 444.609375 C 721.71875 443.824219 721.4375 442.035156 721.375 440.964844 C 721.285156 439.460938 721.140625 437.960938 720.972656 436.464844 C 720.632812 433.480469 719.976562 430.617188 719.15625 427.734375 C 718.984375 427.128906 718.011719 427.308594 718.066406 427.9375 C 718.320312 430.871094 718.507812 433.808594 718.785156 436.742188 C 718.921875 438.1875 719.023438 439.632812 719.121094 441.078125 C 719.191406 442.171875 719.074219 443.953125 720.078125 444.660156 C 714.683594 445.039062 709.285156 445.378906 703.882812 445.617188 C 678.554688 446.746094 653.152344 446.277344 627.890625 444.085938 C 627.863281 443.339844 627.871094 442.589844 627.855469 441.84375 C 627.820312 440.230469 627.773438 438.621094 627.707031 437.007812 C 627.644531 435.496094 627.554688 433.984375 627.503906 432.46875 C 627.445312 430.917969 627.371094 429.386719 627.957031 427.914062 C 628.226562 427.234375 627.269531 426.703125 626.925781 427.382812 C 625.160156 430.851562 625.253906 434.597656 625.167969 438.394531 C 625.128906 440.183594 625.039062 442.042969 625.128906 443.84375 C 619.980469 443.371094 614.835938 442.855469 609.699219 442.234375 C 604.300781 441.582031 598.914062 440.816406 593.539062 439.988281 C 593.632812 439.609375 593.703125 439.226562 593.726562 438.785156 C 593.765625 438.171875 593.777344 437.558594 593.796875 436.945312 C 593.835938 435.566406 593.929688 434.191406 594.019531 432.8125 C 594.105469 431.492188 594.230469 430.175781 594.304688 428.855469 C 594.375 427.558594 594.65625 426.179688 594.390625 424.898438 C 594.25 424.21875 593.351562 424.320312 593.066406 424.800781 L 593.058594 424.796875 C 592.351562 425.933594 592.175781 427.515625 591.914062 428.808594 C 591.65625 430.101562 591.476562 431.429688 591.34375 432.742188 C 591.207031 434.085938 591.117188 435.433594 591.046875 436.78125 C 591.011719 437.496094 590.972656 438.210938 590.996094 438.925781 C 591.003906 439.160156 591.050781 439.371094 591.089844 439.589844 C 588.109375 439.117188 585.125 438.660156 582.15625 438.132812 C 577.652344 437.332031 573.160156 436.472656 568.671875 435.582031 C 564.863281 434.824219 559.523438 434.566406 557.359375 430.824219 C 556.71875 429.714844 555.128906 430.667969 555.65625 431.800781 C 557.5625 435.917969 561.878906 437.261719 566.09375 438.167969 C 565.292969 439.539062 564.960938 441.179688 564.503906 442.703125 C 563.78125 445.101562 563.042969 447.492188 562.25 449.871094 C 560.710938 454.480469 559.027344 459.023438 557.140625 463.5 C 553.339844 472.511719 548.023438 480.867188 544.488281 489.96875 C 544.285156 490.484375 545.03125 490.882812 545.390625 490.507812 C 552.078125 483.542969 556.214844 474.058594 559.90625 465.261719 C 561.839844 460.652344 563.558594 455.929688 565.023438 451.152344 C 565.757812 448.761719 566.4375 446.34375 567.027344 443.914062 C 567.4375 442.230469 568.03125 440.328125 567.90625 438.546875 C 568.449219 438.652344 568.988281 438.761719 569.511719 438.871094 C 577.898438 440.636719 586.335938 442.140625 594.808594 443.4375 C 611.335938 445.960938 627.976562 447.6875 644.667969 448.632812 C 650.988281 448.992188 657.308594 449.207031 663.636719 449.355469 C 661.523438 472.097656 661.226562 495.082031 660.4375 517.894531 C 660.027344 529.6875 659.699219 541.449219 660.355469 553.242188 C 661.023438 565.300781 662.125 577.285156 661.824219 589.375 C 661.8125 589.941406 662.6875 589.988281 662.808594 589.453125 C 665.320312 578.351562 664.707031 566.925781 664.039062 555.652344 C 663.328125 543.570312 663.507812 531.550781 663.929688 519.464844 C 664.75 496.164062 666.125 472.71875 665.578125 449.398438 C 672.226562 449.53125 678.875 449.5625 685.519531 449.46875 C 684.789062 459.554688 685.519531 469.734375 685.257812 479.839844 C 684.957031 491.257812 684.109375 502.652344 683.8125 514.070312 C 683.523438 525.316406 685.128906 536.679688 684.367188 547.878906 C 683.625 558.722656 680.03125 568.597656 674.652344 577.9375 C 674.46875 578.253906 674.9375 578.574219 675.175781 578.300781 C 681.347656 571.160156 685.578125 561.867188 687.058594 552.566406 C 688.8125 541.578125 686.882812 530.234375 686.964844 519.167969 Z M 648.140625 690.011719 C 641.757812 689.140625 635.148438 689.910156 628.734375 690.082031 C 621.773438 690.269531 614.804688 690.351562 607.839844 690.328125 C 593.441406 690.28125 579.371094 690.277344 565.71875 685.152344 C 543.417969 676.785156 521.695312 666.628906 499.226562 658.65625 C 499.265625 658.597656 499.339844 658.585938 499.367188 658.515625 C 501.863281 652.453125 502.703125 645.4375 504.144531 639.050781 C 505.722656 632.066406 507.296875 625.085938 508.871094 618.101562 C 511.957031 604.425781 515.027344 590.75 518.101562 577.074219 C 524.148438 550.210938 530.960938 523.234375 540.363281 497.316406 C 540.582031 496.707031 539.699219 496.214844 539.441406 496.839844 C 534.398438 509.078125 529.535156 521.152344 525.660156 533.835938 C 521.550781 547.273438 518.316406 560.9375 515.214844 574.632812 C 512.054688 588.585938 508.890625 602.539062 505.738281 616.492188 C 504.160156 623.476562 502.585938 630.457031 501.011719 637.441406 C 499.511719 644.074219 497.175781 651.027344 496.785156 657.828125 C 494.316406 656.96875 491.84375 656.113281 489.351562 655.320312 C 488.582031 655.074219 488.167969 656.289062 488.875 656.636719 C 501.914062 663.0625 515.605469 668.242188 529.066406 673.707031 C 541.648438 678.8125 554.160156 684.335938 566.964844 688.871094 C 579.683594 693.371094 592.921875 693.332031 606.257812 693.414062 C 613.222656 693.457031 620.191406 693.394531 627.152344 693.226562 C 634.109375 693.058594 641.4375 693.347656 648.222656 691.667969 C 649.035156 691.46875 648.96875 690.125 648.140625 690.011719 Z M 842.929688 674.660156 C 837.257812 676.25 831.890625 678.773438 826.332031 680.714844 C 820.746094 682.667969 815.054688 684.296875 809.308594 685.699219 C 797.546875 688.570312 785.554688 690.441406 773.558594 692.015625 C 749.988281 695.105469 726.378906 696.03125 702.703125 697.476562 C 702.652344 697.285156 702.605469 697.082031 702.550781 696.890625 C 702.378906 696.253906 702.214844 695.625 702.132812 694.945312 C 701.964844 693.542969 701.871094 692.128906 701.785156 690.722656 C 701.617188 688.09375 701.546875 685.460938 701.375 682.832031 C 701.367188 682.707031 701.359375 682.582031 701.347656 682.453125 C 700.90625 677.847656 700.402344 673.246094 699.828125 668.652344 C 698.652344 659.183594 697.195312 649.742188 695.46875 640.355469 C 692.125 622.199219 687.464844 604.582031 681.425781 587.144531 C 681.15625 586.375 680.03125 586.761719 680.230469 587.542969 C 685.195312 606.992188 689.59375 626.734375 692.988281 646.519531 C 694.601562 655.929688 695.941406 665.382812 697.003906 674.871094 C 697.550781 679.753906 698.027344 684.652344 698.425781 689.550781 C 698.613281 691.808594 698.554688 694.160156 698.65625 696.4375 C 698.671875 696.828125 698.6875 697.21875 698.753906 697.605469 C 698.761719 697.644531 698.785156 697.679688 698.792969 697.71875 C 698.25 697.753906 697.703125 697.785156 697.160156 697.820312 C 696.175781 697.886719 696.300781 699.253906 697.234375 699.316406 C 723.503906 701.046875 750.316406 698.527344 776.355469 695.097656 C 787.789062 693.589844 799.199219 691.75 810.410156 689.011719 C 821.546875 686.292969 834.375 683.21875 843.714844 676.285156 C 844.542969 675.671875 843.941406 674.378906 842.929688 674.660156 Z M 842.929688 674.660156 " fill-opacity="1" fill-rule="nonzero"/></g></g></g></svg>