<svg xmlns="http://www.w3.org/2000/svg" xmlns:xlink="http://www.w3.org/1999/xlink" width="1080" zoomAndPan="magnify" viewBox="0 0 810 809.999993" height="1080" preserveAspectRatio="xMidYMid meet" version="1.0"><defs><clipPath id="ee75c378a0"><path d="M 283 351.871094 L 529.410156 351.871094 L 529.410156 489.734375 L 283 489.734375 Z M 283 351.871094 " clip-rule="nonzero"/></clipPath><clipPath id="d6eb744ac2"><path d="M 276.464844 376 L 289 376 L 289 389 L 276.464844 389 Z M 276.464844 376 " clip-rule="nonzero"/></clipPath><clipPath id="94ffd462c4"><path d="M 399 346.484375 L 412 346.484375 L 412 359 L 399 359 Z M 399 346.484375 " clip-rule="nonzero"/></clipPath><clipPath id="f5ef67bf14"><path d="M 521.726562 379.566406 L 533.605469 379.566406 L 533.605469 391.621094 L 521.726562 391.621094 Z M 521.726562 379.566406 " clip-rule="nonzero"/></clipPath></defs><path fill="#f75291" class="sombra" d="M 321.988281 425.480469 L 340.496094 373.957031 L 367.097656 421.425781 Z M 321.988281 425.480469 " fill-opacity="1" fill-rule="nonzero"/><path fill="#f75291" class="sombra" d="M 444.667969 425.480469 L 463.171875 373.957031 L 489.773438 421.425781 Z M 444.667969 425.480469 " fill-opacity="1" fill-rule="nonzero"/><g clip-path="url(#ee75c378a0)"><path fill="#ff699c" class="detalhe" d="M 406.132812 351.9375 C 406.132812 351.9375 342.96875 477.992188 283.085938 383.554688 C 283.085938 383.554688 285.371094 419.5 302.597656 478.625 C 419.902344 504.082031 511.058594 477.855469 511.058594 477.855469 C 528.285156 418.726562 529.179688 384.375 529.179688 384.375 C 469.296875 478.816406 406.132812 351.9375 406.132812 351.9375 " fill-opacity="1" fill-rule="nonzero"/></g><g clip-path="url(#d6eb744ac2)"><path fill="#ff699c" class="detalhe" d="M 288.394531 382.894531 C 288.394531 386.164062 285.746094 388.8125 282.484375 388.8125 C 279.21875 388.8125 276.570312 386.164062 276.570312 382.894531 C 276.570312 379.628906 279.21875 376.976562 282.484375 376.976562 C 285.746094 376.976562 288.394531 379.628906 288.394531 382.894531 " fill-opacity="1" fill-rule="nonzero"/></g><g clip-path="url(#94ffd462c4)"><path fill="#ff699c" class="detalhe" d="M 411.773438 352.402344 C 411.773438 355.671875 409.125 358.320312 405.859375 358.320312 C 402.59375 358.320312 399.949219 355.671875 399.949219 352.402344 C 399.949219 349.136719 402.59375 346.488281 405.859375 346.488281 C 409.125 346.488281 411.773438 349.136719 411.773438 352.402344 " fill-opacity="1" fill-rule="nonzero"/></g><g clip-path="url(#f5ef67bf14)"><path fill="#ff699c" class="detalhe" d="M 533.605469 385.597656 C 533.605469 388.867188 530.960938 391.515625 527.695312 391.515625 C 524.429688 391.515625 521.78125 388.867188 521.78125 385.597656 C 521.78125 382.328125 524.429688 379.679688 527.695312 379.679688 C 530.960938 379.679688 533.605469 382.328125 533.605469 385.597656 " fill-opacity="1" fill-rule="nonzero"/></g><path fill="#f75291" class="sombra" d="M 469.1875 374.019531 C 469.1875 377.285156 466.542969 379.9375 463.277344 379.9375 C 460.011719 379.9375 457.367188 377.285156 457.367188 374.019531 C 457.367188 370.75 460.011719 368.101562 463.277344 368.101562 C 466.542969 368.101562 469.1875 370.75 469.1875 374.019531 " fill-opacity="1" fill-rule="nonzero"/><path fill="#f75291" class="sombra" d="M 346.890625 374.019531 C 346.890625 377.285156 344.242188 379.9375 340.980469 379.9375 C 337.714844 379.9375 335.066406 377.285156 335.066406 374.019531 C 335.066406 370.75 337.714844 368.101562 340.980469 368.101562 C 344.242188 368.101562 346.890625 370.75 346.890625 374.019531 " fill-opacity="1" fill-rule="nonzero"/><path fill="#ffffff" class="pano" d="M 405.214844 429.574219 C 379.257812 409.53125 369 434.332031 377.582031 449.464844 C 386.195312 464.640625 404.578125 472.421875 404.578125 472.421875 C 404.578125 472.421875 423.1875 465.171875 432.242188 450.300781 C 441.273438 435.410156 431.777344 410.316406 405.214844 429.574219 " fill-opacity="1" fill-rule="nonzero"/></svg>