<svg xmlns="http://www.w3.org/2000/svg" xmlns:xlink="http://www.w3.org/1999/xlink" width="1080" zoomAndPan="magnify" viewBox="0 0 810 809.999993" height="1080" preserveAspectRatio="xMidYMid meet" version="1.0"><defs><clipPath id="fd66a23a98"><path d="M 277 228.09375 L 421 228.09375 L 421 405.09375 L 277 405.09375 Z M 277 228.09375 " clip-rule="nonzero"/></clipPath><clipPath id="c7d4766482"><path d="M 276 228.09375 L 413 228.09375 L 413 391 L 276 391 Z M 276 228.09375 " clip-rule="nonzero"/></clipPath><clipPath id="aa9786648b"><path d="M 416.367188 228.09375 L 557.15625 228.09375 L 557.15625 405.09375 L 416.367188 405.09375 Z M 416.367188 228.09375 " clip-rule="nonzero"/></clipPath></defs><g clip-path="url(#fd66a23a98)"><path fill="#ae0007" class="detalhe" d="M 369.1875 255.132812 C 352.746094 243.875 326.964844 224.289062 307.074219 228.746094 C 321.632812 228.421875 334.347656 237.78125 346.007812 245.640625 C 359.007812 254.398438 371.332031 264.277344 382.484375 275.414062 C 390.003906 282.917969 401.816406 294.617188 404.425781 305.449219 C 404.425781 305.449219 397.535156 330.863281 397.535156 330.863281 C 376.429688 354.53125 353.335938 378.207031 323.789062 386.917969 C 307.53125 391.710938 287.539062 389.554688 280.152344 369.136719 C 279.117188 366.277344 278.273438 363.253906 277.585938 360.113281 C 278.476562 367.648438 279.910156 374.902344 282.222656 381.402344 C 290.199219 403.792969 311.644531 408.867188 332.339844 402.664062 C 364.429688 393.046875 389.015625 367.109375 411.347656 341.601562 L 420.601562 301.464844 C 405.535156 283.808594 388.21875 268.167969 369.1875 255.132812 " fill-opacity="1" fill-rule="nonzero"/></g><g clip-path="url(#c7d4766482)"><path fill="#da1920" class="sombra" d="M 327.1875 389.027344 C 356.730469 380.316406 380.878906 366.964844 412.160156 324.160156 C 412.160156 324.160156 408.726562 309.375 408.726562 309.375 C 406.113281 298.542969 393 281.742188 385.480469 274.238281 C 374.324219 263.101562 362.003906 253.222656 349 244.464844 C 337.339844 236.605469 321.632812 228.421875 307.074219 228.746094 C 299.699219 230.398438 293.136719 235.34375 288.15625 245.257812 C 277.730469 266.015625 275.964844 293.355469 276.101562 316.214844 C 276.183594 329.613281 275.847656 345.40625 277.585938 360.113281 C 278.273438 363.253906 279.117188 366.277344 280.152344 369.136719 C 287.539062 389.554688 310.929688 393.816406 327.1875 389.027344 " fill-opacity="1" fill-rule="nonzero"/></g><path fill="#ae0007" class="detalhe" d="M 329.210938 285.550781 C 330.917969 284.101562 336.316406 284.976562 337.71875 284.960938 C 341.613281 284.921875 345.503906 285.230469 349.363281 285.722656 C 352.605469 286.222656 355.796875 286.914062 358.945312 287.792969 C 362.105469 288.613281 365.179688 289.742188 368.113281 291.3125 C 373.992188 294.433594 379.253906 299.152344 385.011719 302.359375 C 391.398438 305.914062 405.117188 309.472656 402.171875 319.582031 C 400.113281 326.636719 392.550781 332.042969 386.660156 335.585938 C 380.65625 339.199219 374.542969 342.171875 368.160156 344.105469 C 361.761719 345.964844 355.238281 347.140625 348.613281 347.628906 C 345.660156 347.839844 342.652344 347.734375 339.695312 347.648438 C 337.007812 347.574219 331.0625 348.765625 328.964844 346.523438 C 326.40625 343.789062 342.371094 336.691406 344.066406 335.816406 C 354.28125 330.550781 365.050781 326.195312 376.34375 324.128906 C 380.625 323.34375 385.125 323.609375 389.453125 322.980469 C 392.503906 322.542969 396.726562 321.8125 399.113281 319.671875 C 402.515625 316.617188 397.929688 312.734375 395.15625 311.308594 C 392.445312 309.921875 385.933594 308.246094 382.933594 307.238281 C 376.902344 305.191406 370.074219 305.40625 363.800781 304.261719 C 360.648438 303.703125 357.625 302.78125 354.664062 301.601562 C 351.679688 300.488281 348.734375 299.242188 345.816406 297.847656 C 340.246094 295.183594 333.175781 293.894531 329.402344 288.445312 C 329.023438 287.898438 328.667969 287.277344 328.691406 286.605469 C 328.707031 286.160156 328.894531 285.816406 329.210938 285.550781 " fill-opacity="1" fill-rule="nonzero"/><g clip-path="url(#aa9786648b)"><path fill="#ae0007" class="detalhe" d="M 544.789062 245.257812 C 533.476562 223.28125 514.167969 225.671875 495.546875 234.429688 C 502.5 232.132812 509.261719 231.152344 515.171875 232.585938 C 521.65625 234.15625 526.730469 238.46875 530.691406 245.773438 C 541.355469 265.429688 542.4375 291.734375 542.320312 309.808594 L 542.300781 316.304688 C 542.289062 333.882812 542.269531 353.796875 536.429688 368.96875 C 528.761719 388.933594 507.980469 391.035156 491.105469 386.355469 C 461.433594 378.121094 438.023438 356.203125 416.691406 333.84375 L 418.527344 341.605469 C 441.414062 367.113281 466.617188 393.050781 499.507812 402.664062 C 520.71875 408.867188 542.699219 403.792969 550.875 381.40625 C 557.878906 362.21875 557.019531 336.480469 557.144531 316.214844 C 557.289062 293.359375 555.480469 266.015625 544.789062 245.257812 " fill-opacity="1" fill-rule="nonzero"/></g><path fill="#da1920" class="sombra" d="M 491.105469 386.355469 C 507.980469 391.035156 528.761719 388.933594 536.429688 368.96875 C 542.269531 353.796875 542.289062 333.882812 542.300781 316.304688 L 542.320312 309.808594 C 542.4375 291.734375 541.355469 265.429688 530.691406 245.773438 C 526.730469 238.46875 521.65625 234.15625 515.171875 232.585938 C 509.261719 231.152344 502.5 232.132812 495.546875 234.429688 C 483.113281 240.277344 470.988281 248.957031 461.742188 255.136719 C 442.234375 268.167969 424.484375 283.808594 409.039062 301.46875 L 416.691406 333.84375 C 438.023438 356.203125 461.433594 378.121094 491.105469 386.355469 " fill-opacity="1" fill-rule="nonzero"/><path fill="#ae0007" class="detalhe" d="M 496.285156 286.402344 C 494.539062 284.953125 489 285.828125 487.5625 285.8125 C 483.570312 285.773438 479.585938 286.082031 475.628906 286.574219 C 472.304688 287.074219 469.03125 287.765625 465.8125 288.644531 C 462.570312 289.464844 459.417969 290.59375 456.414062 292.164062 C 450.386719 295.285156 444.988281 300.003906 439.089844 303.210938 C 432.550781 306.765625 418.484375 310.324219 421.503906 320.433594 C 423.613281 327.488281 431.363281 332.894531 437.402344 336.4375 C 443.554688 340.050781 449.820312 343.023438 456.363281 344.957031 C 462.921875 346.816406 469.609375 347.992188 476.402344 348.480469 C 479.425781 348.695312 482.507812 348.582031 485.539062 348.5 C 488.765625 348.414062 491.90625 348.808594 495.09375 348.054688 C 495.679688 347.917969 496.292969 347.734375 496.683594 347.273438 C 498.613281 344.992188 490.234375 341.570312 488.859375 340.804688 C 476.097656 333.714844 462.433594 327.5625 447.976562 324.984375 C 443.585938 324.199219 438.972656 324.460938 434.542969 323.835938 C 431.414062 323.394531 427.089844 322.664062 424.640625 320.523438 C 421.152344 317.46875 425.851562 313.585938 428.695312 312.160156 C 431.472656 310.773438 438.148438 309.097656 441.21875 308.089844 C 447.402344 306.042969 454.402344 306.257812 460.832031 305.113281 C 464.058594 304.550781 467.164062 303.632812 470.199219 302.453125 C 473.253906 301.339844 476.273438 300.09375 479.261719 298.695312 C 484.972656 296.035156 492.226562 294.746094 496.089844 289.296875 C 496.480469 288.75 496.839844 288.128906 496.816406 287.453125 C 496.800781 287.011719 496.605469 286.667969 496.285156 286.402344 " fill-opacity="1" fill-rule="nonzero"/><path fill="#ae0007" class="detalhe" d="M 412.667969 289.222656 C 410.121094 289.222656 407.441406 289.351562 405.097656 290.4375 C 403.25 291.292969 401.730469 292.6875 400.617188 294.378906 C 399.941406 295.40625 399.410156 296.523438 398.980469 297.675781 C 398.03125 300.234375 397.589844 302.386719 397.589844 304.457031 L 397.589844 321.792969 C 397.589844 322.625 397.558594 323.472656 397.53125 324.367188 C 397.457031 326.472656 397.386719 328.652344 397.6875 330.808594 C 397.855469 331.988281 398.210938 333.066406 398.714844 334.042969 C 400.714844 339.542969 406.804688 343.46875 413.273438 343.46875 C 421.230469 343.46875 427.738281 337.34375 427.738281 329.851562 L 427.738281 303.351562 C 427.738281 295.863281 420.625 289.222656 412.667969 289.222656 " fill-opacity="1" fill-rule="nonzero"/><path fill="#da1920" class="pano" d="M 410.433594 337.363281 C 419.550781 337.273438 422.792969 332.128906 422.792969 325.730469 C 422.792969 325.730469 422.792969 303.128906 422.792969 303.09375 C 422.792969 297.957031 421.261719 292.976562 414.085938 292.082031 C 408.441406 291.375 403.835938 291.875 401.355469 298.558594 C 400.65625 300.449219 400.125 302.433594 400.125 304.457031 C 400.125 307.660156 400.125 310.859375 400.125 314.066406 C 400.125 316.644531 400.125 319.21875 400.125 321.792969 C 400.125 324.632812 399.804688 327.65625 400.199219 330.449219 C 400.929688 335.601562 405.773438 337.40625 410.433594 337.363281 " fill-opacity="1" fill-rule="nonzero"/></svg>