<svg xmlns="http://www.w3.org/2000/svg" xmlns:xlink="http://www.w3.org/1999/xlink" width="1080" zoomAndPan="magnify" viewBox="0 0 810 809.999993" height="1080" preserveAspectRatio="xMidYMid meet" version="1.0"><defs><clipPath id="57a906bb21"><path d="M 319 445 L 490 445 L 490 532.765625 L 319 532.765625 Z M 319 445 " clip-rule="nonzero"/></clipPath><clipPath id="f5a178131d"><path d="M 430 277.015625 L 545 277.015625 L 545 473 L 430 473 Z M 430 277.015625 " clip-rule="nonzero"/></clipPath><clipPath id="41e9d7ca04"><path d="M 479 277.015625 L 558 277.015625 L 558 401 L 479 401 Z M 479 277.015625 " clip-rule="nonzero"/></clipPath><clipPath id="c96ccd388c"><path d="M 265 277.015625 L 380 277.015625 L 380 473 L 265 473 Z M 265 277.015625 " clip-rule="nonzero"/></clipPath><clipPath id="0963e06b72"><path d="M 252 277.015625 L 330 277.015625 L 330 401 L 252 401 Z M 252 277.015625 " clip-rule="nonzero"/></clipPath></defs><g clip-path="url(#57a906bb21)"><path fill="#fff3f3" class="detalhe" d="M 489.941406 530.894531 C 489.941406 530.929688 489.941406 530.964844 489.941406 531 C 489.941406 532.511719 487.78125 532.765625 487.417969 531.300781 C 478.1875 494.28125 444.71875 466.855469 404.847656 466.855469 C 364.976562 466.855469 331.507812 494.277344 322.277344 531.296875 C 321.914062 532.765625 319.757812 532.507812 319.753906 531 C 319.753906 530.964844 319.753906 530.925781 319.753906 530.890625 C 319.753906 483.886719 357.851562 445.785156 404.847656 445.785156 C 451.847656 445.785156 489.941406 483.890625 489.941406 530.894531 Z M 489.941406 530.894531 " fill-opacity="1" fill-rule="nonzero"/></g><g clip-path="url(#f5a178131d)"><path fill="#fff3f3" class="detalhe" d="M 540.332031 343.394531 C 535.824219 358.503906 525.863281 375.800781 513.789062 392.824219 C 510.832031 396.996094 507.746094 401.15625 504.582031 405.261719 C 483.414062 432.730469 458.792969 457.847656 445.511719 469.757812 C 438.941406 475.652344 438.691406 469.757812 438.691406 469.757812 L 430.21875 463.5 C 432.464844 427.101562 448.925781 342.851562 470.148438 310.660156 C 470.867188 309.566406 471.589844 308.507812 472.320312 307.488281 C 490.132812 282.382812 509.617188 277.648438 520.234375 277.1875 C 522 277.105469 523.769531 277.140625 525.53125 277.296875 C 526.789062 277.59375 527.976562 278.140625 528.929688 279 C 529.179688 279.242188 529.410156 279.503906 529.617188 279.785156 C 532.050781 284.019531 534.4375 288.320312 536.746094 292.648438 L 536.753906 292.664062 C 537.488281 294.128906 538.09375 295.355469 538.472656 296.09375 C 539.433594 297.980469 540.375 299.878906 541.300781 301.785156 C 542.039062 303.304688 542.757812 304.820312 543.460938 306.339844 C 545.132812 315.984375 544.851562 328.242188 540.332031 343.394531 Z M 540.332031 343.394531 " fill-opacity="1" fill-rule="nonzero"/></g><path fill="#f6c0c0" class="sombra" d="M 446.882812 447.710938 C 460.367188 434.332031 473.121094 420.28125 485.132812 405.566406 C 506.753906 379.023438 520.851562 356.039062 525.90625 339.09375 C 528.5625 330.191406 529.6875 321.886719 529.253906 314.421875 C 528.933594 308.875 527.75 303.78125 525.738281 299.285156 C 524.617188 296.75 523.199219 294.394531 521.484375 292.214844 C 517.914062 292.296875 512.546875 293.097656 506.296875 296.265625 C 497.695312 300.625 489.761719 308.257812 482.710938 318.957031 C 474.292969 331.726562 465.417969 356.597656 457.710938 388.992188 C 453.03125 408.679688 449.085938 430.179688 446.882812 447.710938 Z M 446.882812 447.710938 " fill-opacity="1" fill-rule="nonzero"/><g clip-path="url(#41e9d7ca04)"><path fill="#fff3f3" class="detalhe" d="M 537.125 400.863281 C 537.125 400.863281 526.175781 401.648438 513.789062 392.824219 C 511.6875 391.320312 509.710938 389.671875 507.851562 387.878906 C 506.046875 386.132812 504.355469 384.285156 502.78125 382.332031 C 502.363281 381.816406 501.949219 381.289062 501.539062 380.746094 L 501.40625 380.574219 L 501.144531 380.222656 L 500.882812 379.867188 C 500.359375 379.152344 499.835938 378.410156 499.3125 377.640625 C 496.808594 373.945312 494.40625 369.65625 492.179688 364.695312 C 490.019531 359.878906 488.144531 353.960938 486.527344 347.28125 C 484.9375 340.703125 483.597656 333.394531 482.488281 325.679688 C 482.242188 323.941406 482.003906 322.1875 481.777344 320.414062 C 481.070312 314.882812 480.476562 309.191406 479.984375 303.449219 C 481.867188 300.785156 483.898438 298.238281 486.082031 295.808594 C 487.996094 293.675781 490.035156 291.667969 492.199219 289.789062 C 494.109375 288.128906 496.117188 286.601562 498.222656 285.203125 C 500.085938 283.96875 502.019531 282.855469 504.027344 281.867188 C 505.800781 280.996094 507.621094 280.234375 509.492188 279.589844 C 511.128906 279.023438 512.796875 278.558594 514.492188 278.1875 C 516.296875 277.792969 518.28125 277.402344 520.226562 277.183594 C 521.242188 277.066406 522.261719 277.011719 523.285156 277.023438 C 524.039062 277.035156 524.789062 277.125 525.527344 277.296875 C 526.785156 277.589844 527.972656 278.136719 528.921875 278.996094 C 529.175781 279.238281 529.40625 279.5 529.609375 279.78125 C 532.042969 284.015625 534.433594 288.316406 536.738281 292.644531 L 536.746094 292.660156 C 537.480469 294.128906 538.089844 295.355469 538.464844 296.09375 C 539.425781 297.976562 540.371094 299.875 541.296875 301.78125 C 542.035156 303.300781 542.753906 304.820312 543.457031 306.335938 C 550.058594 320.609375 555 334.59375 556.542969 346.53125 C 561.902344 388.027344 537.125 400.863281 537.125 400.863281 Z M 537.125 400.863281 " fill-opacity="1" fill-rule="nonzero"/></g><path fill="#efa8a8" class="pano" d="M 502.78125 382.328125 C 501.023438 384.839844 499.179688 387.398438 497.25 390 C 495.265625 387.703125 493.425781 385.296875 491.726562 382.78125 C 488.816406 378.480469 486.15625 373.660156 483.820312 368.449219 C 481.519531 363.3125 479.433594 356.917969 477.625 349.4375 C 476.53125 344.925781 475.527344 339.960938 474.613281 334.613281 C 477.007812 329.007812 479.410156 324.238281 481.777344 320.410156 C 482.003906 322.183594 482.238281 323.9375 482.488281 325.675781 C 483.597656 333.390625 484.9375 340.703125 486.527344 347.28125 C 488.144531 353.957031 490.019531 359.875 492.179688 364.695312 C 494.40625 369.65625 496.808594 373.941406 499.3125 377.640625 C 500.449219 379.320312 501.605469 380.886719 502.78125 382.328125 Z M 502.78125 382.328125 " fill-opacity="1" fill-rule="nonzero"/><g clip-path="url(#c96ccd388c)"><path fill="#fff3f3" class="detalhe" d="M 379.476562 463.5 L 371.003906 469.757812 C 371.003906 469.757812 370.753906 475.648438 364.179688 469.757812 C 350.902344 457.84375 326.28125 432.726562 305.113281 405.257812 C 301.949219 401.15625 298.863281 396.996094 295.90625 392.820312 C 283.832031 375.800781 273.867188 358.5 269.359375 343.390625 C 264.84375 328.242188 264.5625 315.984375 266.234375 306.335938 C 266.9375 304.820312 267.65625 303.300781 268.394531 301.78125 C 269.320312 299.878906 270.261719 297.988281 271.222656 296.105469 C 271.601562 295.367188 272.207031 294.140625 272.941406 292.675781 L 272.949219 292.660156 C 275.257812 288.328125 277.648438 284.027344 280.082031 279.796875 C 280.285156 279.515625 280.515625 279.253906 280.765625 279.011719 C 281.71875 278.144531 282.90625 277.597656 284.164062 277.308594 C 285.925781 277.152344 287.695312 277.113281 289.460938 277.195312 C 300.082031 277.660156 319.574219 282.394531 337.378906 307.496094 C 338.105469 308.519531 338.828125 309.578125 339.546875 310.671875 C 355.460938 334.8125 368.695312 388.238281 375.265625 428.796875 C 377.460938 442.308594 378.914062 454.402344 379.476562 463.5 Z M 379.476562 463.5 " fill-opacity="1" fill-rule="nonzero"/></g><path fill="#f6c0c0" class="sombra" d="M 362.8125 447.710938 C 349.324219 434.332031 336.574219 420.28125 324.5625 405.566406 C 302.9375 379.019531 288.839844 356.03125 283.789062 339.089844 C 281.132812 330.1875 280.003906 321.882812 280.441406 314.417969 C 280.761719 308.871094 281.945312 303.777344 283.957031 299.28125 C 285.078125 296.746094 286.496094 294.390625 288.210938 292.210938 C 291.78125 292.292969 297.148438 293.09375 303.398438 296.261719 C 312 300.621094 319.933594 308.253906 326.984375 318.953125 C 335.398438 331.722656 344.277344 356.59375 351.980469 388.988281 C 356.664062 408.679688 360.609375 430.179688 362.8125 447.710938 Z M 362.8125 447.710938 " fill-opacity="1" fill-rule="nonzero"/><g clip-path="url(#0963e06b72)"><path fill="#fff3f3" class="detalhe" d="M 329.703125 303.449219 C 329.210938 309.1875 328.617188 314.878906 327.910156 320.410156 C 327.855469 320.839844 327.800781 321.269531 327.746094 321.699219 C 327.453125 323.882812 327.328125 324.78125 327.199219 325.675781 C 326.089844 333.390625 324.75 340.699219 323.160156 347.277344 C 321.542969 353.957031 319.667969 359.875 317.507812 364.691406 C 315.28125 369.65625 312.878906 373.941406 310.375 377.636719 C 309.84375 378.421875 309.308594 379.183594 308.765625 379.917969 L 308.542969 380.21875 C 308.464844 380.324219 308.382812 380.433594 308.300781 380.542969 C 308.21875 380.648438 308.136719 380.757812 308.054688 380.863281 C 307.675781 381.363281 307.292969 381.851562 306.910156 382.324219 C 305.335938 384.277344 303.644531 386.128906 301.839844 387.871094 C 299.980469 389.664062 298 391.3125 295.898438 392.816406 C 283.515625 401.648438 272.566406 400.859375 272.566406 400.859375 C 272.566406 400.859375 247.785156 388.027344 253.144531 346.535156 C 254.6875 334.59375 259.625 320.609375 266.234375 306.339844 C 266.9375 304.824219 267.65625 303.304688 268.394531 301.785156 C 269.320312 299.878906 270.261719 297.988281 271.222656 296.105469 C 271.601562 295.367188 272.207031 294.140625 272.941406 292.675781 L 272.949219 292.660156 C 275.257812 288.328125 277.648438 284.027344 280.082031 279.796875 C 280.285156 279.515625 280.515625 279.253906 280.765625 279.011719 C 281.71875 278.144531 282.90625 277.597656 284.164062 277.308594 C 284.902344 277.140625 285.648438 277.046875 286.40625 277.039062 C 287.429688 277.027344 288.449219 277.078125 289.460938 277.195312 C 291.410156 277.410156 293.390625 277.808594 295.199219 278.199219 C 296.894531 278.570312 298.558594 279.039062 300.199219 279.605469 C 302.066406 280.25 303.890625 281.007812 305.664062 281.878906 C 307.667969 282.867188 309.605469 283.980469 311.46875 285.21875 C 313.574219 286.617188 315.582031 288.144531 317.488281 289.800781 C 319.65625 291.683594 321.695312 293.6875 323.609375 295.824219 C 324.703125 297.035156 325.753906 298.277344 326.769531 299.554688 C 327.785156 300.832031 328.761719 302.128906 329.703125 303.449219 Z M 329.703125 303.449219 " fill-opacity="1" fill-rule="nonzero"/></g><path fill="#efa8a8" class="pano" d="M 306.914062 382.328125 C 308.671875 384.839844 310.515625 387.398438 312.441406 390 C 314.429688 387.703125 316.269531 385.296875 317.96875 382.78125 C 320.878906 378.484375 323.539062 373.660156 325.875 368.449219 C 328.175781 363.316406 330.261719 356.917969 332.070312 349.441406 C 333.164062 344.925781 334.164062 339.960938 335.082031 334.613281 C 332.6875 329.007812 330.285156 324.238281 327.917969 320.410156 C 327.691406 322.183594 327.453125 323.941406 327.207031 325.675781 C 326.097656 333.390625 324.757812 340.703125 323.164062 347.28125 C 321.550781 353.957031 319.675781 359.878906 317.515625 364.695312 C 315.289062 369.660156 312.882812 373.941406 310.382812 377.640625 C 309.246094 379.320312 308.09375 380.882812 306.917969 382.328125 Z M 306.914062 382.328125 " fill-opacity="1" fill-rule="nonzero"/></svg>