<svg xmlns="http://www.w3.org/2000/svg" xmlns:xlink="http://www.w3.org/1999/xlink" width="1920" zoomAndPan="magnify" viewBox="0 0 1440 809.999993" height="1080" preserveAspectRatio="xMidYMid meet" version="1.0"><path fill="#4bafdd" class="detalhe" d="M 805.214844 189.316406 C 805.214844 189.316406 801.945312 204.167969 800.3125 209.003906 C 798.390625 214.667969 793.089844 225.933594 793.421875 231.902344 C 793.722656 237.621094 799.402344 239.652344 800.863281 237.421875 C 805.667969 230.074219 808.285156 217.546875 810.234375 210.765625 C 811.699219 205.679688 815.980469 192.25 815.980469 192.25 Z M 805.214844 189.316406 " fill-opacity="1" fill-rule="nonzero"/><path fill="#fde24a" d="M 737.636719 260.835938 C 738.621094 260.835938 740.539062 259.210938 741.386719 258.71875 C 742.234375 258.230469 743.144531 257.703125 744.019531 257.183594 C 744.25 257.046875 744.851562 256.527344 745.09375 256.527344 C 744.113281 256.527344 742.191406 258.152344 741.34375 258.644531 C 740.496094 259.132812 739.589844 259.660156 738.714844 260.175781 C 738.480469 260.316406 737.882812 260.835938 737.636719 260.835938 Z M 737.636719 260.835938 " fill-opacity="1" fill-rule="nonzero"/><path fill="#fde24a" d="M 799.875 226.683594 L 799.726562 226.683594 L 799.851562 226.71875 Z M 799.875 226.683594 " fill-opacity="1" fill-rule="nonzero"/><path fill="#4bafdd" class="detalhe" d="M 569.707031 325.992188 C 561.753906 352.367188 583.40625 386.796875 636.953125 412.699219 C 730.46875 457.9375 828.398438 392.414062 828.398438 392.414062 L 700.246094 330.863281 L 646.101562 303.078125 C 646.101562 303.078125 576.5 303.488281 569.707031 325.992188 Z M 569.707031 325.992188 " fill-opacity="1" fill-rule="nonzero"/><path fill="#9fcc51" d="M 617.585938 304.886719 C 617.585938 304.886719 665.816406 186.246094 795.664062 225.433594 C 909.839844 259.882812 904.480469 358.789062 894.417969 378.132812 C 887.394531 391.625 836.960938 410.171875 748.835938 383.582031 C 659.871094 356.738281 617.585938 304.886719 617.585938 304.886719 Z M 617.585938 304.886719 " fill-opacity="1" fill-rule="nonzero"/><path fill="#9fcc51" d="M 617.585938 304.886719 C 617.585938 304.886719 665.816406 186.246094 795.664062 225.433594 C 909.839844 259.882812 904.480469 358.789062 894.417969 378.132812 C 887.394531 391.625 836.960938 410.171875 748.835938 383.582031 C 659.871094 356.738281 617.585938 304.886719 617.585938 304.886719 Z M 617.585938 304.886719 " fill-opacity="1" fill-rule="nonzero"/><path fill="#9fcc51" class="pano" d="M 799.726562 226.683594 C 798.386719 226.25 797.039062 225.820312 795.664062 225.390625 C 665.816406 186.246094 617.585938 304.886719 617.585938 304.886719 C 617.585938 304.886719 632.71875 323.4375 663.914062 344.074219 C 666.496094 337.378906 687.394531 284.980469 724.144531 253.378906 C 753.492188 228.160156 796.902344 226.746094 799.726562 226.683594 Z M 799.726562 226.683594 " fill-opacity="1" fill-rule="nonzero"/><path fill="#8369ad" class="pano" d="M 799.851562 226.726562 C 799.132812 227.945312 781.335938 258.269531 767.8125 303.097656 C 757.824219 336.214844 754.796875 349.804688 750.890625 384.199219 C 837.746094 409.886719 887.449219 391.519531 894.417969 378.113281 C 904.355469 359.007812 909.699219 262.296875 799.851562 226.726562 Z M 799.851562 226.726562 " fill-opacity="1" fill-rule="nonzero"/><path fill="#d44343" class="sombra" d="M 799.851562 226.726562 L 799.726562 226.6875 C 796.902344 226.75 753.492188 228.164062 724.144531 253.386719 C 687.378906 284.996094 666.484375 337.394531 663.914062 344.089844 C 684.871094 357.96875 713.082031 372.796875 748.835938 383.582031 L 750.890625 384.195312 C 754.796875 349.800781 757.824219 336.210938 767.8125 303.089844 C 781.332031 258.265625 799.132812 227.9375 799.851562 226.726562 Z M 799.851562 226.726562 " fill-opacity="1" fill-rule="nonzero"/><path fill="#fde24a" class="sombra" d="M 894.417969 378.109375 C 904.351562 359.015625 909.695312 262.386719 799.996094 226.769531 L 799.851562 226.769531 C 799.851562 226.769531 827.308594 256.523438 840.414062 305.59375 C 849.886719 341.105469 849.566406 359.496094 846.46875 395.816406 C 846.46875 396.046875 846.4375 396.246094 846.433594 396.476562 C 874.355469 394.074219 890.648438 385.367188 894.417969 378.109375 Z M 894.417969 378.109375 " fill-opacity="1" fill-rule="nonzero"/><path fill="#fde24a" class="detalhe" d="M 819.5 186.75 C 823.417969 184.21875 869.445312 179.664062 888.984375 185.554688 C 898.890625 188.539062 916.972656 198.355469 911.589844 216.128906 C 906.941406 231.53125 890.347656 235.9375 879.296875 232.492188 C 857.488281 225.914062 819.5 186.75 819.5 186.75 Z M 819.5 186.75 " fill-opacity="1" fill-rule="nonzero"/><path fill="#fde24a" class="sombra" d="M 810.121094 183.664062 C 806.167969 186.246094 759.683594 190.882812 739.984375 184.953125 C 730 181.941406 711.761719 172.035156 717.195312 154.011719 C 721.894531 138.382812 738.652344 133.925781 749.808594 137.410156 C 771.808594 144.046875 810.121094 183.664062 810.121094 183.664062 Z M 810.121094 183.664062 " fill-opacity="1" fill-rule="nonzero"/><path fill="#8369ad" class="pano" d="M 817.089844 172.433594 C 817.683594 172.613281 818.269531 172.8125 818.847656 173.03125 C 819.425781 173.25 819.996094 173.492188 820.554688 173.75 C 821.113281 174.007812 821.65625 174.285156 822.1875 174.582031 C 822.722656 174.875 823.238281 175.1875 823.738281 175.515625 C 824.238281 175.84375 824.71875 176.1875 825.183594 176.546875 C 825.648438 176.90625 826.089844 177.277344 826.515625 177.664062 C 826.9375 178.046875 827.335938 178.445312 827.714844 178.851562 C 828.09375 179.261719 828.449219 179.679688 828.777344 180.105469 C 829.109375 180.535156 829.410156 180.96875 829.691406 181.410156 C 829.96875 181.855469 830.21875 182.300781 830.441406 182.753906 C 830.664062 183.207031 830.863281 183.664062 831.027344 184.125 C 831.195312 184.582031 831.332031 185.042969 831.441406 185.503906 C 831.550781 185.964844 831.632812 186.425781 831.679688 186.886719 C 831.730469 187.34375 831.75 187.800781 831.742188 188.25 C 831.730469 188.703125 831.691406 189.148438 831.621094 189.589844 C 831.554688 190.03125 831.453125 190.464844 831.328125 190.886719 C 831.199219 191.3125 831.042969 191.730469 830.855469 192.132812 C 830.667969 192.539062 830.457031 192.933594 830.214844 193.316406 C 829.972656 193.695312 829.703125 194.066406 829.40625 194.417969 C 829.113281 194.773438 828.792969 195.113281 828.445312 195.4375 C 828.101562 195.761719 827.730469 196.070312 827.335938 196.359375 C 826.945312 196.648438 826.527344 196.921875 826.089844 197.175781 C 825.65625 197.429688 825.199219 197.664062 824.722656 197.878906 C 824.246094 198.09375 823.75 198.285156 823.242188 198.460938 C 822.730469 198.632812 822.203125 198.785156 821.664062 198.917969 C 821.121094 199.046875 820.570312 199.15625 820.003906 199.246094 C 819.4375 199.332031 818.863281 199.394531 818.277344 199.4375 C 817.691406 199.480469 817.101562 199.5 816.503906 199.496094 C 815.902344 199.492188 815.300781 199.46875 814.695312 199.417969 C 814.089844 199.371094 813.480469 199.300781 812.875 199.207031 C 812.265625 199.113281 811.660156 199 811.054688 198.863281 C 810.453125 198.726562 809.851562 198.566406 809.257812 198.386719 C 808.664062 198.207031 808.074219 198.007812 807.496094 197.789062 C 806.917969 197.570312 806.347656 197.328125 805.789062 197.070312 C 805.234375 196.8125 804.6875 196.535156 804.15625 196.238281 C 803.625 195.945312 803.109375 195.632812 802.609375 195.304688 C 802.109375 194.976562 801.625 194.632812 801.160156 194.273438 C 800.699219 193.914062 800.253906 193.542969 799.832031 193.15625 C 799.410156 192.773438 799.007812 192.375 798.628906 191.96875 C 798.25 191.558594 797.898438 191.140625 797.566406 190.714844 C 797.238281 190.285156 796.933594 189.851562 796.65625 189.410156 C 796.378906 188.964844 796.125 188.519531 795.902344 188.066406 C 795.679688 187.613281 795.484375 187.15625 795.316406 186.695312 C 795.148438 186.238281 795.011719 185.777344 794.902344 185.316406 C 794.792969 184.855469 794.714844 184.394531 794.664062 183.933594 C 794.613281 183.476562 794.59375 183.019531 794.605469 182.570312 C 794.613281 182.117188 794.652344 181.671875 794.722656 181.230469 C 794.792969 180.789062 794.890625 180.355469 795.019531 179.933594 C 795.148438 179.507812 795.304688 179.089844 795.488281 178.6875 C 795.675781 178.28125 795.890625 177.886719 796.132812 177.503906 C 796.375 177.125 796.640625 176.753906 796.9375 176.402344 C 797.234375 176.046875 797.554688 175.707031 797.898438 175.382812 C 798.246094 175.058594 798.613281 174.75 799.007812 174.460938 C 799.402344 174.171875 799.816406 173.898438 800.253906 173.644531 C 800.691406 173.390625 801.148438 173.15625 801.625 172.94140-6 C 802.101562 172.726562 802.59375 172.535156 803.105469 172.359375 C 803.617188 172.1875 804.140625 172.035156 804.683594 171.902344 C 805.222656 171.773438 805.777344 171.664062 806.34375 171.574219 C 806.90625 171.488281 807.484375 171.425781 808.066406 171.382812 C 808.652344 171.339844 809.246094 171.320312 809.84375 171.324219 C 810.441406 171.328125 811.042969 171.351562 811.648438 171.402344 C 812.257812 171.449219 812.863281 171.519531 813.472656 171.613281 C 814.078125 171.707031 814.6875 171.820312 815.289062 171.957031 C 815.894531 172.09375 816.492188 172.253906 817.089844 172.433594 Z M 817.089844 172.433594 " fill-opacity="1" fill-rule="nonzero"/></svg>